<svg xmlns="http://www.w3.org/2000/svg" xmlns:xlink="http://www.w3.org/1999/xlink" width="600" height="400" viewBox="0 0 2400 1600">
<defs>
  <clipPath id="clip100">
    <rect x="0" y="0" width="2400" height="1600"></rect>
  </clipPath>
</defs>
<path clip-path="url(#clip100)" d="
M0 1600 L2400 1600 L2400 0 L0 0  Z
  " fill="#ffffff" fill-rule="evenodd" fill-opacity="1"></path>
<defs>
  <clipPath id="clip101">
    <rect x="480" y="0" width="1681" height="1600"></rect>
  </clipPath>
</defs>
<path clip-path="url(#clip100)" d="
M219.38 1423.18 L2352.76 1423.18 L2352.76 123.472 L219.38 123.472  Z
  " fill="#ffffff" fill-rule="evenodd" fill-opacity="1"></path>
<defs>
  <clipPath id="clip102">
    <rect x="219" y="123" width="2134" height="1301"></rect>
  </clipPath>
</defs>
<polyline clip-path="url(#clip102)" style="stroke:#000000; stroke-linecap:round; stroke-linejoin:round; stroke-width:2; stroke-opacity:0.1; fill:none" points="
  273.41,1423.18 273.41,123.472 
  "></polyline>
<polyline clip-path="url(#clip102)" style="stroke:#000000; stroke-linecap:round; stroke-linejoin:round; stroke-width:2; stroke-opacity:0.1; fill:none" points="
  908.305,1423.18 908.305,123.472 
  "></polyline>
<polyline clip-path="url(#clip102)" style="stroke:#000000; stroke-linecap:round; stroke-linejoin:round; stroke-width:2; stroke-opacity:0.1; fill:none" points="
  1543.2,1423.18 1543.2,123.472 
  "></polyline>
<polyline clip-path="url(#clip102)" style="stroke:#000000; stroke-linecap:round; stroke-linejoin:round; stroke-width:2; stroke-opacity:0.1; fill:none" points="
  2178.1,1423.18 2178.1,123.472 
  "></polyline>
<polyline clip-path="url(#clip100)" style="stroke:#000000; stroke-linecap:round; stroke-linejoin:round; stroke-width:4; stroke-opacity:1; fill:none" points="
  219.38,1423.18 2352.76,1423.18 
  "></polyline>
<polyline clip-path="url(#clip100)" style="stroke:#000000; stroke-linecap:round; stroke-linejoin:round; stroke-width:4; stroke-opacity:1; fill:none" points="
  273.41,1423.18 273.41,1404.28 
  "></polyline>
<polyline clip-path="url(#clip100)" style="stroke:#000000; stroke-linecap:round; stroke-linejoin:round; stroke-width:4; stroke-opacity:1; fill:none" points="
  908.305,1423.18 908.305,1404.28 
  "></polyline>
<polyline clip-path="url(#clip100)" style="stroke:#000000; stroke-linecap:round; stroke-linejoin:round; stroke-width:4; stroke-opacity:1; fill:none" points="
  1543.2,1423.18 1543.2,1404.28 
  "></polyline>
<polyline clip-path="url(#clip100)" style="stroke:#000000; stroke-linecap:round; stroke-linejoin:round; stroke-width:4; stroke-opacity:1; fill:none" points="
  2178.1,1423.18 2178.1,1404.28 
  "></polyline>
<path clip-path="url(#clip100)" d="M273.41 1454.1 Q269.799 1454.1 267.97 1457.66 Q266.164 1461.2 266.164 1468.33 Q266.164 1475.44 267.97 1479.01 Q269.799 1482.55 273.41 1482.55 Q277.044 1482.55 278.85 1479.01 Q280.678 1475.44 280.678 1468.33 Q280.678 1461.2 278.85 1457.66 Q277.044 1454.1 273.41 1454.1 M273.41 1450.39 Q279.22 1450.39 282.275 1455 Q285.354 1459.58 285.354 1468.33 Q285.354 1477.06 282.275 1481.67 Q279.22 1486.25 273.41 1486.25 Q267.6 1486.25 264.521 1481.67 Q261.465 1477.06 261.465 1468.33 Q261.465 1459.58 264.521 1455 Q267.6 1450.39 273.41 1450.39 Z" fill="#000000" fill-rule="evenodd" fill-opacity="1"></path><path clip-path="url(#clip100)" d="M867.912 1481.64 L875.551 1481.64 L875.551 1455.28 L867.241 1456.95 L867.241 1452.69 L875.504 1451.02 L880.18 1451.02 L880.18 1481.64 L887.819 1481.64 L887.819 1485.58 L867.912 1485.58 L867.912 1481.64 Z" fill="#000000" fill-rule="evenodd" fill-opacity="1"></path><path clip-path="url(#clip100)" d="M907.264 1454.1 Q903.652 1454.1 901.824 1457.66 Q900.018 1461.2 900.018 1468.33 Q900.018 1475.44 901.824 1479.01 Q903.652 1482.55 907.264 1482.55 Q910.898 1482.55 912.703 1479.01 Q914.532 1475.44 914.532 1468.33 Q914.532 1461.2 912.703 1457.66 Q910.898 1454.1 907.264 1454.1 M907.264 1450.39 Q913.074 1450.39 916.129 1455 Q919.208 1459.58 919.208 1468.33 Q919.208 1477.06 916.129 1481.67 Q913.074 1486.25 907.264 1486.25 Q901.453 1486.25 898.375 1481.67 Q895.319 1477.06 895.319 1468.33 Q895.319 1459.58 898.375 1455 Q901.453 1450.39 907.264 1450.39 Z" fill="#000000" fill-rule="evenodd" fill-opacity="1"></path><path clip-path="url(#clip100)" d="M937.425 1454.1 Q933.814 1454.1 931.986 1457.66 Q930.18 1461.2 930.18 1468.33 Q930.18 1475.44 931.986 1479.01 Q933.814 1482.55 937.425 1482.55 Q941.06 1482.55 942.865 1479.01 Q944.694 1475.44 944.694 1468.33 Q944.694 1461.2 942.865 1457.66 Q941.06 1454.1 937.425 1454.1 M937.425 1450.39 Q943.236 1450.39 946.291 1455 Q949.37 1459.58 949.37 1468.33 Q949.37 1477.06 946.291 1481.67 Q943.236 1486.25 937.425 1486.25 Q931.615 1486.25 928.537 1481.67 Q925.481 1477.06 925.481 1468.33 Q925.481 1459.58 928.537 1455 Q931.615 1450.39 937.425 1450.39 Z" fill="#000000" fill-rule="evenodd" fill-opacity="1"></path><path clip-path="url(#clip100)" d="M1506.89 1481.64 L1523.21 1481.64 L1523.21 1485.58 L1501.27 1485.58 L1501.27 1481.64 Q1503.93 1478.89 1508.51 1474.26 Q1513.12 1469.61 1514.3 1468.27 Q1516.55 1465.74 1517.43 1464.01 Q1518.33 1462.25 1518.33 1460.56 Q1518.33 1457.8 1516.38 1456.07 Q1514.46 1454.33 1511.36 1454.33 Q1509.16 1454.33 1506.71 1455.09 Q1504.28 1455.86 1501.5 1457.41 L1501.5 1452.69 Q1504.32 1451.55 1506.78 1450.97 Q1509.23 1450.39 1511.27 1450.39 Q1516.64 1450.39 1519.83 1453.08 Q1523.03 1455.77 1523.03 1460.26 Q1523.03 1462.39 1522.22 1464.31 Q1521.43 1466.2 1519.32 1468.8 Q1518.74 1469.47 1515.64 1472.69 Q1512.54 1475.88 1506.89 1481.64 Z" fill="#000000" fill-rule="evenodd" fill-opacity="1"></path><path clip-path="url(#clip100)" d="M1543.03 1454.1 Q1539.42 1454.1 1537.59 1457.66 Q1535.78 1461.2 1535.78 1468.33 Q1535.78 1475.44 1537.59 1479.01 Q1539.42 1482.55 1543.03 1482.55 Q1546.66 1482.55 1548.47 1479.01 Q1550.3 1475.44 1550.3 1468.33 Q1550.3 1461.2 1548.47 1457.66 Q1546.66 1454.1 1543.03 1454.1 M1543.03 1450.39 Q1548.84 1450.39 1551.89 1455 Q1554.97 1459.58 1554.97 1468.33 Q1554.97 1477.06 1551.89 1481.67 Q1548.84 1486.25 1543.03 1486.25 Q1537.22 1486.25 1534.14 1481.67 Q1531.08 1477.06 1531.08 1468.33 Q1531.08 1459.58 1534.14 1455 Q1537.22 1450.39 1543.03 1450.39 Z" fill="#000000" fill-rule="evenodd" fill-opacity="1"></path><path clip-path="url(#clip100)" d="M1573.19 1454.1 Q1569.58 1454.1 1567.75 1457.66 Q1565.94 1461.2 1565.94 1468.33 Q1565.94 1475.44 1567.75 1479.01 Q1569.58 1482.55 1573.19 1482.55 Q1576.82 1482.55 1578.63 1479.01 Q1580.46 1475.44 1580.46 1468.33 Q1580.46 1461.2 1578.63 1457.66 Q1576.82 1454.1 1573.19 1454.1 M1573.19 1450.39 Q1579 1450.39 1582.05 1455 Q1585.13 1459.58 1585.13 1468.33 Q1585.13 1477.06 1582.05 1481.67 Q1579 1486.25 1573.19 1486.25 Q1567.38 1486.25 1564.3 1481.67 Q1561.24 1477.06 1561.24 1468.33 Q1561.24 1459.58 1564.3 1455 Q1567.38 1450.39 1573.19 1450.39 Z" fill="#000000" fill-rule="evenodd" fill-opacity="1"></path><path clip-path="url(#clip100)" d="M2151.86 1466.95 Q2155.21 1467.66 2157.09 1469.93 Q2158.99 1472.2 2158.99 1475.53 Q2158.99 1480.65 2155.47 1483.45 Q2151.95 1486.25 2145.47 1486.25 Q2143.29 1486.25 2140.98 1485.81 Q2138.69 1485.39 2136.23 1484.54 L2136.23 1480.02 Q2138.18 1481.16 2140.49 1481.74 Q2142.81 1482.32 2145.33 1482.32 Q2149.73 1482.32 2152.02 1480.58 Q2154.33 1478.84 2154.33 1475.53 Q2154.33 1472.48 2152.18 1470.77 Q2150.05 1469.03 2146.23 1469.03 L2142.21 1469.03 L2142.21 1465.19 L2146.42 1465.19 Q2149.87 1465.19 2151.7 1463.82 Q2153.52 1462.43 2153.52 1459.84 Q2153.52 1457.18 2151.63 1455.77 Q2149.75 1454.33 2146.23 1454.33 Q2144.31 1454.33 2142.11 1454.75 Q2139.91 1455.16 2137.27 1456.04 L2137.27 1451.88 Q2139.94 1451.14 2142.25 1450.77 Q2144.59 1450.39 2146.65 1450.39 Q2151.97 1450.39 2155.08 1452.83 Q2158.18 1455.23 2158.18 1459.35 Q2158.18 1462.22 2156.53 1464.21 Q2154.89 1466.18 2151.86 1466.95 Z" fill="#000000" fill-rule="evenodd" fill-opacity="1"></path><path clip-path="url(#clip100)" d="M2177.85 1454.1 Q2174.24 1454.1 2172.41 1457.66 Q2170.61 1461.2 2170.61 1468.33 Q2170.61 1475.44 2172.41 1479.01 Q2174.24 1482.55 2177.85 1482.55 Q2181.49 1482.55 2183.29 1479.01 Q2185.12 1475.44 2185.12 1468.33 Q2185.12 1461.2 2183.29 1457.66 Q2181.49 1454.1 2177.85 1454.1 M2177.85 1450.39 Q2183.66 1450.39 2186.72 1455 Q2189.8 1459.58 2189.8 1468.33 Q2189.8 1477.06 2186.72 1481.67 Q2183.66 1486.25 2177.85 1486.25 Q2172.04 1486.25 2168.96 1481.67 Q2165.91 1477.06 2165.91 1468.33 Q2165.91 1459.58 2168.96 1455 Q2172.04 1450.39 2177.85 1450.39 Z" fill="#000000" fill-rule="evenodd" fill-opacity="1"></path><path clip-path="url(#clip100)" d="M2208.01 1454.1 Q2204.4 1454.1 2202.58 1457.66 Q2200.77 1461.2 2200.77 1468.33 Q2200.77 1475.44 2202.58 1479.01 Q2204.4 1482.55 2208.01 1482.55 Q2211.65 1482.55 2213.45 1479.01 Q2215.28 1475.44 2215.28 1468.33 Q2215.28 1461.2 2213.45 1457.66 Q2211.65 1454.1 2208.01 1454.1 M2208.01 1450.39 Q2213.83 1450.39 2216.88 1455 Q2219.96 1459.58 2219.96 1468.33 Q2219.96 1477.06 2216.88 1481.67 Q2213.83 1486.25 2208.01 1486.25 Q2202.2 1486.25 2199.13 1481.67 Q2196.07 1477.06 2196.07 1468.33 Q2196.07 1459.58 2199.13 1455 Q2202.2 1450.39 2208.01 1450.39 Z" fill="#000000" fill-rule="evenodd" fill-opacity="1"></path><path clip-path="url(#clip100)" d="M1112.24 1522.08 L1112.24 1528.35 Q1108.58 1526.6 1105.33 1525.74 Q1102.08 1524.88 1099.06 1524.88 Q1093.81 1524.88 1090.94 1526.92 Q1088.11 1528.96 1088.11 1532.71 Q1088.11 1535.87 1089.99 1537.49 Q1091.9 1539.08 1097.18 1540.07 L1101.06 1540.86 Q1108.26 1542.23 1111.66 1545.7 Q1115.1 1549.14 1115.1 1554.93 Q1115.1 1561.84 1110.45 1565.4 Q1105.84 1568.97 1096.9 1568.97 Q1093.52 1568.97 1089.7 1568.2 Q1085.91 1567.44 1081.84 1565.94 L1081.84 1559.32 Q1085.76 1561.52 1089.51 1562.63 Q1093.27 1563.75 1096.9 1563.75 Q1102.4 1563.75 1105.39 1561.58 Q1108.39 1559.42 1108.39 1555.41 Q1108.39 1551.91 1106.22 1549.93 Q1104.09 1547.96 1099.19 1546.97 L1095.27 1546.21 Q1088.08 1544.78 1084.86 1541.72 Q1081.65 1538.67 1081.65 1533.22 Q1081.65 1526.92 1086.07 1523.29 Q1090.53 1519.66 1098.33 1519.66 Q1101.67 1519.66 1105.14 1520.27 Q1108.61 1520.87 1112.24 1522.08 Z" fill="#000000" fill-rule="evenodd" fill-opacity="1"></path><path clip-path="url(#clip100)" d="M1138.69 1536.5 Q1133.98 1536.5 1131.24 1540.19 Q1128.5 1543.85 1128.5 1550.25 Q1128.5 1556.65 1131.21 1560.34 Q1133.94 1564 1138.69 1564 Q1143.36 1564 1146.1 1560.31 Q1148.84 1556.62 1148.84 1550.25 Q1148.84 1543.92 1146.1 1540.23 Q1143.36 1536.5 1138.69 1536.5 M1138.69 1531.54 Q1146.32 1531.54 1150.69 1536.5 Q1155.05 1541.47 1155.05 1550.25 Q1155.05 1559 1150.69 1564 Q1146.32 1568.97 1138.69 1568.97 Q1131.02 1568.97 1126.65 1564 Q1122.33 1559 1122.33 1550.25 Q1122.33 1541.47 1126.65 1536.5 Q1131.02 1531.54 1138.69 1531.54 Z" fill="#000000" fill-rule="evenodd" fill-opacity="1"></path><path clip-path="url(#clip100)" d="M1185.41 1537.87 Q1184.42 1537.3 1183.25 1537.04 Q1182.1 1536.76 1180.7 1536.76 Q1175.73 1536.76 1173.06 1540 Q1170.42 1543.22 1170.42 1549.27 L1170.42 1568.04 L1164.53 1568.04 L1164.53 1532.4 L1170.42 1532.4 L1170.42 1537.93 Q1172.27 1534.69 1175.23 1533.13 Q1178.19 1531.54 1182.42 1531.54 Q1183.02 1531.54 1183.76 1531.63 Q1184.49 1531.7 1185.38 1531.85 L1185.41 1537.87 Z" fill="#000000" fill-rule="evenodd" fill-opacity="1"></path><path clip-path="url(#clip100)" d="M1197.35 1522.27 L1197.35 1532.4 L1209.41 1532.4 L1209.41 1536.95 L1197.35 1536.95 L1197.35 1556.3 Q1197.35 1560.66 1198.52 1561.9 Q1199.73 1563.14 1203.39 1563.14 L1209.41 1563.14 L1209.41 1568.04 L1203.39 1568.04 Q1196.61 1568.04 1194.04 1565.53 Q1191.46 1562.98 1191.46 1556.3 L1191.46 1536.95 L1187.16 1536.95 L1187.16 1532.4 L1191.46 1532.4 L1191.46 1522.27 L1197.35 1522.27 Z" fill="#000000" fill-rule="evenodd" fill-opacity="1"></path><path clip-path="url(#clip100)" d="M1247.6 1548.76 L1247.6 1551.62 L1220.68 1551.62 Q1221.06 1557.67 1224.3 1560.85 Q1227.58 1564 1233.41 1564 Q1236.78 1564 1239.93 1563.17 Q1243.12 1562.35 1246.23 1560.69 L1246.23 1566.23 Q1243.08 1567.57 1239.77 1568.27 Q1236.46 1568.97 1233.06 1568.97 Q1224.53 1568.97 1219.53 1564 Q1214.57 1559.04 1214.57 1550.57 Q1214.57 1541.82 1219.28 1536.69 Q1224.02 1531.54 1232.04 1531.54 Q1239.23 1531.54 1243.4 1536.18 Q1247.6 1540.8 1247.6 1548.76 M1241.75 1547.04 Q1241.68 1542.23 1239.04 1539.37 Q1236.43 1536.5 1232.1 1536.5 Q1227.2 1536.5 1224.24 1539.27 Q1221.31 1542.04 1220.87 1547.07 L1241.75 1547.04 Z" fill="#000000" fill-rule="evenodd" fill-opacity="1"></path><path clip-path="url(#clip100)" d="M1280.67 1537.81 L1280.67 1518.52 L1286.53 1518.52 L1286.53 1568.04 L1280.67 1568.04 L1280.67 1562.7 Q1278.83 1565.88 1275.99 1567.44 Q1273.19 1568.97 1269.25 1568.97 Q1262.79 1568.97 1258.71 1563.81 Q1254.67 1558.65 1254.67 1550.25 Q1254.67 1541.85 1258.71 1536.69 Q1262.79 1531.54 1269.25 1531.54 Q1273.19 1531.54 1275.99 1533.1 Q1278.83 1534.62 1280.67 1537.81 M1260.72 1550.25 Q1260.72 1556.71 1263.36 1560.4 Q1266.03 1564.07 1270.68 1564.07 Q1275.33 1564.07 1278 1560.4 Q1280.67 1556.71 1280.67 1550.25 Q1280.67 1543.79 1278 1540.13 Q1275.33 1536.44 1270.68 1536.44 Q1266.03 1536.44 1263.36 1540.13 Q1260.72 1543.79 1260.72 1550.25 Z" fill="#000000" fill-rule="evenodd" fill-opacity="1"></path><path clip-path="url(#clip100)" d="M1319.57 1520.52 L1326 1520.52 L1326 1568.04 L1319.57 1568.04 L1319.57 1520.52 Z" fill="#000000" fill-rule="evenodd" fill-opacity="1"></path><path clip-path="url(#clip100)" d="M1368.17 1546.53 L1368.17 1568.04 L1362.31 1568.04 L1362.31 1546.72 Q1362.31 1541.66 1360.34 1539.14 Q1358.37 1536.63 1354.42 1536.63 Q1349.68 1536.63 1346.94 1539.65 Q1344.2 1542.68 1344.2 1547.9 L1344.2 1568.04 L1338.31 1568.04 L1338.31 1532.4 L1344.2 1532.4 L1344.2 1537.93 Q1346.3 1534.72 1349.14 1533.13 Q1352 1531.54 1355.72 1531.54 Q1361.87 1531.54 1365.02 1535.36 Q1368.17 1539.14 1368.17 1546.53 Z" fill="#000000" fill-rule="evenodd" fill-opacity="1"></path><path clip-path="url(#clip100)" d="M1403.31 1537.81 L1403.31 1518.52 L1409.16 1518.52 L1409.16 1568.04 L1403.31 1568.04 L1403.31 1562.7 Q1401.46 1565.88 1398.63 1567.44 Q1395.83 1568.97 1391.88 1568.97 Q1385.42 1568.97 1381.35 1563.81 Q1377.3 1558.65 1377.3 1550.25 Q1377.3 1541.85 1381.35 1536.69 Q1385.42 1531.54 1391.88 1531.54 Q1395.83 1531.54 1398.63 1533.1 Q1401.46 1534.62 1403.31 1537.81 M1383.35 1550.25 Q1383.35 1556.71 1385.99 1560.4 Q1388.67 1564.07 1393.31 1564.07 Q1397.96 1564.07 1400.63 1560.4 Q1403.31 1556.71 1403.31 1550.25 Q1403.31 1543.79 1400.63 1540.13 Q1397.96 1536.44 1393.31 1536.44 Q1388.67 1536.44 1385.99 1540.13 Q1383.35 1543.79 1383.35 1550.25 Z" fill="#000000" fill-rule="evenodd" fill-opacity="1"></path><path clip-path="url(#clip100)" d="M1451.72 1548.76 L1451.72 1551.62 L1424.79 1551.62 Q1425.17 1557.67 1428.42 1560.85 Q1431.7 1564 1437.52 1564 Q1440.9 1564 1444.05 1563.17 Q1447.23 1562.35 1450.35 1560.69 L1450.35 1566.23 Q1447.2 1567.57 1443.89 1568.27 Q1440.58 1568.97 1437.17 1568.97 Q1428.64 1568.97 1423.65 1564 Q1418.68 1559.04 1418.68 1550.57 Q1418.68 1541.82 1423.39 1536.69 Q1428.13 1531.54 1436.16 1531.54 Q1443.35 1531.54 1447.52 1536.18 Q1451.72 1540.8 1451.72 1548.76 M1445.86 1547.04 Q1445.8 1542.23 1443.16 1539.37 Q1440.55 1536.5 1436.22 1536.5 Q1431.32 1536.5 1428.36 1539.27 Q1425.43 1542.04 1424.98 1547.07 L1445.86 1547.04 Z" fill="#000000" fill-rule="evenodd" fill-opacity="1"></path><path clip-path="url(#clip100)" d="M1489.82 1532.4 L1476.93 1549.74 L1490.49 1568.04 L1483.58 1568.04 L1473.2 1554.04 L1462.83 1568.04 L1455.92 1568.04 L1469.77 1549.39 L1457.1 1532.4 L1464.01 1532.4 L1473.46 1545.1 L1482.91 1532.4 L1489.82 1532.4 Z" fill="#000000" fill-rule="evenodd" fill-opacity="1"></path><polyline clip-path="url(#clip102)" style="stroke:#000000; stroke-linecap:round; stroke-linejoin:round; stroke-width:2; stroke-opacity:0.1; fill:none" points="
  219.38,1422.8 2352.76,1422.8 
  "></polyline>
<polyline clip-path="url(#clip102)" style="stroke:#000000; stroke-linecap:round; stroke-linejoin:round; stroke-width:2; stroke-opacity:0.1; fill:none" points="
  219.38,1111.26 2352.76,1111.26 
  "></polyline>
<polyline clip-path="url(#clip102)" style="stroke:#000000; stroke-linecap:round; stroke-linejoin:round; stroke-width:2; stroke-opacity:0.1; fill:none" points="
  219.38,799.711 2352.76,799.711 
  "></polyline>
<polyline clip-path="url(#clip102)" style="stroke:#000000; stroke-linecap:round; stroke-linejoin:round; stroke-width:2; stroke-opacity:0.1; fill:none" points="
  219.38,488.164 2352.76,488.164 
  "></polyline>
<polyline clip-path="url(#clip102)" style="stroke:#000000; stroke-linecap:round; stroke-linejoin:round; stroke-width:2; stroke-opacity:0.1; fill:none" points="
  219.38,176.617 2352.76,176.617 
  "></polyline>
<polyline clip-path="url(#clip100)" style="stroke:#000000; stroke-linecap:round; stroke-linejoin:round; stroke-width:4; stroke-opacity:1; fill:none" points="
  219.38,1423.18 219.38,123.472 
  "></polyline>
<polyline clip-path="url(#clip100)" style="stroke:#000000; stroke-linecap:round; stroke-linejoin:round; stroke-width:4; stroke-opacity:1; fill:none" points="
  219.38,1422.8 238.278,1422.8 
  "></polyline>
<polyline clip-path="url(#clip100)" style="stroke:#000000; stroke-linecap:round; stroke-linejoin:round; stroke-width:4; stroke-opacity:1; fill:none" points="
  219.38,1111.26 238.278,1111.26 
  "></polyline>
<polyline clip-path="url(#clip100)" style="stroke:#000000; stroke-linecap:round; stroke-linejoin:round; stroke-width:4; stroke-opacity:1; fill:none" points="
  219.38,799.711 238.278,799.711 
  "></polyline>
<polyline clip-path="url(#clip100)" style="stroke:#000000; stroke-linecap:round; stroke-linejoin:round; stroke-width:4; stroke-opacity:1; fill:none" points="
  219.38,488.164 238.278,488.164 
  "></polyline>
<polyline clip-path="url(#clip100)" style="stroke:#000000; stroke-linecap:round; stroke-linejoin:round; stroke-width:4; stroke-opacity:1; fill:none" points="
  219.38,176.617 238.278,176.617 
  "></polyline>
<path clip-path="url(#clip100)" d="M126.205 1408.6 Q122.593 1408.6 120.765 1412.17 Q118.959 1415.71 118.959 1422.84 Q118.959 1429.95 120.765 1433.51 Q122.593 1437.05 126.205 1437.05 Q129.839 1437.05 131.644 1433.51 Q133.473 1429.95 133.473 1422.84 Q133.473 1415.71 131.644 1412.17 Q129.839 1408.6 126.205 1408.6 M126.205 1404.9 Q132.015 1404.9 135.07 1409.51 Q138.149 1414.09 138.149 1422.84 Q138.149 1431.57 135.07 1436.17 Q132.015 1440.76 126.205 1440.76 Q120.394 1440.76 117.316 1436.17 Q114.26 1431.57 114.26 1422.84 Q114.26 1414.09 117.316 1409.51 Q120.394 1404.9 126.205 1404.9 Z" fill="#000000" fill-rule="evenodd" fill-opacity="1"></path><path clip-path="url(#clip100)" d="M146.366 1434.2 L151.251 1434.2 L151.251 1440.08 L146.366 1440.08 L146.366 1434.2 Z" fill="#000000" fill-rule="evenodd" fill-opacity="1"></path><path clip-path="url(#clip100)" d="M171.436 1408.6 Q167.825 1408.6 165.996 1412.17 Q164.19 1415.71 164.19 1422.84 Q164.19 1429.95 165.996 1433.51 Q167.825 1437.05 171.436 1437.05 Q175.07 1437.05 176.876 1433.51 Q178.704 1429.95 178.704 1422.84 Q178.704 1415.71 176.876 1412.17 Q175.07 1408.6 171.436 1408.6 M171.436 1404.9 Q177.246 1404.9 180.301 1409.51 Q183.38 1414.09 183.38 1422.84 Q183.38 1431.57 180.301 1436.17 Q177.246 1440.76 171.436 1440.76 Q165.626 1440.76 162.547 1436.17 Q159.491 1431.57 159.491 1422.84 Q159.491 1414.09 162.547 1409.51 Q165.626 1404.9 171.436 1404.9 Z" fill="#000000" fill-rule="evenodd" fill-opacity="1"></path><path clip-path="url(#clip100)" d="M127.2 1097.06 Q123.589 1097.06 121.76 1100.62 Q119.955 1104.16 119.955 1111.29 Q119.955 1118.4 121.76 1121.96 Q123.589 1125.51 127.2 1125.51 Q130.834 1125.51 132.64 1121.96 Q134.468 1118.4 134.468 1111.29 Q134.468 1104.16 132.64 1100.62 Q130.834 1097.06 127.2 1097.06 M127.2 1093.35 Q133.01 1093.35 136.066 1097.96 Q139.144 1102.54 139.144 1111.29 Q139.144 1120.02 136.066 1124.63 Q133.01 1129.21 127.2 1129.21 Q121.39 1129.21 118.311 1124.63 Q115.256 1120.02 115.256 1111.29 Q115.256 1102.54 118.311 1097.96 Q121.39 1093.35 127.2 1093.35 Z" fill="#000000" fill-rule="evenodd" fill-opacity="1"></path><path clip-path="url(#clip100)" d="M147.362 1122.66 L152.246 1122.66 L152.246 1128.54 L147.362 1128.54 L147.362 1122.66 Z" fill="#000000" fill-rule="evenodd" fill-opacity="1"></path><path clip-path="url(#clip100)" d="M162.477 1093.98 L180.834 1093.98 L180.834 1097.91 L166.76 1097.91 L166.76 1106.38 Q167.778 1106.04 168.797 1105.88 Q169.815 1105.69 170.834 1105.69 Q176.621 1105.69 180.001 1108.86 Q183.38 1112.03 183.38 1117.45 Q183.38 1123.03 179.908 1126.13 Q176.436 1129.21 170.116 1129.21 Q167.94 1129.21 165.672 1128.84 Q163.427 1128.47 161.019 1127.73 L161.019 1123.03 Q163.102 1124.16 165.325 1124.72 Q167.547 1125.27 170.024 1125.27 Q174.028 1125.27 176.366 1123.17 Q178.704 1121.06 178.704 1117.45 Q178.704 1113.84 176.366 1111.73 Q174.028 1109.63 170.024 1109.63 Q168.149 1109.63 166.274 1110.04 Q164.422 1110.46 162.477 1111.34 L162.477 1093.98 Z" fill="#000000" fill-rule="evenodd" fill-opacity="1"></path><path clip-path="url(#clip100)" d="M117.015 813.056 L124.654 813.056 L124.654 786.69 L116.343 788.357 L116.343 784.097 L124.607 782.431 L129.283 782.431 L129.283 813.056 L136.922 813.056 L136.922 816.991 L117.015 816.991 L117.015 813.056 Z" fill="#000000" fill-rule="evenodd" fill-opacity="1"></path><path clip-path="url(#clip100)" d="M146.366 811.111 L151.251 811.111 L151.251 816.991 L146.366 816.991 L146.366 811.111 Z" fill="#000000" fill-rule="evenodd" fill-opacity="1"></path><path clip-path="url(#clip100)" d="M171.436 785.509 Q167.825 785.509 165.996 789.074 Q164.19 792.616 164.19 799.745 Q164.19 806.852 165.996 810.417 Q167.825 813.958 171.436 813.958 Q175.07 813.958 176.876 810.417 Q178.704 806.852 178.704 799.745 Q178.704 792.616 176.876 789.074 Q175.07 785.509 171.436 785.509 M171.436 781.806 Q177.246 781.806 180.301 786.412 Q183.38 790.995 183.38 799.745 Q183.38 808.472 180.301 813.079 Q177.246 817.662 171.436 817.662 Q165.626 817.662 162.547 813.079 Q159.491 808.472 159.491 799.745 Q159.491 790.995 162.547 786.412 Q165.626 781.806 171.436 781.806 Z" fill="#000000" fill-rule="evenodd" fill-opacity="1"></path><path clip-path="url(#clip100)" d="M118.01 501.509 L125.649 501.509 L125.649 475.143 L117.339 476.81 L117.339 472.551 L125.603 470.884 L130.279 470.884 L130.279 501.509 L137.917 501.509 L137.917 505.444 L118.01 505.444 L118.01 501.509 Z" fill="#000000" fill-rule="evenodd" fill-opacity="1"></path><path clip-path="url(#clip100)" d="M147.362 499.564 L152.246 499.564 L152.246 505.444 L147.362 505.444 L147.362 499.564 Z" fill="#000000" fill-rule="evenodd" fill-opacity="1"></path><path clip-path="url(#clip100)" d="M162.477 470.884 L180.834 470.884 L180.834 474.819 L166.76 474.819 L166.76 483.291 Q167.778 482.944 168.797 482.782 Q169.815 482.597 170.834 482.597 Q176.621 482.597 180.001 485.768 Q183.38 488.939 183.38 494.356 Q183.38 499.935 179.908 503.037 Q176.436 506.115 170.116 506.115 Q167.94 506.115 165.672 505.745 Q163.427 505.375 161.019 504.634 L161.019 499.935 Q163.102 501.069 165.325 501.625 Q167.547 502.18 170.024 502.18 Q174.028 502.18 176.366 500.074 Q178.704 497.967 178.704 494.356 Q178.704 490.745 176.366 488.638 Q174.028 486.532 170.024 486.532 Q168.149 486.532 166.274 486.949 Q164.422 487.365 162.477 488.245 L162.477 470.884 Z" fill="#000000" fill-rule="evenodd" fill-opacity="1"></path><path clip-path="url(#clip100)" d="M120.232 189.962 L136.552 189.962 L136.552 193.897 L114.607 193.897 L114.607 189.962 Q117.269 187.207 121.853 182.578 Q126.459 177.925 127.64 176.582 Q129.885 174.059 130.765 172.323 Q131.667 170.564 131.667 168.874 Q131.667 166.12 129.723 164.383 Q127.802 162.647 124.7 162.647 Q122.501 162.647 120.047 163.411 Q117.617 164.175 114.839 165.726 L114.839 161.004 Q117.663 159.87 120.117 159.291 Q122.57 158.712 124.607 158.712 Q129.978 158.712 133.172 161.397 Q136.367 164.083 136.367 168.573 Q136.367 170.703 135.556 172.624 Q134.769 174.522 132.663 177.115 Q132.084 177.786 128.982 181.004 Q125.88 184.198 120.232 189.962 Z" fill="#000000" fill-rule="evenodd" fill-opacity="1"></path><path clip-path="url(#clip100)" d="M146.366 188.018 L151.251 188.018 L151.251 193.897 L146.366 193.897 L146.366 188.018 Z" fill="#000000" fill-rule="evenodd" fill-opacity="1"></path><path clip-path="url(#clip100)" d="M171.436 162.416 Q167.825 162.416 165.996 165.981 Q164.19 169.522 164.19 176.652 Q164.19 183.758 165.996 187.323 Q167.825 190.865 171.436 190.865 Q175.07 190.865 176.876 187.323 Q178.704 183.758 178.704 176.652 Q178.704 169.522 176.876 165.981 Q175.07 162.416 171.436 162.416 M171.436 158.712 Q177.246 158.712 180.301 163.319 Q183.38 167.902 183.38 176.652 Q183.38 185.379 180.301 189.985 Q177.246 194.568 171.436 194.568 Q165.626 194.568 162.547 189.985 Q159.491 185.379 159.491 176.652 Q159.491 167.902 162.547 163.319 Q165.626 158.712 171.436 158.712 Z" fill="#000000" fill-rule="evenodd" fill-opacity="1"></path><path clip-path="url(#clip100)" d="M18.0438 830.14 L24.314 830.14 Q22.5634 833.8 21.704 837.047 Q20.8447 840.293 20.8447 843.317 Q20.8447 848.569 22.8817 851.433 Q24.9187 854.266 28.6745 854.266 Q31.8255 854.266 33.4488 852.388 Q35.0402 850.478 36.0269 845.195 L36.8226 841.312 Q38.1912 834.118 41.6605 830.713 Q45.098 827.275 50.8908 827.275 Q57.7976 827.275 61.3624 831.922 Q64.9272 836.537 64.9272 845.481 Q64.9272 848.855 64.1633 852.675 Q63.3994 856.462 61.9035 860.536 L55.2831 860.536 Q57.4793 856.621 58.5933 852.865 Q59.7073 849.11 59.7073 845.481 Q59.7073 839.975 57.543 836.983 Q55.3786 833.991 51.3682 833.991 Q47.8671 833.991 45.8937 836.156 Q43.9204 838.288 42.9337 843.19 L42.1698 847.105 Q40.7375 854.298 37.682 857.512 Q34.6264 860.727 29.1837 860.727 Q22.8817 860.727 19.2532 856.303 Q15.6248 851.847 15.6248 844.049 Q15.6248 840.707 16.2295 837.238 Q16.8343 833.768 18.0438 830.14 Z" fill="#000000" fill-rule="evenodd" fill-opacity="1"></path><path clip-path="url(#clip100)" d="M29.7248 791.85 L35.1993 791.85 Q33.8307 794.333 33.1623 796.847 Q32.4621 799.33 32.4621 801.876 Q32.4621 807.573 36.0905 810.725 Q39.6872 813.876 46.212 813.876 Q52.7369 813.876 56.3653 810.725 Q59.9619 807.573 59.9619 801.876 Q59.9619 799.33 59.2935 796.847 Q58.5933 794.333 57.2247 791.85 L62.6355 791.85 Q63.7814 794.301 64.3543 796.943 Q64.9272 799.553 64.9272 802.513 Q64.9272 810.565 59.8664 815.308 Q54.8057 820.05 46.212 820.05 Q37.491 820.05 32.4939 815.276 Q27.4968 810.47 27.4968 802.131 Q27.4968 799.425 28.0697 796.847 Q28.6108 794.269 29.7248 791.85 Z" fill="#000000" fill-rule="evenodd" fill-opacity="1"></path><path clip-path="url(#clip100)" d="M32.4621 767.851 Q32.4621 772.562 36.1542 775.299 Q39.8145 778.037 46.212 778.037 Q52.6095 778.037 56.3017 775.331 Q59.9619 772.594 59.9619 767.851 Q59.9619 763.173 56.2698 760.435 Q52.5777 757.698 46.212 757.698 Q39.8781 757.698 36.186 760.435 Q32.4621 763.173 32.4621 767.851 M27.4968 767.851 Q27.4968 760.213 32.4621 755.852 Q37.4273 751.492 46.212 751.492 Q54.9649 751.492 59.9619 755.852 Q64.9272 760.213 64.9272 767.851 Q64.9272 775.522 59.9619 779.883 Q54.9649 784.211 46.212 784.211 Q37.4273 784.211 32.4621 779.883 Q27.4968 775.522 27.4968 767.851 Z" fill="#000000" fill-rule="evenodd" fill-opacity="1"></path><path clip-path="url(#clip100)" d="M33.8307 721.127 Q33.2578 722.114 33.0032 723.292 Q32.7167 724.437 32.7167 725.838 Q32.7167 730.803 35.9632 733.477 Q39.1779 736.118 45.2253 736.118 L64.0042 736.118 L64.0042 742.007 L28.3562 742.007 L28.3562 736.118 L33.8944 736.118 Q30.6479 734.272 29.0883 731.312 Q27.4968 728.352 27.4968 724.119 Q27.4968 723.514 27.5923 722.782 Q27.656 722.05 27.8151 721.159 L33.8307 721.127 Z" fill="#000000" fill-rule="evenodd" fill-opacity="1"></path><path clip-path="url(#clip100)" d="M44.7161 685.925 L47.5806 685.925 L47.5806 712.852 Q53.6281 712.47 56.8109 709.223 Q59.9619 705.945 59.9619 700.12 Q59.9619 696.747 59.1344 693.596 Q58.3069 690.413 56.6518 687.293 L62.1899 687.293 Q63.5267 690.444 64.227 693.755 Q64.9272 697.065 64.9272 700.47 Q64.9272 709.001 59.9619 713.998 Q54.9967 718.963 46.5303 718.963 Q37.7774 718.963 32.6531 714.252 Q27.4968 709.51 27.4968 701.489 Q27.4968 694.296 32.1438 690.126 Q36.7589 685.925 44.7161 685.925 M42.9973 691.781 Q38.1912 691.845 35.3266 694.487 Q32.4621 697.097 32.4621 701.425 Q32.4621 706.327 35.2312 709.287 Q38.0002 712.215 43.0292 712.661 L42.9973 691.781 Z" fill="#000000" fill-rule="evenodd" fill-opacity="1"></path><path clip-path="url(#clip100)" d="M784.12 18.8205 L784.12 65.8515 L794.005 65.8515 Q806.522 65.8515 812.315 60.1802 Q818.148 54.509 818.148 42.2752 Q818.148 30.1225 812.315 24.4918 Q806.522 18.8205 794.005 18.8205 L784.12 18.8205 M775.938 12.096 L792.749 12.096 Q810.33 12.096 818.553 19.4281 Q826.777 26.7198 826.777 42.2752 Q826.777 57.9117 818.513 65.2439 Q810.249 72.576 792.749 72.576 L775.938 72.576 L775.938 12.096 Z" fill="#000000" fill-rule="evenodd" fill-opacity="1"></path><path clip-path="url(#clip100)" d="M878.304 48.0275 L878.304 51.6733 L844.033 51.6733 Q844.519 59.3701 848.651 63.421 Q852.824 67.4314 860.237 67.4314 Q864.531 67.4314 868.541 66.3781 Q872.592 65.3249 876.562 63.2184 L876.562 70.267 Q872.552 71.9684 868.339 72.8596 Q864.126 73.7508 859.791 73.7508 Q848.935 73.7508 842.575 67.4314 Q836.256 61.1119 836.256 50.3365 Q836.256 39.1965 842.251 32.6746 Q848.287 26.1121 858.495 26.1121 Q867.65 26.1121 872.957 32.0264 Q878.304 37.9003 878.304 48.0275 M870.85 45.84 Q870.769 39.7232 867.407 36.0774 Q864.085 32.4315 858.576 32.4315 Q852.338 32.4315 848.57 35.9558 Q844.844 39.4801 844.276 45.8805 L870.85 45.84 Z" fill="#000000" fill-rule="evenodd" fill-opacity="1"></path><path clip-path="url(#clip100)" d="M928.252 45.1919 L928.252 72.576 L920.798 72.576 L920.798 45.4349 Q920.798 38.994 918.286 35.7938 Q915.775 32.5936 910.752 32.5936 Q904.716 32.5936 901.232 36.4419 Q897.748 40.2903 897.748 46.9338 L897.748 72.576 L890.254 72.576 L890.254 27.2059 L897.748 27.2059 L897.748 34.2544 Q900.422 30.163 904.027 28.1376 Q907.673 26.1121 912.413 26.1121 Q920.231 26.1121 924.241 30.9732 Q928.252 35.7938 928.252 45.1919 Z" fill="#000000" fill-rule="evenodd" fill-opacity="1"></path><path clip-path="url(#clip100)" d="M972.042 28.5427 L972.042 35.5912 Q968.882 33.9709 965.479 33.1607 Q962.077 32.3505 958.431 32.3505 Q952.881 32.3505 950.086 34.0519 Q947.331 35.7533 947.331 39.156 Q947.331 41.7486 949.316 43.2475 Q951.301 44.7058 957.297 46.0426 L959.849 46.6097 Q967.788 48.3111 971.11 51.4303 Q974.472 54.509 974.472 60.0587 Q974.472 66.3781 969.449 70.0644 Q964.467 73.7508 955.717 73.7508 Q952.071 73.7508 948.101 73.0216 Q944.172 72.3329 939.797 70.9151 L939.797 63.2184 Q943.929 65.3654 947.939 66.4591 Q951.949 67.5124 955.879 67.5124 Q961.145 67.5124 963.981 65.73 Q966.816 63.9071 966.816 60.6258 Q966.816 57.5877 964.75 55.9673 Q962.725 54.3469 955.798 52.8481 L953.205 52.2405 Q946.278 50.7821 943.199 47.7845 Q940.121 44.7463 940.121 39.4801 Q940.121 33.0797 944.658 29.5959 Q949.195 26.1121 957.54 26.1121 Q961.672 26.1121 965.317 26.7198 Q968.963 27.3274 972.042 28.5427 Z" fill="#000000" fill-rule="evenodd" fill-opacity="1"></path><path clip-path="url(#clip100)" d="M1025.15 48.0275 L1025.15 51.6733 L990.879 51.6733 Q991.365 59.3701 995.497 63.421 Q999.669 67.4314 1007.08 67.4314 Q1011.38 67.4314 1015.39 66.3781 Q1019.44 65.3249 1023.41 63.2184 L1023.41 70.267 Q1019.4 71.9684 1015.18 72.8596 Q1010.97 73.7508 1006.64 73.7508 Q995.78 73.7508 989.42 67.4314 Q983.101 61.1119 983.101 50.3365 Q983.101 39.1965 989.096 32.6746 Q995.132 26.1121 1005.34 26.1121 Q1014.5 26.1121 1019.8 32.0264 Q1025.15 37.9003 1025.15 48.0275 M1017.7 45.84 Q1017.61 39.7232 1014.25 36.0774 Q1010.93 32.4315 1005.42 32.4315 Q999.183 32.4315 995.416 35.9558 Q991.689 39.4801 991.122 45.8805 L1017.7 45.84 Z" fill="#000000" fill-rule="evenodd" fill-opacity="1"></path><path clip-path="url(#clip100)" d="M1045.89 18.8205 L1045.89 41.5461 L1056.18 41.5461 Q1061.89 41.5461 1065.01 38.5889 Q1068.13 35.6318 1068.13 30.163 Q1068.13 24.7348 1065.01 21.7777 Q1061.89 18.8205 1056.18 18.8205 L1045.89 18.8205 M1037.71 12.096 L1056.18 12.096 Q1066.35 12.096 1071.53 16.714 Q1076.76 21.2916 1076.76 30.163 Q1076.76 39.1155 1071.53 43.6931 Q1066.35 48.2706 1056.18 48.2706 L1045.89 48.2706 L1045.89 72.576 L1037.71 72.576 L1037.71 12.096 Z" fill="#000000" fill-rule="evenodd" fill-opacity="1"></path><path clip-path="url(#clip100)" d="M1102.04 32.4315 Q1096.04 32.4315 1092.56 37.1306 Q1089.07 41.7891 1089.07 49.9314 Q1089.07 58.0738 1092.52 62.7728 Q1096 67.4314 1102.04 67.4314 Q1107.99 67.4314 1111.47 62.7323 Q1114.96 58.0333 1114.96 49.9314 Q1114.96 41.8701 1111.47 37.1711 Q1107.99 32.4315 1102.04 32.4315 M1102.04 26.1121 Q1111.76 26.1121 1117.31 32.4315 Q1122.86 38.7509 1122.86 49.9314 Q1122.86 61.0714 1117.31 67.4314 Q1111.76 73.7508 1102.04 73.7508 Q1092.27 73.7508 1086.72 67.4314 Q1081.21 61.0714 1081.21 49.9314 Q1081.21 38.7509 1086.72 32.4315 Q1092.27 26.1121 1102.04 26.1121 Z" fill="#000000" fill-rule="evenodd" fill-opacity="1"></path><path clip-path="url(#clip100)" d="M1164.14 28.5427 L1164.14 35.5912 Q1160.98 33.9709 1157.57 33.1607 Q1154.17 32.3505 1150.52 32.3505 Q1144.98 32.3505 1142.18 34.0519 Q1139.43 35.7533 1139.43 39.156 Q1139.43 41.7486 1141.41 43.2475 Q1143.4 44.7058 1149.39 46.0426 L1151.94 46.6097 Q1159.88 48.3111 1163.2 51.4303 Q1166.57 54.509 1166.57 60.0587 Q1166.57 66.3781 1161.54 70.0644 Q1156.56 73.7508 1147.81 73.7508 Q1144.16 73.7508 1140.19 73.0216 Q1136.27 72.3329 1131.89 70.9151 L1131.89 63.2184 Q1136.02 65.3654 1140.03 66.4591 Q1144.04 67.5124 1147.97 67.5124 Q1153.24 67.5124 1156.07 65.73 Q1158.91 63.9071 1158.91 60.6258 Q1158.91 57.5877 1156.84 55.9673 Q1154.82 54.3469 1147.89 52.8481 L1145.3 52.2405 Q1138.37 50.7821 1135.29 47.7845 Q1132.21 44.7463 1132.21 39.4801 Q1132.21 33.0797 1136.75 29.5959 Q1141.29 26.1121 1149.63 26.1121 Q1153.77 26.1121 1157.41 26.7198 Q1161.06 27.3274 1164.14 28.5427 Z" fill="#000000" fill-rule="evenodd" fill-opacity="1"></path><path clip-path="url(#clip100)" d="M1205.13 12.096 L1216.15 12.096 L1242.97 62.6918 L1242.97 12.096 L1250.91 12.096 L1250.91 72.576 L1239.89 72.576 L1213.07 21.9802 L1213.07 72.576 L1205.13 72.576 L1205.13 12.096 Z" fill="#000000" fill-rule="evenodd" fill-opacity="1"></path><path clip-path="url(#clip100)" d="M1305.67 48.0275 L1305.67 51.6733 L1271.4 51.6733 Q1271.89 59.3701 1276.02 63.421 Q1280.19 67.4314 1287.61 67.4314 Q1291.9 67.4314 1295.91 66.3781 Q1299.96 65.3249 1303.93 63.2184 L1303.93 70.267 Q1299.92 71.9684 1295.71 72.8596 Q1291.5 73.7508 1287.16 73.7508 Q1276.31 73.7508 1269.95 67.4314 Q1263.63 61.1119 1263.63 50.3365 Q1263.63 39.1965 1269.62 32.6746 Q1275.66 26.1121 1285.87 26.1121 Q1295.02 26.1121 1300.33 32.0264 Q1305.67 37.9003 1305.67 48.0275 M1298.22 45.84 Q1298.14 39.7232 1294.78 36.0774 Q1291.46 32.4315 1285.95 32.4315 Q1279.71 32.4315 1275.94 35.9558 Q1272.21 39.4801 1271.65 45.8805 L1298.22 45.84 Z" fill="#000000" fill-rule="evenodd" fill-opacity="1"></path><path clip-path="url(#clip100)" d="M1317.14 54.671 L1317.14 27.2059 L1324.59 27.2059 L1324.59 54.3874 Q1324.59 60.8284 1327.1 64.0691 Q1329.62 67.2693 1334.64 67.2693 Q1340.67 67.2693 1344.16 63.421 Q1347.68 59.5726 1347.68 52.9291 L1347.68 27.2059 L1355.14 27.2059 L1355.14 72.576 L1347.68 72.576 L1347.68 65.6084 Q1344.97 69.7404 1341.36 71.7658 Q1337.8 73.7508 1333.06 73.7508 Q1325.24 73.7508 1321.19 68.8897 Q1317.14 64.0286 1317.14 54.671 M1335.89 26.1121 L1335.89 26.1121 Z" fill="#000000" fill-rule="evenodd" fill-opacity="1"></path><path clip-path="url(#clip100)" d="M1396.78 34.1734 Q1395.52 33.4443 1394.02 33.1202 Q1392.57 32.7556 1390.78 32.7556 Q1384.46 32.7556 1381.06 36.8875 Q1377.7 40.9789 1377.7 48.6757 L1377.7 72.576 L1370.21 72.576 L1370.21 27.2059 L1377.7 27.2059 L1377.7 34.2544 Q1380.05 30.1225 1383.82 28.1376 Q1387.58 26.1121 1392.97 26.1121 Q1393.74 26.1121 1394.67 26.2337 Q1395.6 26.3147 1396.74 26.5172 L1396.78 34.1734 Z" fill="#000000" fill-rule="evenodd" fill-opacity="1"></path><path clip-path="url(#clip100)" d="M1420.36 32.4315 Q1414.36 32.4315 1410.88 37.1306 Q1407.39 41.7891 1407.39 49.9314 Q1407.39 58.0738 1410.84 62.7728 Q1414.32 67.4314 1420.36 67.4314 Q1426.31 67.4314 1429.79 62.7323 Q1433.28 58.0333 1433.28 49.9314 Q1433.28 41.8701 1429.79 37.1711 Q1426.31 32.4315 1420.36 32.4315 M1420.36 26.1121 Q1430.08 26.1121 1435.63 32.4315 Q1441.18 38.7509 1441.18 49.9314 Q1441.18 61.0714 1435.63 67.4314 Q1430.08 73.7508 1420.36 73.7508 Q1410.59 73.7508 1405.04 67.4314 Q1399.53 61.0714 1399.53 49.9314 Q1399.53 38.7509 1405.04 32.4315 Q1410.59 26.1121 1420.36 26.1121 Z" fill="#000000" fill-rule="evenodd" fill-opacity="1"></path><path clip-path="url(#clip100)" d="M1491.25 45.1919 L1491.25 72.576 L1483.79 72.576 L1483.79 45.4349 Q1483.79 38.994 1481.28 35.7938 Q1478.77 32.5936 1473.75 32.5936 Q1467.71 32.5936 1464.23 36.4419 Q1460.74 40.2903 1460.74 46.9338 L1460.74 72.576 L1453.25 72.576 L1453.25 27.2059 L1460.74 27.2059 L1460.74 34.2544 Q1463.42 30.163 1467.02 28.1376 Q1470.67 26.1121 1475.41 26.1121 Q1483.23 26.1121 1487.24 30.9732 Q1491.25 35.7938 1491.25 45.1919 Z" fill="#000000" fill-rule="evenodd" fill-opacity="1"></path><path clip-path="url(#clip100)" d="M1569.06 14.0809 L1569.06 22.0612 Q1564.41 19.8332 1560.27 18.7395 Q1556.14 17.6457 1552.29 17.6457 Q1545.61 17.6457 1541.96 20.2383 Q1538.36 22.8309 1538.36 27.611 Q1538.36 31.6214 1540.75 33.6873 Q1543.18 35.7128 1549.9 36.9686 L1554.85 37.9813 Q1564 39.7232 1568.34 44.1387 Q1572.71 48.5136 1572.71 55.8863 Q1572.71 64.6767 1566.8 69.2137 Q1560.92 73.7508 1549.54 73.7508 Q1545.24 73.7508 1540.38 72.7785 Q1535.56 71.8063 1530.38 69.9024 L1530.38 61.4765 Q1535.36 64.2716 1540.14 65.6895 Q1544.92 67.1073 1549.54 67.1073 Q1556.55 67.1073 1560.35 64.3527 Q1564.16 61.598 1564.16 56.4939 Q1564.16 52.0379 1561.41 49.5264 Q1558.69 47.0148 1552.46 45.759 L1547.47 44.7868 Q1538.32 42.9639 1534.23 39.075 Q1530.14 35.1862 1530.14 28.2591 Q1530.14 20.2383 1535.77 15.6203 Q1541.44 11.0023 1551.36 11.0023 Q1555.62 11.0023 1560.03 11.7719 Q1564.45 12.5416 1569.06 14.0809 Z" fill="#000000" fill-rule="evenodd" fill-opacity="1"></path><path clip-path="url(#clip100)" d="M1617.8 28.9478 L1617.8 35.9153 Q1614.64 34.1734 1611.44 33.3227 Q1608.28 32.4315 1605.04 32.4315 Q1597.79 32.4315 1593.77 37.0496 Q1589.76 41.6271 1589.76 49.9314 Q1589.76 58.2358 1593.77 62.8538 Q1597.79 67.4314 1605.04 67.4314 Q1608.28 67.4314 1611.44 66.5807 Q1614.64 65.6895 1617.8 63.9476 L1617.8 70.8341 Q1614.68 72.2924 1611.32 73.0216 Q1607.99 73.7508 1604.23 73.7508 Q1593.98 73.7508 1587.94 67.3098 Q1581.91 60.8689 1581.91 49.9314 Q1581.91 38.832 1587.98 32.472 Q1594.1 26.1121 1604.71 26.1121 Q1608.16 26.1121 1611.44 26.8413 Q1614.72 27.5299 1617.8 28.9478 Z" fill="#000000" fill-rule="evenodd" fill-opacity="1"></path><path clip-path="url(#clip100)" d="M1648.34 32.4315 Q1642.35 32.4315 1638.86 37.1306 Q1635.38 41.7891 1635.38 49.9314 Q1635.38 58.0738 1638.82 62.7728 Q1642.3 67.4314 1648.34 67.4314 Q1654.3 67.4314 1657.78 62.7323 Q1661.26 58.0333 1661.26 49.9314 Q1661.26 41.8701 1657.78 37.1711 Q1654.3 32.4315 1648.34 32.4315 M1648.34 26.1121 Q1658.06 26.1121 1663.61 32.4315 Q1669.16 38.7509 1669.16 49.9314 Q1669.16 61.0714 1663.61 67.4314 Q1658.06 73.7508 1648.34 73.7508 Q1638.58 73.7508 1633.03 67.4314 Q1627.52 61.0714 1627.52 49.9314 Q1627.52 38.7509 1633.03 32.4315 Q1638.58 26.1121 1648.34 26.1121 Z" fill="#000000" fill-rule="evenodd" fill-opacity="1"></path><path clip-path="url(#clip100)" d="M1707.81 34.1734 Q1706.55 33.4443 1705.05 33.1202 Q1703.59 32.7556 1701.81 32.7556 Q1695.49 32.7556 1692.09 36.8875 Q1688.73 40.9789 1688.73 48.6757 L1688.73 72.576 L1681.23 72.576 L1681.23 27.2059 L1688.73 27.2059 L1688.73 34.2544 Q1691.08 30.1225 1694.84 28.1376 Q1698.61 26.1121 1704 26.1121 Q1704.77 26.1121 1705.7 26.2337 Q1706.63 26.3147 1707.77 26.5172 L1707.81 34.1734 Z" fill="#000000" fill-rule="evenodd" fill-opacity="1"></path><path clip-path="url(#clip100)" d="M1752.61 48.0275 L1752.61 51.6733 L1718.34 51.6733 Q1718.83 59.3701 1722.96 63.421 Q1727.13 67.4314 1734.54 67.4314 Q1738.84 67.4314 1742.85 66.3781 Q1746.9 65.3249 1750.87 63.2184 L1750.87 70.267 Q1746.86 71.9684 1742.65 72.8596 Q1738.43 73.7508 1734.1 73.7508 Q1723.24 73.7508 1716.88 67.4314 Q1710.56 61.1119 1710.56 50.3365 Q1710.56 39.1965 1716.56 32.6746 Q1722.59 26.1121 1732.8 26.1121 Q1741.96 26.1121 1747.26 32.0264 Q1752.61 37.9003 1752.61 48.0275 M1745.16 45.84 Q1745.08 39.7232 1741.71 36.0774 Q1738.39 32.4315 1732.88 32.4315 Q1726.64 32.4315 1722.88 35.9558 Q1719.15 39.4801 1718.58 45.8805 L1745.16 45.84 Z" fill="#000000" fill-rule="evenodd" fill-opacity="1"></path><path clip-path="url(#clip100)" d="M1793.77 28.5427 L1793.77 35.5912 Q1790.61 33.9709 1787.21 33.1607 Q1783.8 32.3505 1780.16 32.3505 Q1774.61 32.3505 1771.81 34.0519 Q1769.06 35.7533 1769.06 39.156 Q1769.06 41.7486 1771.04 43.2475 Q1773.03 44.7058 1779.02 46.0426 L1781.57 46.6097 Q1789.51 48.3111 1792.84 51.4303 Q1796.2 54.509 1796.2 60.0587 Q1796.2 66.3781 1791.18 70.0644 Q1786.19 73.7508 1777.44 73.7508 Q1773.8 73.7508 1769.83 73.0216 Q1765.9 72.3329 1761.52 70.9151 L1761.52 63.2184 Q1765.65 65.3654 1769.66 66.4591 Q1773.68 67.5124 1777.6 67.5124 Q1782.87 67.5124 1785.71 65.73 Q1788.54 63.9071 1788.54 60.6258 Q1788.54 57.5877 1786.48 55.9673 Q1784.45 54.3469 1777.52 52.8481 L1774.93 52.2405 Q1768 50.7821 1764.93 47.7845 Q1761.85 44.7463 1761.85 39.4801 Q1761.85 33.0797 1766.38 29.5959 Q1770.92 26.1121 1779.27 26.1121 Q1783.4 26.1121 1787.04 26.7198 Q1790.69 27.3274 1793.77 28.5427 Z" fill="#000000" fill-rule="evenodd" fill-opacity="1"></path><polyline clip-path="url(#clip102)" style="stroke:#009af9; stroke-linecap:round; stroke-linejoin:round; stroke-width:4; stroke-opacity:1; fill:none" points="
  279.759,1386.4 286.108,1371.18 292.457,1367.06 298.806,1364.64 305.155,1363.43 311.503,1362.9 317.852,1361.95 324.201,1360.21 330.55,1359.72 336.899,1358.26 
  343.248,1357.92 349.597,1357.15 355.946,1356.19 362.295,1355.76 368.644,1355.4 374.993,1355.1 381.342,1354.74 387.691,1354.37 394.04,1354.36 400.389,1354.06 
  406.738,1351.8 413.087,1351.79 419.436,1351.73 425.785,1351.67 432.134,1351.28 438.483,1351.19 444.832,1350.85 451.18,1349.77 457.529,1349.66 463.878,1349.63 
  470.227,1349.43 476.576,1349.25 482.925,1348.84 489.274,1348.78 495.623,1348.77 501.972,1348.45 508.321,1348.44 514.67,1348.39 521.019,1348.36 527.368,1348.27 
  533.717,1348.22 540.066,1348.16 546.415,1348.05 552.764,1347.5 559.113,1347.44 565.462,1347.4 571.811,1347.38 578.16,1346.8 584.509,1346.22 590.857,1345.93 
  597.206,1345.92 603.555,1345.8 609.904,1345.74 616.253,1345.37 622.602,1345.32 628.951,1345.31 635.3,1344.99 641.649,1344.68 647.998,1344.52 654.347,1344.44 
  660.696,1344.09 667.045,1344.04 673.394,1343.66 679.743,1343.58 686.092,1343.38 692.441,1343.37 698.79,1343.25 705.139,1342.91 711.488,1342.9 717.837,1342.88 
  724.186,1342.85 730.534,1342.71 736.883,1342.69 743.232,1342.18 749.581,1341.85 755.93,1341.83 762.279,1341.77 768.628,1341.75 774.977,1341.7 781.326,1341.65 
  787.675,1341.51 794.024,1341.35 800.373,1341.27 806.722,1341.18 813.071,1341.04 819.42,1340.9 825.769,1340.77 832.118,1340.57 838.467,1340.07 844.816,1339.52 
  851.165,1339.28 857.514,1339.22 863.863,1339.14 870.212,1338.8 876.56,1338.53 882.909,1338.4 889.258,1337.87 895.607,1337.77 901.956,1337.72 908.305,1337.45 
  914.654,1337.2 921.003,1337.05 927.352,1336.46 933.701,1336.19 940.05,1336.03 946.399,1334.55 952.748,1334.02 959.097,1333.74 965.446,1332.86 971.795,1331.56 
  978.144,1330.33 984.493,1329.88 990.842,1329.19 997.191,1325 1003.54,1317.1 1009.89,1310.55 1016.24,1286.89 1022.59,1286.11 1028.94,1283.04 1035.28,1264.57 
  1041.63,1256.32 1047.98,1253.33 1054.33,1251.66 1060.68,1246.76 1067.03,1242.32 1073.38,1242.28 1079.73,1241.33 1086.08,1239.7 1092.42,1239.01 1098.77,1238.44 
  1105.12,1235.89 1111.47,1235.16 1117.82,1227.73 1124.17,1227.14 1130.52,1226.31 1136.87,1224.73 1143.22,1223.73 1149.57,1222.93 1155.91,1222.63 1162.26,1222.55 
  1168.61,1219.04 1174.96,1217.22 1181.31,1215.37 1187.66,1214.35 1194.01,1213.83 1200.36,1212.76 1206.71,1211.74 1213.06,1209.83 1219.4,1209.82 1225.75,1208.95 
  1232.1,1207.77 1238.45,1207.23 1244.8,1206.13 1251.15,1204.21 1257.5,1204.19 1263.85,1201.93 1270.2,1201.39 1276.54,1200.7 1282.89,1199.09 1289.24,1198.98 
  1295.59,1198.69 1301.94,1198.51 1308.29,1198.48 1314.64,1197.83 1320.99,1197.07 1327.34,1194.92 1333.69,1194.5 1340.03,1192.54 1346.38,1191.58 1352.73,1191.15 
  1359.08,1189.99 1365.43,1189.09 1371.78,1188.61 1378.13,1184.76 1384.48,1184.66 1390.83,1183.41 1397.17,1181.69 1403.52,1178.05 1409.87,1176.62 1416.22,1175.78 
  1422.57,1174.38 1428.92,1171.15 1435.27,1171.02 1441.62,1168.08 1447.97,1167.56 1454.32,1167.49 1460.66,1166.49 1467.01,1165.68 1473.36,1164.29 1479.71,1161.6 
  1486.06,1161.46 1492.41,1160.26 1498.76,1159.5 1505.11,1158.25 1511.46,1154.15 1517.8,1153.27 1524.15,1150.73 1530.5,1145.74 1536.85,1145.7 1543.2,1144.21 
  1549.55,1138.42 1555.9,1135.78 1562.25,1133.64 1568.6,1131.73 1574.95,1125.75 1581.29,1117.33 1587.64,1113.3 1593.99,1111.01 1600.34,1106.73 1606.69,1103.86 
  1613.04,1100.95 1619.39,1100.9 1625.74,1097.55 1632.09,1094.09 1638.44,1090.85 1644.78,1090.75 1651.13,1088.52 1657.48,1078.28 1663.83,1062.6 1670.18,1062.53 
  1676.53,1055.68 1682.88,1054.65 1689.23,1053.22 1695.58,1048.62 1701.92,1047.97 1708.27,1047.83 1714.62,1047.65 1720.97,1044.62 1727.32,1042.97 1733.67,1042.92 
  1740.02,1038.28 1746.37,1037.33 1752.72,1036.44 1759.07,1035.3 1765.41,1034.87 1771.76,1031.49 1778.11,1030.04 1784.46,1029.89 1790.81,1029.88 1797.16,1028.83 
  1803.51,1027.32 1809.86,1022.78 1816.21,1022.39 1822.55,1021.5 1828.9,1021.2 1835.25,1020.1 1841.6,1014.69 1847.95,1012.53 1854.3,1008.03 1860.65,1006.49 
  1867,1001.83 1873.35,1001.56 1879.7,1001.29 1886.04,1000.18 1892.39,994.921 1898.74,991.129 1905.09,983.023 1911.44,982.64 1917.79,977.372 1924.14,971.014 
  1930.49,968.852 1936.84,968.751 1943.18,967.72 1949.53,967.515 1955.88,956.966 1962.23,954.461 1968.58,951.572 1974.93,948.735 1981.28,941.893 1987.63,911.196 
  1993.98,910.627 2000.33,904.911 2006.67,901.232 2013.02,886.783 2019.37,882.538 2025.72,836.934 2032.07,823.875 2038.42,822.569 2044.77,815.565 2051.12,813.079 
  2057.47,809.234 2063.81,796.987 2070.16,793.625 2076.51,755.693 2082.86,752.838 2089.21,742.26 2095.56,739.567 2101.91,731.491 2108.26,703.072 2114.61,700.103 
  2120.96,698.171 2127.3,691.95 2133.65,678.842 2140,671.719 2146.35,664.176 2152.7,657.134 2159.05,654.784 2165.4,632.487 2171.75,601.194 2178.1,586.526 
  2184.45,582.154 2190.79,579.675 2197.14,574.263 2203.49,562.189 2209.84,560.316 2216.19,551.436 2222.54,549.624 2228.89,525.752 2235.24,495.177 2241.59,485.512 
  2247.93,483.562 2254.28,454.816 2260.63,447.507 2266.98,407.872 2273.33,401.708 2279.68,362.766 2286.03,362.053 2292.38,160.256 
  "></polyline>
</svg>