<svg xmlns="http://www.w3.org/2000/svg" xmlns:xlink="http://www.w3.org/1999/xlink" width="600" height="400" viewBox="0 0 2400 1600">
<defs>
  <clipPath id="clip720">
    <rect x="0" y="0" width="2400" height="1600"></rect>
  </clipPath>
</defs>
<path clip-path="url(#clip720)" d="
M0 1600 L2400 1600 L2400 0 L0 0  Z
  " fill="#ffffff" fill-rule="evenodd" fill-opacity="1"></path>
<defs>
  <clipPath id="clip721">
    <rect x="480" y="0" width="1681" height="1600"></rect>
  </clipPath>
</defs>
<path clip-path="url(#clip720)" d="
M250.028 1423.18 L2352.76 1423.18 L2352.76 123.472 L250.028 123.472  Z
  " fill="#ffffff" fill-rule="evenodd" fill-opacity="1"></path>
<defs>
  <clipPath id="clip722">
    <rect x="250" y="123" width="2104" height="1301"></rect>
  </clipPath>
</defs>
<polyline clip-path="url(#clip722)" style="stroke:#000000; stroke-linecap:round; stroke-linejoin:round; stroke-width:2; stroke-opacity:0.1; fill:none" points="
  383.01,1423.18 383.01,123.472 
  "></polyline>
<polyline clip-path="url(#clip722)" style="stroke:#000000; stroke-linecap:round; stroke-linejoin:round; stroke-width:2; stroke-opacity:0.1; fill:none" points="
  676.892,1423.18 676.892,123.472 
  "></polyline>
<polyline clip-path="url(#clip722)" style="stroke:#000000; stroke-linecap:round; stroke-linejoin:round; stroke-width:2; stroke-opacity:0.1; fill:none" points="
  970.774,1423.18 970.774,123.472 
  "></polyline>
<polyline clip-path="url(#clip722)" style="stroke:#000000; stroke-linecap:round; stroke-linejoin:round; stroke-width:2; stroke-opacity:0.1; fill:none" points="
  1264.66,1423.18 1264.66,123.472 
  "></polyline>
<polyline clip-path="url(#clip722)" style="stroke:#000000; stroke-linecap:round; stroke-linejoin:round; stroke-width:2; stroke-opacity:0.1; fill:none" points="
  1558.54,1423.18 1558.54,123.472 
  "></polyline>
<polyline clip-path="url(#clip722)" style="stroke:#000000; stroke-linecap:round; stroke-linejoin:round; stroke-width:2; stroke-opacity:0.1; fill:none" points="
  1852.42,1423.18 1852.42,123.472 
  "></polyline>
<polyline clip-path="url(#clip722)" style="stroke:#000000; stroke-linecap:round; stroke-linejoin:round; stroke-width:2; stroke-opacity:0.1; fill:none" points="
  2146.3,1423.18 2146.3,123.472 
  "></polyline>
<polyline clip-path="url(#clip720)" style="stroke:#000000; stroke-linecap:round; stroke-linejoin:round; stroke-width:4; stroke-opacity:1; fill:none" points="
  250.028,1423.18 2352.76,1423.18 
  "></polyline>
<polyline clip-path="url(#clip720)" style="stroke:#000000; stroke-linecap:round; stroke-linejoin:round; stroke-width:4; stroke-opacity:1; fill:none" points="
  383.01,1423.18 383.01,1404.28 
  "></polyline>
<polyline clip-path="url(#clip720)" style="stroke:#000000; stroke-linecap:round; stroke-linejoin:round; stroke-width:4; stroke-opacity:1; fill:none" points="
  676.892,1423.18 676.892,1404.28 
  "></polyline>
<polyline clip-path="url(#clip720)" style="stroke:#000000; stroke-linecap:round; stroke-linejoin:round; stroke-width:4; stroke-opacity:1; fill:none" points="
  970.774,1423.18 970.774,1404.28 
  "></polyline>
<polyline clip-path="url(#clip720)" style="stroke:#000000; stroke-linecap:round; stroke-linejoin:round; stroke-width:4; stroke-opacity:1; fill:none" points="
  1264.66,1423.18 1264.66,1404.28 
  "></polyline>
<polyline clip-path="url(#clip720)" style="stroke:#000000; stroke-linecap:round; stroke-linejoin:round; stroke-width:4; stroke-opacity:1; fill:none" points="
  1558.54,1423.18 1558.54,1404.28 
  "></polyline>
<polyline clip-path="url(#clip720)" style="stroke:#000000; stroke-linecap:round; stroke-linejoin:round; stroke-width:4; stroke-opacity:1; fill:none" points="
  1852.42,1423.18 1852.42,1404.28 
  "></polyline>
<polyline clip-path="url(#clip720)" style="stroke:#000000; stroke-linecap:round; stroke-linejoin:round; stroke-width:4; stroke-opacity:1; fill:none" points="
  2146.3,1423.18 2146.3,1404.28 
  "></polyline>
<path clip-path="url(#clip720)" d="M346.112 1454.1 Q342.501 1454.1 340.672 1457.66 Q338.867 1461.2 338.867 1468.33 Q338.867 1475.44 340.672 1479.01 Q342.501 1482.55 346.112 1482.55 Q349.746 1482.55 351.552 1479.01 Q353.38 1475.44 353.38 1468.33 Q353.38 1461.2 351.552 1457.66 Q349.746 1454.1 346.112 1454.1 M346.112 1450.39 Q351.922 1450.39 354.978 1455 Q358.056 1459.58 358.056 1468.33 Q358.056 1477.06 354.978 1481.67 Q351.922 1486.25 346.112 1486.25 Q340.302 1486.25 337.223 1481.67 Q334.168 1477.06 334.168 1468.33 Q334.168 1459.58 337.223 1455 Q340.302 1450.39 346.112 1450.39 Z" fill="#000000" fill-rule="evenodd" fill-opacity="1"></path><path clip-path="url(#clip720)" d="M366.274 1479.7 L371.158 1479.7 L371.158 1485.58 L366.274 1485.58 L366.274 1479.7 Z" fill="#000000" fill-rule="evenodd" fill-opacity="1"></path><path clip-path="url(#clip720)" d="M391.343 1454.1 Q387.732 1454.1 385.903 1457.66 Q384.098 1461.2 384.098 1468.33 Q384.098 1475.44 385.903 1479.01 Q387.732 1482.55 391.343 1482.55 Q394.977 1482.55 396.783 1479.01 Q398.612 1475.44 398.612 1468.33 Q398.612 1461.2 396.783 1457.66 Q394.977 1454.1 391.343 1454.1 M391.343 1450.39 Q397.153 1450.39 400.209 1455 Q403.288 1459.58 403.288 1468.33 Q403.288 1477.06 400.209 1481.67 Q397.153 1486.25 391.343 1486.25 Q385.533 1486.25 382.454 1481.67 Q379.399 1477.06 379.399 1468.33 Q379.399 1459.58 382.454 1455 Q385.533 1450.39 391.343 1450.39 Z" fill="#000000" fill-rule="evenodd" fill-opacity="1"></path><path clip-path="url(#clip720)" d="M415.533 1481.64 L431.852 1481.64 L431.852 1485.58 L409.908 1485.58 L409.908 1481.64 Q412.57 1478.89 417.153 1474.26 Q421.76 1469.61 422.94 1468.27 Q425.186 1465.74 426.065 1464.01 Q426.968 1462.25 426.968 1460.56 Q426.968 1457.8 425.024 1456.07 Q423.102 1454.33 420 1454.33 Q417.801 1454.33 415.348 1455.09 Q412.917 1455.86 410.139 1457.41 L410.139 1452.69 Q412.963 1451.55 415.417 1450.97 Q417.871 1450.39 419.908 1450.39 Q425.278 1450.39 428.473 1453.08 Q431.667 1455.77 431.667 1460.26 Q431.667 1462.39 430.857 1464.31 Q430.07 1466.2 427.963 1468.8 Q427.385 1469.47 424.283 1472.69 Q421.181 1475.88 415.533 1481.64 Z" fill="#000000" fill-rule="evenodd" fill-opacity="1"></path><path clip-path="url(#clip720)" d="M638.953 1454.1 Q635.341 1454.1 633.513 1457.66 Q631.707 1461.2 631.707 1468.33 Q631.707 1475.44 633.513 1479.01 Q635.341 1482.55 638.953 1482.55 Q642.587 1482.55 644.392 1479.01 Q646.221 1475.44 646.221 1468.33 Q646.221 1461.2 644.392 1457.66 Q642.587 1454.1 638.953 1454.1 M638.953 1450.39 Q644.763 1450.39 647.818 1455 Q650.897 1459.58 650.897 1468.33 Q650.897 1477.06 647.818 1481.67 Q644.763 1486.25 638.953 1486.25 Q633.142 1486.25 630.064 1481.67 Q627.008 1477.06 627.008 1468.33 Q627.008 1459.58 630.064 1455 Q633.142 1450.39 638.953 1450.39 Z" fill="#000000" fill-rule="evenodd" fill-opacity="1"></path><path clip-path="url(#clip720)" d="M659.114 1479.7 L663.999 1479.7 L663.999 1485.58 L659.114 1485.58 L659.114 1479.7 Z" fill="#000000" fill-rule="evenodd" fill-opacity="1"></path><path clip-path="url(#clip720)" d="M684.184 1454.1 Q680.573 1454.1 678.744 1457.66 Q676.938 1461.2 676.938 1468.33 Q676.938 1475.44 678.744 1479.01 Q680.573 1482.55 684.184 1482.55 Q687.818 1482.55 689.624 1479.01 Q691.452 1475.44 691.452 1468.33 Q691.452 1461.2 689.624 1457.66 Q687.818 1454.1 684.184 1454.1 M684.184 1450.39 Q689.994 1450.39 693.049 1455 Q696.128 1459.58 696.128 1468.33 Q696.128 1477.06 693.049 1481.67 Q689.994 1486.25 684.184 1486.25 Q678.374 1486.25 675.295 1481.67 Q672.239 1477.06 672.239 1468.33 Q672.239 1459.58 675.295 1455 Q678.374 1450.39 684.184 1450.39 Z" fill="#000000" fill-rule="evenodd" fill-opacity="1"></path><path clip-path="url(#clip720)" d="M717.193 1455.09 L705.387 1473.54 L717.193 1473.54 L717.193 1455.09 M715.966 1451.02 L721.846 1451.02 L721.846 1473.54 L726.776 1473.54 L726.776 1477.43 L721.846 1477.43 L721.846 1485.58 L717.193 1485.58 L717.193 1477.43 L701.591 1477.43 L701.591 1472.92 L715.966 1451.02 Z" fill="#000000" fill-rule="evenodd" fill-opacity="1"></path><path clip-path="url(#clip720)" d="M932.997 1454.1 Q929.386 1454.1 927.557 1457.66 Q925.752 1461.2 925.752 1468.33 Q925.752 1475.44 927.557 1479.01 Q929.386 1482.55 932.997 1482.55 Q936.631 1482.55 938.437 1479.01 Q940.265 1475.44 940.265 1468.33 Q940.265 1461.2 938.437 1457.66 Q936.631 1454.1 932.997 1454.1 M932.997 1450.39 Q938.807 1450.39 941.863 1455 Q944.941 1459.58 944.941 1468.33 Q944.941 1477.06 941.863 1481.67 Q938.807 1486.25 932.997 1486.25 Q927.187 1486.25 924.108 1481.67 Q921.052 1477.06 921.052 1468.33 Q921.052 1459.58 924.108 1455 Q927.187 1450.39 932.997 1450.39 Z" fill="#000000" fill-rule="evenodd" fill-opacity="1"></path><path clip-path="url(#clip720)" d="M953.159 1479.7 L958.043 1479.7 L958.043 1485.58 L953.159 1485.58 L953.159 1479.7 Z" fill="#000000" fill-rule="evenodd" fill-opacity="1"></path><path clip-path="url(#clip720)" d="M978.228 1454.1 Q974.617 1454.1 972.788 1457.66 Q970.983 1461.2 970.983 1468.33 Q970.983 1475.44 972.788 1479.01 Q974.617 1482.55 978.228 1482.55 Q981.862 1482.55 983.668 1479.01 Q985.497 1475.44 985.497 1468.33 Q985.497 1461.2 983.668 1457.66 Q981.862 1454.1 978.228 1454.1 M978.228 1450.39 Q984.038 1450.39 987.094 1455 Q990.172 1459.58 990.172 1468.33 Q990.172 1477.06 987.094 1481.67 Q984.038 1486.25 978.228 1486.25 Q972.418 1486.25 969.339 1481.67 Q966.284 1477.06 966.284 1468.33 Q966.284 1459.58 969.339 1455 Q972.418 1450.39 978.228 1450.39 Z" fill="#000000" fill-rule="evenodd" fill-opacity="1"></path><path clip-path="url(#clip720)" d="M1008.97 1466.44 Q1005.82 1466.44 1003.97 1468.59 Q1002.14 1470.74 1002.14 1474.49 Q1002.14 1478.22 1003.97 1480.39 Q1005.82 1482.55 1008.97 1482.55 Q1012.12 1482.55 1013.95 1480.39 Q1015.8 1478.22 1015.8 1474.49 Q1015.8 1470.74 1013.95 1468.59 Q1012.12 1466.44 1008.97 1466.44 M1018.25 1451.78 L1018.25 1456.04 Q1016.49 1455.21 1014.69 1454.77 Q1012.9 1454.33 1011.14 1454.33 Q1006.51 1454.33 1004.06 1457.45 Q1001.63 1460.58 1001.28 1466.9 Q1002.65 1464.89 1004.71 1463.82 Q1006.77 1462.73 1009.25 1462.73 Q1014.45 1462.73 1017.46 1465.9 Q1020.5 1469.05 1020.5 1474.49 Q1020.5 1479.82 1017.35 1483.03 Q1014.2 1486.25 1008.97 1486.25 Q1002.97 1486.25 999.802 1481.67 Q996.631 1477.06 996.631 1468.33 Q996.631 1460.14 1000.52 1455.28 Q1004.41 1450.39 1010.96 1450.39 Q1012.72 1450.39 1014.5 1450.74 Q1016.31 1451.09 1018.25 1451.78 Z" fill="#000000" fill-rule="evenodd" fill-opacity="1"></path><path clip-path="url(#clip720)" d="M1227.01 1454.1 Q1223.4 1454.1 1221.57 1457.66 Q1219.76 1461.2 1219.76 1468.33 Q1219.76 1475.44 1221.57 1479.01 Q1223.4 1482.55 1227.01 1482.55 Q1230.64 1482.55 1232.45 1479.01 Q1234.27 1475.44 1234.27 1468.33 Q1234.27 1461.2 1232.45 1457.66 Q1230.64 1454.1 1227.01 1454.1 M1227.01 1450.39 Q1232.82 1450.39 1235.87 1455 Q1238.95 1459.58 1238.95 1468.33 Q1238.95 1477.06 1235.87 1481.67 Q1232.82 1486.25 1227.01 1486.25 Q1221.2 1486.25 1218.12 1481.67 Q1215.06 1477.06 1215.06 1468.33 Q1215.06 1459.58 1218.12 1455 Q1221.2 1450.39 1227.01 1450.39 Z" fill="#000000" fill-rule="evenodd" fill-opacity="1"></path><path clip-path="url(#clip720)" d="M1247.17 1479.7 L1252.05 1479.7 L1252.05 1485.58 L1247.17 1485.58 L1247.17 1479.7 Z" fill="#000000" fill-rule="evenodd" fill-opacity="1"></path><path clip-path="url(#clip720)" d="M1272.24 1454.1 Q1268.63 1454.1 1266.8 1457.66 Q1264.99 1461.2 1264.99 1468.33 Q1264.99 1475.44 1266.8 1479.01 Q1268.63 1482.55 1272.24 1482.55 Q1275.87 1482.55 1277.68 1479.01 Q1279.51 1475.44 1279.51 1468.33 Q1279.51 1461.2 1277.68 1457.66 Q1275.87 1454.1 1272.24 1454.1 M1272.24 1450.39 Q1278.05 1450.39 1281.1 1455 Q1284.18 1459.58 1284.18 1468.33 Q1284.18 1477.06 1281.1 1481.67 Q1278.05 1486.25 1272.24 1486.25 Q1266.43 1486.25 1263.35 1481.67 Q1260.29 1477.06 1260.29 1468.33 Q1260.29 1459.58 1263.35 1455 Q1266.43 1450.39 1272.24 1450.39 Z" fill="#000000" fill-rule="evenodd" fill-opacity="1"></path><path clip-path="url(#clip720)" d="M1302.4 1469.17 Q1299.07 1469.17 1297.14 1470.95 Q1295.25 1472.73 1295.25 1475.86 Q1295.25 1478.98 1297.14 1480.77 Q1299.07 1482.55 1302.4 1482.55 Q1305.73 1482.55 1307.65 1480.77 Q1309.58 1478.96 1309.58 1475.86 Q1309.58 1472.73 1307.65 1470.95 Q1305.76 1469.17 1302.4 1469.17 M1297.72 1467.18 Q1294.71 1466.44 1293.02 1464.38 Q1291.36 1462.32 1291.36 1459.35 Q1291.36 1455.21 1294.3 1452.8 Q1297.26 1450.39 1302.4 1450.39 Q1307.56 1450.39 1310.5 1452.8 Q1313.44 1455.21 1313.44 1459.35 Q1313.44 1462.32 1311.75 1464.38 Q1310.08 1466.44 1307.1 1467.18 Q1310.48 1467.96 1312.35 1470.26 Q1314.25 1472.55 1314.25 1475.86 Q1314.25 1480.88 1311.17 1483.57 Q1308.12 1486.25 1302.4 1486.25 Q1296.68 1486.25 1293.6 1483.57 Q1290.55 1480.88 1290.55 1475.86 Q1290.55 1472.55 1292.45 1470.26 Q1294.34 1467.96 1297.72 1467.18 M1296.01 1459.79 Q1296.01 1462.48 1297.68 1463.98 Q1299.37 1465.49 1302.4 1465.49 Q1305.41 1465.49 1307.1 1463.98 Q1308.81 1462.48 1308.81 1459.79 Q1308.81 1457.11 1307.1 1455.6 Q1305.41 1454.1 1302.4 1454.1 Q1299.37 1454.1 1297.68 1455.6 Q1296.01 1457.11 1296.01 1459.79 Z" fill="#000000" fill-rule="evenodd" fill-opacity="1"></path><path clip-path="url(#clip720)" d="M1520.84 1454.1 Q1517.23 1454.1 1515.4 1457.66 Q1513.6 1461.2 1513.6 1468.33 Q1513.6 1475.44 1515.4 1479.01 Q1517.23 1482.55 1520.84 1482.55 Q1524.48 1482.55 1526.28 1479.01 Q1528.11 1475.44 1528.11 1468.33 Q1528.11 1461.2 1526.28 1457.66 Q1524.48 1454.1 1520.84 1454.1 M1520.84 1450.39 Q1526.65 1450.39 1529.71 1455 Q1532.79 1459.58 1532.79 1468.33 Q1532.79 1477.06 1529.71 1481.67 Q1526.65 1486.25 1520.84 1486.25 Q1515.03 1486.25 1511.95 1481.67 Q1508.9 1477.06 1508.9 1468.33 Q1508.9 1459.58 1511.95 1455 Q1515.03 1450.39 1520.84 1450.39 Z" fill="#000000" fill-rule="evenodd" fill-opacity="1"></path><path clip-path="url(#clip720)" d="M1541 1479.7 L1545.89 1479.7 L1545.89 1485.58 L1541 1485.58 L1541 1479.7 Z" fill="#000000" fill-rule="evenodd" fill-opacity="1"></path><path clip-path="url(#clip720)" d="M1556.88 1481.64 L1564.52 1481.64 L1564.52 1455.28 L1556.21 1456.95 L1556.21 1452.69 L1564.48 1451.02 L1569.15 1451.02 L1569.15 1481.64 L1576.79 1481.64 L1576.79 1485.58 L1556.88 1485.58 L1556.88 1481.64 Z" fill="#000000" fill-rule="evenodd" fill-opacity="1"></path><path clip-path="url(#clip720)" d="M1596.24 1454.1 Q1592.62 1454.1 1590.8 1457.66 Q1588.99 1461.2 1588.99 1468.33 Q1588.99 1475.44 1590.8 1479.01 Q1592.62 1482.55 1596.24 1482.55 Q1599.87 1482.55 1601.68 1479.01 Q1603.5 1475.44 1603.5 1468.33 Q1603.5 1461.2 1601.68 1457.66 Q1599.87 1454.1 1596.24 1454.1 M1596.24 1450.39 Q1602.05 1450.39 1605.1 1455 Q1608.18 1459.58 1608.18 1468.33 Q1608.18 1477.06 1605.1 1481.67 Q1602.05 1486.25 1596.24 1486.25 Q1590.43 1486.25 1587.35 1481.67 Q1584.29 1477.06 1584.29 1468.33 Q1584.29 1459.58 1587.35 1455 Q1590.43 1450.39 1596.24 1450.39 Z" fill="#000000" fill-rule="evenodd" fill-opacity="1"></path><path clip-path="url(#clip720)" d="M1815.52 1454.1 Q1811.91 1454.1 1810.08 1457.66 Q1808.28 1461.2 1808.28 1468.33 Q1808.28 1475.44 1810.08 1479.01 Q1811.91 1482.55 1815.52 1482.55 Q1819.16 1482.55 1820.96 1479.01 Q1822.79 1475.44 1822.79 1468.33 Q1822.79 1461.2 1820.96 1457.66 Q1819.16 1454.1 1815.52 1454.1 M1815.52 1450.39 Q1821.33 1450.39 1824.39 1455 Q1827.47 1459.58 1827.47 1468.33 Q1827.47 1477.06 1824.39 1481.67 Q1821.33 1486.25 1815.52 1486.25 Q1809.71 1486.25 1806.63 1481.67 Q1803.58 1477.06 1803.58 1468.33 Q1803.58 1459.58 1806.63 1455 Q1809.71 1450.39 1815.52 1450.39 Z" fill="#000000" fill-rule="evenodd" fill-opacity="1"></path><path clip-path="url(#clip720)" d="M1835.69 1479.7 L1840.57 1479.7 L1840.57 1485.58 L1835.69 1485.58 L1835.69 1479.7 Z" fill="#000000" fill-rule="evenodd" fill-opacity="1"></path><path clip-path="url(#clip720)" d="M1851.56 1481.64 L1859.2 1481.64 L1859.2 1455.28 L1850.89 1456.95 L1850.89 1452.69 L1859.16 1451.02 L1863.83 1451.02 L1863.83 1481.64 L1871.47 1481.64 L1871.47 1485.58 L1851.56 1485.58 L1851.56 1481.64 Z" fill="#000000" fill-rule="evenodd" fill-opacity="1"></path><path clip-path="url(#clip720)" d="M1884.94 1481.64 L1901.26 1481.64 L1901.26 1485.58 L1879.32 1485.58 L1879.32 1481.64 Q1881.98 1478.89 1886.56 1474.26 Q1891.17 1469.61 1892.35 1468.27 Q1894.6 1465.74 1895.48 1464.01 Q1896.38 1462.25 1896.38 1460.56 Q1896.38 1457.8 1894.43 1456.07 Q1892.51 1454.33 1889.41 1454.33 Q1887.21 1454.33 1884.76 1455.09 Q1882.33 1455.86 1879.55 1457.41 L1879.55 1452.69 Q1882.37 1451.55 1884.83 1450.97 Q1887.28 1450.39 1889.32 1450.39 Q1894.69 1450.39 1897.88 1453.08 Q1901.08 1455.77 1901.08 1460.26 Q1901.08 1462.39 1900.27 1464.31 Q1899.48 1466.2 1897.37 1468.8 Q1896.8 1469.47 1893.69 1472.69 Q1890.59 1475.88 1884.94 1481.64 Z" fill="#000000" fill-rule="evenodd" fill-opacity="1"></path><path clip-path="url(#clip720)" d="M2108.36 1454.1 Q2104.75 1454.1 2102.92 1457.66 Q2101.12 1461.2 2101.12 1468.33 Q2101.12 1475.44 2102.92 1479.01 Q2104.75 1482.55 2108.36 1482.55 Q2112 1482.55 2113.8 1479.01 Q2115.63 1475.44 2115.63 1468.33 Q2115.63 1461.2 2113.8 1457.66 Q2112 1454.1 2108.36 1454.1 M2108.36 1450.39 Q2114.17 1450.39 2117.23 1455 Q2120.31 1459.58 2120.31 1468.33 Q2120.31 1477.06 2117.23 1481.67 Q2114.17 1486.25 2108.36 1486.25 Q2102.55 1486.25 2099.48 1481.67 Q2096.42 1477.06 2096.42 1468.33 Q2096.42 1459.58 2099.48 1455 Q2102.55 1450.39 2108.36 1450.39 Z" fill="#000000" fill-rule="evenodd" fill-opacity="1"></path><path clip-path="url(#clip720)" d="M2128.53 1479.7 L2133.41 1479.7 L2133.41 1485.58 L2128.53 1485.58 L2128.53 1479.7 Z" fill="#000000" fill-rule="evenodd" fill-opacity="1"></path><path clip-path="url(#clip720)" d="M2144.41 1481.64 L2152.04 1481.64 L2152.04 1455.28 L2143.73 1456.95 L2143.73 1452.69 L2152 1451.02 L2156.67 1451.02 L2156.67 1481.64 L2164.31 1481.64 L2164.31 1485.58 L2144.41 1485.58 L2144.41 1481.64 Z" fill="#000000" fill-rule="evenodd" fill-opacity="1"></path><path clip-path="url(#clip720)" d="M2186.6 1455.09 L2174.8 1473.54 L2186.6 1473.54 L2186.6 1455.09 M2185.38 1451.02 L2191.26 1451.02 L2191.26 1473.54 L2196.19 1473.54 L2196.19 1477.43 L2191.26 1477.43 L2191.26 1485.58 L2186.6 1485.58 L2186.6 1477.43 L2171 1477.43 L2171 1472.92 L2185.38 1451.02 Z" fill="#000000" fill-rule="evenodd" fill-opacity="1"></path><path clip-path="url(#clip720)" d="M993.562 1525.81 L993.562 1562.76 L1001.33 1562.76 Q1011.16 1562.76 1015.72 1558.3 Q1020.3 1553.85 1020.3 1544.24 Q1020.3 1534.69 1015.72 1530.26 Q1011.16 1525.81 1001.33 1525.81 L993.562 1525.81 M987.133 1520.52 L1000.34 1520.52 Q1014.16 1520.52 1020.62 1526.28 Q1027.08 1532.01 1027.08 1544.24 Q1027.08 1556.52 1020.58 1562.28 Q1014.09 1568.04 1000.34 1568.04 L987.133 1568.04 L987.133 1520.52 Z" fill="#000000" fill-rule="evenodd" fill-opacity="1"></path><path clip-path="url(#clip720)" d="M1053.27 1550.12 Q1046.17 1550.12 1043.44 1551.75 Q1040.7 1553.37 1040.7 1557.29 Q1040.7 1560.4 1042.74 1562.25 Q1044.81 1564.07 1048.34 1564.07 Q1053.21 1564.07 1056.14 1560.63 Q1059.1 1557.16 1059.1 1551.43 L1059.1 1550.12 L1053.27 1550.12 M1064.95 1547.71 L1064.95 1568.04 L1059.1 1568.04 L1059.1 1562.63 Q1057.09 1565.88 1054.1 1567.44 Q1051.11 1568.97 1046.78 1568.97 Q1041.31 1568.97 1038.06 1565.91 Q1034.84 1562.82 1034.84 1557.67 Q1034.84 1551.65 1038.85 1548.6 Q1042.9 1545.54 1050.89 1545.54 L1059.1 1545.54 L1059.1 1544.97 Q1059.1 1540.93 1056.42 1538.73 Q1053.78 1536.5 1048.98 1536.5 Q1045.92 1536.5 1043.02 1537.23 Q1040.13 1537.97 1037.45 1539.43 L1037.45 1534.02 Q1040.67 1532.78 1043.69 1532.17 Q1046.72 1531.54 1049.58 1531.54 Q1057.31 1531.54 1061.13 1535.55 Q1064.95 1539.56 1064.95 1547.71 Z" fill="#000000" fill-rule="evenodd" fill-opacity="1"></path><path clip-path="url(#clip720)" d="M1082.81 1522.27 L1082.81 1532.4 L1094.87 1532.4 L1094.87 1536.95 L1082.81 1536.95 L1082.81 1556.3 Q1082.81 1560.66 1083.99 1561.9 Q1085.2 1563.14 1088.86 1563.14 L1094.87 1563.14 L1094.87 1568.04 L1088.86 1568.04 Q1082.08 1568.04 1079.5 1565.53 Q1076.92 1562.98 1076.92 1556.3 L1076.92 1536.95 L1072.62 1536.95 L1072.62 1532.4 L1076.92 1532.4 L1076.92 1522.27 L1082.81 1522.27 Z" fill="#000000" fill-rule="evenodd" fill-opacity="1"></path><path clip-path="url(#clip720)" d="M1118.78 1550.12 Q1111.68 1550.12 1108.94 1551.75 Q1106.2 1553.37 1106.2 1557.29 Q1106.2 1560.4 1108.24 1562.25 Q1110.31 1564.07 1113.84 1564.07 Q1118.71 1564.07 1121.64 1560.63 Q1124.6 1557.16 1124.6 1551.43 L1124.6 1550.12 L1118.78 1550.12 M1130.46 1547.71 L1130.46 1568.04 L1124.6 1568.04 L1124.6 1562.63 Q1122.6 1565.88 1119.6 1567.44 Q1116.61 1568.97 1112.28 1568.97 Q1106.81 1568.97 1103.56 1565.91 Q1100.35 1562.82 1100.35 1557.67 Q1100.35 1551.65 1104.36 1548.6 Q1108.4 1545.54 1116.39 1545.54 L1124.6 1545.54 L1124.6 1544.97 Q1124.6 1540.93 1121.93 1538.73 Q1119.29 1536.5 1114.48 1536.5 Q1111.42 1536.5 1108.53 1537.23 Q1105.63 1537.97 1102.96 1539.43 L1102.96 1534.02 Q1106.17 1532.78 1109.2 1532.17 Q1112.22 1531.54 1115.08 1531.54 Q1122.82 1531.54 1126.64 1535.55 Q1130.46 1539.56 1130.46 1547.71 Z" fill="#000000" fill-rule="evenodd" fill-opacity="1"></path><path clip-path="url(#clip720)" d="M1191.98 1522.08 L1191.98 1528.35 Q1188.32 1526.6 1185.07 1525.74 Q1181.83 1524.88 1178.8 1524.88 Q1173.55 1524.88 1170.69 1526.92 Q1167.86 1528.96 1167.86 1532.71 Q1167.86 1535.87 1169.73 1537.49 Q1171.64 1539.08 1176.93 1540.07 L1180.81 1540.86 Q1188 1542.23 1191.41 1545.7 Q1194.85 1549.14 1194.85 1554.93 Q1194.85 1561.84 1190.2 1565.4 Q1185.58 1568.97 1176.64 1568.97 Q1173.27 1568.97 1169.45 1568.2 Q1165.66 1567.44 1161.59 1565.94 L1161.59 1559.32 Q1165.5 1561.52 1169.26 1562.63 Q1173.01 1563.75 1176.64 1563.75 Q1182.15 1563.75 1185.14 1561.58 Q1188.13 1559.42 1188.13 1555.41 Q1188.13 1551.91 1185.97 1549.93 Q1183.83 1547.96 1178.93 1546.97 L1175.02 1546.21 Q1167.82 1544.78 1164.61 1541.72 Q1161.39 1538.67 1161.39 1533.22 Q1161.39 1526.92 1165.82 1523.29 Q1170.27 1519.66 1178.07 1519.66 Q1181.41 1519.66 1184.88 1520.27 Q1188.35 1520.87 1191.98 1522.08 Z" fill="#000000" fill-rule="evenodd" fill-opacity="1"></path><path clip-path="url(#clip720)" d="M1235.11 1548.76 L1235.11 1551.62 L1208.18 1551.62 Q1208.56 1557.67 1211.81 1560.85 Q1215.09 1564 1220.91 1564 Q1224.29 1564 1227.44 1563.17 Q1230.62 1562.35 1233.74 1560.69 L1233.74 1566.23 Q1230.59 1567.57 1227.28 1568.27 Q1223.97 1568.97 1220.56 1568.97 Q1212.03 1568.97 1207.04 1564 Q1202.07 1559.04 1202.07 1550.57 Q1202.07 1541.82 1206.78 1536.69 Q1211.52 1531.54 1219.54 1531.54 Q1226.74 1531.54 1230.91 1536.18 Q1235.11 1540.8 1235.11 1548.76 M1229.25 1547.04 Q1229.19 1542.23 1226.55 1539.37 Q1223.94 1536.5 1219.61 1536.5 Q1214.71 1536.5 1211.75 1539.27 Q1208.82 1542.04 1208.37 1547.07 L1229.25 1547.04 Z" fill="#000000" fill-rule="evenodd" fill-opacity="1"></path><path clip-path="url(#clip720)" d="M1250.51 1522.27 L1250.51 1532.4 L1262.58 1532.4 L1262.58 1536.95 L1250.51 1536.95 L1250.51 1556.3 Q1250.51 1560.66 1251.69 1561.9 Q1252.9 1563.14 1256.56 1563.14 L1262.58 1563.14 L1262.58 1568.04 L1256.56 1568.04 Q1249.78 1568.04 1247.2 1565.53 Q1244.63 1562.98 1244.63 1556.3 L1244.63 1536.95 L1240.33 1536.95 L1240.33 1532.4 L1244.63 1532.4 L1244.63 1522.27 L1250.51 1522.27 Z" fill="#000000" fill-rule="evenodd" fill-opacity="1"></path><path clip-path="url(#clip720)" d="M1297.68 1525.81 L1297.68 1543.66 L1305.77 1543.66 Q1310.26 1543.66 1312.71 1541.34 Q1315.16 1539.02 1315.16 1534.72 Q1315.16 1530.45 1312.71 1528.13 Q1310.26 1525.81 1305.77 1525.81 L1297.68 1525.81 M1291.25 1520.52 L1305.77 1520.52 Q1313.76 1520.52 1317.83 1524.15 Q1321.94 1527.75 1321.94 1534.72 Q1321.94 1541.75 1317.83 1545.35 Q1313.76 1548.95 1305.77 1548.95 L1297.68 1548.95 L1297.68 1568.04 L1291.25 1568.04 L1291.25 1520.52 Z" fill="#000000" fill-rule="evenodd" fill-opacity="1"></path><path clip-path="url(#clip720)" d="M1349.82 1537.87 Q1348.83 1537.3 1347.65 1537.04 Q1346.51 1536.76 1345.11 1536.76 Q1340.14 1536.76 1337.47 1540 Q1334.83 1543.22 1334.83 1549.27 L1334.83 1568.04 L1328.94 1568.04 L1328.94 1532.4 L1334.83 1532.4 L1334.83 1537.93 Q1336.67 1534.69 1339.63 1533.13 Q1342.59 1531.54 1346.83 1531.54 Q1347.43 1531.54 1348.16 1531.63 Q1348.9 1531.7 1349.79 1531.85 L1349.82 1537.87 Z" fill="#000000" fill-rule="evenodd" fill-opacity="1"></path><path clip-path="url(#clip720)" d="M1368.34 1536.5 Q1363.63 1536.5 1360.9 1540.19 Q1358.16 1543.85 1358.16 1550.25 Q1358.16 1556.65 1360.86 1560.34 Q1363.6 1564 1368.34 1564 Q1373.02 1564 1375.76 1560.31 Q1378.5 1556.62 1378.5 1550.25 Q1378.5 1543.92 1375.76 1540.23 Q1373.02 1536.5 1368.34 1536.5 M1368.34 1531.54 Q1375.98 1531.54 1380.34 1536.5 Q1384.7 1541.47 1384.7 1550.25 Q1384.7 1559 1380.34 1564 Q1375.98 1568.97 1368.34 1568.97 Q1360.67 1568.97 1356.31 1564 Q1351.98 1559 1351.98 1550.25 Q1351.98 1541.47 1356.31 1536.5 Q1360.67 1531.54 1368.34 1531.54 Z" fill="#000000" fill-rule="evenodd" fill-opacity="1"></path><path clip-path="url(#clip720)" d="M1400.08 1562.7 L1400.08 1581.6 L1394.19 1581.6 L1394.19 1532.4 L1400.08 1532.4 L1400.08 1537.81 Q1401.92 1534.62 1404.72 1533.1 Q1407.56 1531.54 1411.47 1531.54 Q1417.96 1531.54 1422.01 1536.69 Q1426.08 1541.85 1426.08 1550.25 Q1426.08 1558.65 1422.01 1563.81 Q1417.96 1568.97 1411.47 1568.97 Q1407.56 1568.97 1404.72 1567.44 Q1401.92 1565.88 1400.08 1562.7 M1420 1550.25 Q1420 1543.79 1417.33 1540.13 Q1414.69 1536.44 1410.04 1536.44 Q1405.39 1536.44 1402.72 1540.13 Q1400.08 1543.79 1400.08 1550.25 Q1400.08 1556.71 1402.72 1560.4 Q1405.39 1564.07 1410.04 1564.07 Q1414.69 1564.07 1417.33 1560.4 Q1420 1556.71 1420 1550.25 Z" fill="#000000" fill-rule="evenodd" fill-opacity="1"></path><path clip-path="url(#clip720)" d="M1449.6 1536.5 Q1444.89 1536.5 1442.15 1540.19 Q1439.42 1543.85 1439.42 1550.25 Q1439.42 1556.65 1442.12 1560.34 Q1444.86 1564 1449.6 1564 Q1454.28 1564 1457.02 1560.31 Q1459.75 1556.62 1459.75 1550.25 Q1459.75 1543.92 1457.02 1540.23 Q1454.28 1536.5 1449.6 1536.5 M1449.6 1531.54 Q1457.24 1531.54 1461.6 1536.5 Q1465.96 1541.47 1465.96 1550.25 Q1465.96 1559 1461.6 1564 Q1457.24 1568.97 1449.6 1568.97 Q1441.93 1568.97 1437.57 1564 Q1433.24 1559 1433.24 1550.25 Q1433.24 1541.47 1437.57 1536.5 Q1441.93 1531.54 1449.6 1531.54 Z" fill="#000000" fill-rule="evenodd" fill-opacity="1"></path><path clip-path="url(#clip720)" d="M1496.33 1537.87 Q1495.34 1537.3 1494.16 1537.04 Q1493.02 1536.76 1491.62 1536.76 Q1486.65 1536.76 1483.98 1540 Q1481.33 1543.22 1481.33 1549.27 L1481.33 1568.04 L1475.45 1568.04 L1475.45 1532.4 L1481.33 1532.4 L1481.33 1537.93 Q1483.18 1534.69 1486.14 1533.13 Q1489.1 1531.54 1493.33 1531.54 Q1493.94 1531.54 1494.67 1531.63 Q1495.4 1531.7 1496.29 1531.85 L1496.33 1537.87 Z" fill="#000000" fill-rule="evenodd" fill-opacity="1"></path><path clip-path="url(#clip720)" d="M1508.26 1522.27 L1508.26 1532.4 L1520.32 1532.4 L1520.32 1536.95 L1508.26 1536.95 L1508.26 1556.3 Q1508.26 1560.66 1509.44 1561.9 Q1510.65 1563.14 1514.31 1563.14 L1520.32 1563.14 L1520.32 1568.04 L1514.31 1568.04 Q1507.53 1568.04 1504.95 1565.53 Q1502.37 1562.98 1502.37 1556.3 L1502.37 1536.95 L1498.08 1536.95 L1498.08 1532.4 L1502.37 1532.4 L1502.37 1522.27 L1508.26 1522.27 Z" fill="#000000" fill-rule="evenodd" fill-opacity="1"></path><path clip-path="url(#clip720)" d="M1528.03 1532.4 L1533.88 1532.4 L1533.88 1568.04 L1528.03 1568.04 L1528.03 1532.4 M1528.03 1518.52 L1533.88 1518.52 L1533.88 1525.93 L1528.03 1525.93 L1528.03 1518.52 Z" fill="#000000" fill-rule="evenodd" fill-opacity="1"></path><path clip-path="url(#clip720)" d="M1559.95 1536.5 Q1555.24 1536.5 1552.5 1540.19 Q1549.77 1543.85 1549.77 1550.25 Q1549.77 1556.65 1552.47 1560.34 Q1555.21 1564 1559.95 1564 Q1564.63 1564 1567.37 1560.31 Q1570.1 1556.62 1570.1 1550.25 Q1570.1 1543.92 1567.37 1540.23 Q1564.63 1536.5 1559.95 1536.5 M1559.95 1531.54 Q1567.59 1531.54 1571.95 1536.5 Q1576.31 1541.47 1576.31 1550.25 Q1576.31 1559 1571.95 1564 Q1567.59 1568.97 1559.95 1568.97 Q1552.28 1568.97 1547.92 1564 Q1543.59 1559 1543.59 1550.25 Q1543.59 1541.47 1547.92 1536.5 Q1552.28 1531.54 1559.95 1531.54 Z" fill="#000000" fill-rule="evenodd" fill-opacity="1"></path><path clip-path="url(#clip720)" d="M1615.65 1546.53 L1615.65 1568.04 L1609.79 1568.04 L1609.79 1546.72 Q1609.79 1541.66 1607.82 1539.14 Q1605.85 1536.63 1601.9 1536.63 Q1597.16 1536.63 1594.42 1539.65 Q1591.68 1542.68 1591.68 1547.9 L1591.68 1568.04 L1585.8 1568.04 L1585.8 1532.4 L1591.68 1532.4 L1591.68 1537.93 Q1593.78 1534.72 1596.62 1533.13 Q1599.48 1531.54 1603.21 1531.54 Q1609.35 1531.54 1612.5 1535.36 Q1615.65 1539.14 1615.65 1546.53 Z" fill="#000000" fill-rule="evenodd" fill-opacity="1"></path><polyline clip-path="url(#clip722)" style="stroke:#000000; stroke-linecap:round; stroke-linejoin:round; stroke-width:2; stroke-opacity:0.1; fill:none" points="
  250.028,1272.68 2352.76,1272.68 
  "></polyline>
<polyline clip-path="url(#clip722)" style="stroke:#000000; stroke-linecap:round; stroke-linejoin:round; stroke-width:2; stroke-opacity:0.1; fill:none" points="
  250.028,1029.88 2352.76,1029.88 
  "></polyline>
<polyline clip-path="url(#clip722)" style="stroke:#000000; stroke-linecap:round; stroke-linejoin:round; stroke-width:2; stroke-opacity:0.1; fill:none" points="
  250.028,787.085 2352.76,787.085 
  "></polyline>
<polyline clip-path="url(#clip722)" style="stroke:#000000; stroke-linecap:round; stroke-linejoin:round; stroke-width:2; stroke-opacity:0.1; fill:none" points="
  250.028,544.285 2352.76,544.285 
  "></polyline>
<polyline clip-path="url(#clip722)" style="stroke:#000000; stroke-linecap:round; stroke-linejoin:round; stroke-width:2; stroke-opacity:0.1; fill:none" points="
  250.028,301.485 2352.76,301.485 
  "></polyline>
<polyline clip-path="url(#clip720)" style="stroke:#000000; stroke-linecap:round; stroke-linejoin:round; stroke-width:4; stroke-opacity:1; fill:none" points="
  250.028,1423.18 250.028,123.472 
  "></polyline>
<polyline clip-path="url(#clip720)" style="stroke:#000000; stroke-linecap:round; stroke-linejoin:round; stroke-width:4; stroke-opacity:1; fill:none" points="
  250.028,1272.68 268.926,1272.68 
  "></polyline>
<polyline clip-path="url(#clip720)" style="stroke:#000000; stroke-linecap:round; stroke-linejoin:round; stroke-width:4; stroke-opacity:1; fill:none" points="
  250.028,1029.88 268.926,1029.88 
  "></polyline>
<polyline clip-path="url(#clip720)" style="stroke:#000000; stroke-linecap:round; stroke-linejoin:round; stroke-width:4; stroke-opacity:1; fill:none" points="
  250.028,787.085 268.926,787.085 
  "></polyline>
<polyline clip-path="url(#clip720)" style="stroke:#000000; stroke-linecap:round; stroke-linejoin:round; stroke-width:4; stroke-opacity:1; fill:none" points="
  250.028,544.285 268.926,544.285 
  "></polyline>
<polyline clip-path="url(#clip720)" style="stroke:#000000; stroke-linecap:round; stroke-linejoin:round; stroke-width:4; stroke-opacity:1; fill:none" points="
  250.028,301.485 268.926,301.485 
  "></polyline>
<path clip-path="url(#clip720)" d="M126.529 1258.48 Q122.918 1258.48 121.089 1262.05 Q119.283 1265.59 119.283 1272.72 Q119.283 1279.83 121.089 1283.39 Q122.918 1286.93 126.529 1286.93 Q130.163 1286.93 131.968 1283.39 Q133.797 1279.83 133.797 1272.72 Q133.797 1265.59 131.968 1262.05 Q130.163 1258.48 126.529 1258.48 M126.529 1254.78 Q132.339 1254.78 135.394 1259.39 Q138.473 1263.97 138.473 1272.72 Q138.473 1281.45 135.394 1286.05 Q132.339 1290.64 126.529 1290.64 Q120.718 1290.64 117.64 1286.05 Q114.584 1281.45 114.584 1272.72 Q114.584 1263.97 117.64 1259.39 Q120.718 1254.78 126.529 1254.78 Z" fill="#000000" fill-rule="evenodd" fill-opacity="1"></path><path clip-path="url(#clip720)" d="M146.691 1284.08 L151.575 1284.08 L151.575 1289.96 L146.691 1289.96 L146.691 1284.08 Z" fill="#000000" fill-rule="evenodd" fill-opacity="1"></path><path clip-path="url(#clip720)" d="M171.76 1273.55 Q168.427 1273.55 166.505 1275.33 Q164.607 1277.12 164.607 1280.24 Q164.607 1283.37 166.505 1285.15 Q168.427 1286.93 171.76 1286.93 Q175.093 1286.93 177.014 1285.15 Q178.936 1283.34 178.936 1280.24 Q178.936 1277.12 177.014 1275.33 Q175.116 1273.55 171.76 1273.55 M167.084 1271.56 Q164.075 1270.82 162.385 1268.76 Q160.718 1266.7 160.718 1263.74 Q160.718 1259.59 163.658 1257.19 Q166.621 1254.78 171.76 1254.78 Q176.922 1254.78 179.862 1257.19 Q182.801 1259.59 182.801 1263.74 Q182.801 1266.7 181.112 1268.76 Q179.445 1270.82 176.459 1271.56 Q179.839 1272.35 181.713 1274.64 Q183.612 1276.93 183.612 1280.24 Q183.612 1285.27 180.533 1287.95 Q177.477 1290.64 171.76 1290.64 Q166.042 1290.64 162.964 1287.95 Q159.908 1285.27 159.908 1280.24 Q159.908 1276.93 161.806 1274.64 Q163.704 1272.35 167.084 1271.56 M165.371 1264.18 Q165.371 1266.86 167.038 1268.37 Q168.727 1269.87 171.76 1269.87 Q174.769 1269.87 176.459 1268.37 Q178.172 1266.86 178.172 1264.18 Q178.172 1261.49 176.459 1259.99 Q174.769 1258.48 171.76 1258.48 Q168.727 1258.48 167.038 1259.99 Q165.371 1261.49 165.371 1264.18 Z" fill="#000000" fill-rule="evenodd" fill-opacity="1"></path><path clip-path="url(#clip720)" d="M202.5 1270.82 Q199.352 1270.82 197.5 1272.97 Q195.672 1275.13 195.672 1278.88 Q195.672 1282.6 197.5 1284.78 Q199.352 1286.93 202.5 1286.93 Q205.649 1286.93 207.477 1284.78 Q209.329 1282.6 209.329 1278.88 Q209.329 1275.13 207.477 1272.97 Q205.649 1270.82 202.5 1270.82 M211.783 1256.17 L211.783 1260.43 Q210.024 1259.59 208.218 1259.15 Q206.436 1258.71 204.676 1258.71 Q200.047 1258.71 197.593 1261.84 Q195.163 1264.96 194.815 1271.28 Q196.181 1269.27 198.241 1268.21 Q200.301 1267.12 202.778 1267.12 Q207.987 1267.12 210.996 1270.29 Q214.028 1273.44 214.028 1278.88 Q214.028 1284.2 210.88 1287.42 Q207.732 1290.64 202.5 1290.64 Q196.505 1290.64 193.334 1286.05 Q190.163 1281.45 190.163 1272.72 Q190.163 1264.52 194.051 1259.66 Q197.94 1254.78 204.491 1254.78 Q206.25 1254.78 208.033 1255.13 Q209.838 1255.47 211.783 1256.17 Z" fill="#000000" fill-rule="evenodd" fill-opacity="1"></path><path clip-path="url(#clip720)" d="M126.783 1015.68 Q123.172 1015.68 121.343 1019.25 Q119.538 1022.79 119.538 1029.92 Q119.538 1037.03 121.343 1040.59 Q123.172 1044.13 126.783 1044.13 Q130.417 1044.13 132.223 1040.59 Q134.052 1037.03 134.052 1029.92 Q134.052 1022.79 132.223 1019.25 Q130.417 1015.68 126.783 1015.68 M126.783 1011.98 Q132.593 1011.98 135.649 1016.59 Q138.728 1021.17 138.728 1029.92 Q138.728 1038.65 135.649 1043.25 Q132.593 1047.84 126.783 1047.84 Q120.973 1047.84 117.894 1043.25 Q114.839 1038.65 114.839 1029.92 Q114.839 1021.17 117.894 1016.59 Q120.973 1011.98 126.783 1011.98 Z" fill="#000000" fill-rule="evenodd" fill-opacity="1"></path><path clip-path="url(#clip720)" d="M146.945 1041.28 L151.829 1041.28 L151.829 1047.16 L146.945 1047.16 L146.945 1041.28 Z" fill="#000000" fill-rule="evenodd" fill-opacity="1"></path><path clip-path="url(#clip720)" d="M172.014 1030.75 Q168.681 1030.75 166.76 1032.53 Q164.862 1034.32 164.862 1037.44 Q164.862 1040.57 166.76 1042.35 Q168.681 1044.13 172.014 1044.13 Q175.348 1044.13 177.269 1042.35 Q179.19 1040.54 179.19 1037.44 Q179.19 1034.32 177.269 1032.53 Q175.371 1030.75 172.014 1030.75 M167.339 1028.76 Q164.329 1028.02 162.64 1025.96 Q160.973 1023.9 160.973 1020.94 Q160.973 1016.79 163.913 1014.39 Q166.876 1011.98 172.014 1011.98 Q177.176 1011.98 180.116 1014.39 Q183.056 1016.79 183.056 1020.94 Q183.056 1023.9 181.366 1025.96 Q179.7 1028.02 176.714 1028.76 Q180.093 1029.55 181.968 1031.84 Q183.866 1034.13 183.866 1037.44 Q183.866 1042.47 180.788 1045.15 Q177.732 1047.84 172.014 1047.84 Q166.297 1047.84 163.218 1045.15 Q160.163 1042.47 160.163 1037.44 Q160.163 1034.13 162.061 1031.84 Q163.959 1029.55 167.339 1028.76 M165.626 1021.38 Q165.626 1024.06 167.292 1025.57 Q168.982 1027.07 172.014 1027.07 Q175.024 1027.07 176.714 1025.57 Q178.426 1024.06 178.426 1021.38 Q178.426 1018.69 176.714 1017.19 Q175.024 1015.68 172.014 1015.68 Q168.982 1015.68 167.292 1017.19 Q165.626 1018.69 165.626 1021.38 Z" fill="#000000" fill-rule="evenodd" fill-opacity="1"></path><path clip-path="url(#clip720)" d="M202.176 1030.75 Q198.843 1030.75 196.922 1032.53 Q195.024 1034.32 195.024 1037.44 Q195.024 1040.57 196.922 1042.35 Q198.843 1044.13 202.176 1044.13 Q205.51 1044.13 207.431 1042.35 Q209.352 1040.54 209.352 1037.44 Q209.352 1034.32 207.431 1032.53 Q205.533 1030.75 202.176 1030.75 M197.5 1028.76 Q194.491 1028.02 192.801 1025.96 Q191.135 1023.9 191.135 1020.94 Q191.135 1016.79 194.075 1014.39 Q197.037 1011.98 202.176 1011.98 Q207.338 1011.98 210.278 1014.39 Q213.218 1016.79 213.218 1020.94 Q213.218 1023.9 211.528 1025.96 Q209.861 1028.02 206.875 1028.76 Q210.255 1029.55 212.13 1031.84 Q214.028 1034.13 214.028 1037.44 Q214.028 1042.47 210.949 1045.15 Q207.894 1047.84 202.176 1047.84 Q196.459 1047.84 193.38 1045.15 Q190.325 1042.47 190.325 1037.44 Q190.325 1034.13 192.223 1031.84 Q194.121 1029.55 197.5 1028.76 M195.787 1021.38 Q195.787 1024.06 197.454 1025.57 Q199.144 1027.07 202.176 1027.07 Q205.186 1027.07 206.875 1025.57 Q208.588 1024.06 208.588 1021.38 Q208.588 1018.69 206.875 1017.19 Q205.186 1015.68 202.176 1015.68 Q199.144 1015.68 197.454 1017.19 Q195.787 1018.69 195.787 1021.38 Z" fill="#000000" fill-rule="evenodd" fill-opacity="1"></path><path clip-path="url(#clip720)" d="M126.691 772.883 Q123.08 772.883 121.251 776.448 Q119.445 779.99 119.445 787.119 Q119.445 794.226 121.251 797.791 Q123.08 801.332 126.691 801.332 Q130.325 801.332 132.13 797.791 Q133.959 794.226 133.959 787.119 Q133.959 779.99 132.13 776.448 Q130.325 772.883 126.691 772.883 M126.691 769.18 Q132.501 769.18 135.556 773.786 Q138.635 778.369 138.635 787.119 Q138.635 795.846 135.556 800.453 Q132.501 805.036 126.691 805.036 Q120.88 805.036 117.802 800.453 Q114.746 795.846 114.746 787.119 Q114.746 778.369 117.802 773.786 Q120.88 769.18 126.691 769.18 Z" fill="#000000" fill-rule="evenodd" fill-opacity="1"></path><path clip-path="url(#clip720)" d="M146.853 798.485 L151.737 798.485 L151.737 804.365 L146.853 804.365 L146.853 798.485 Z" fill="#000000" fill-rule="evenodd" fill-opacity="1"></path><path clip-path="url(#clip720)" d="M162.061 803.647 L162.061 799.388 Q163.82 800.221 165.626 800.661 Q167.431 801.101 169.167 801.101 Q173.797 801.101 176.227 797.999 Q178.681 794.874 179.028 788.531 Q177.686 790.522 175.626 791.587 Q173.565 792.652 171.065 792.652 Q165.88 792.652 162.848 789.527 Q159.839 786.379 159.839 780.939 Q159.839 775.615 162.987 772.397 Q166.135 769.18 171.366 769.18 Q177.362 769.18 180.51 773.786 Q183.681 778.369 183.681 787.119 Q183.681 795.291 179.792 800.175 Q175.926 805.036 169.376 805.036 Q167.616 805.036 165.811 804.689 Q164.005 804.341 162.061 803.647 M171.366 788.994 Q174.514 788.994 176.343 786.842 Q178.195 784.689 178.195 780.939 Q178.195 777.212 176.343 775.059 Q174.514 772.883 171.366 772.883 Q168.218 772.883 166.366 775.059 Q164.538 777.212 164.538 780.939 Q164.538 784.689 166.366 786.842 Q168.218 788.994 171.366 788.994 Z" fill="#000000" fill-rule="evenodd" fill-opacity="1"></path><path clip-path="url(#clip720)" d="M202.084 772.883 Q198.473 772.883 196.644 776.448 Q194.838 779.99 194.838 787.119 Q194.838 794.226 196.644 797.791 Q198.473 801.332 202.084 801.332 Q205.718 801.332 207.524 797.791 Q209.352 794.226 209.352 787.119 Q209.352 779.99 207.524 776.448 Q205.718 772.883 202.084 772.883 M202.084 769.18 Q207.894 769.18 210.949 773.786 Q214.028 778.369 214.028 787.119 Q214.028 795.846 210.949 800.453 Q207.894 805.036 202.084 805.036 Q196.274 805.036 193.195 800.453 Q190.139 795.846 190.139 787.119 Q190.139 778.369 193.195 773.786 Q196.274 769.18 202.084 769.18 Z" fill="#000000" fill-rule="evenodd" fill-opacity="1"></path><path clip-path="url(#clip720)" d="M128.288 530.083 Q124.677 530.083 122.848 533.648 Q121.043 537.19 121.043 544.319 Q121.043 551.426 122.848 554.991 Q124.677 558.532 128.288 558.532 Q131.922 558.532 133.728 554.991 Q135.556 551.426 135.556 544.319 Q135.556 537.19 133.728 533.648 Q131.922 530.083 128.288 530.083 M128.288 526.38 Q134.098 526.38 137.154 530.986 Q140.232 535.57 140.232 544.319 Q140.232 553.046 137.154 557.653 Q134.098 562.236 128.288 562.236 Q122.478 562.236 119.399 557.653 Q116.343 553.046 116.343 544.319 Q116.343 535.57 119.399 530.986 Q122.478 526.38 128.288 526.38 Z" fill="#000000" fill-rule="evenodd" fill-opacity="1"></path><path clip-path="url(#clip720)" d="M148.45 555.685 L153.334 555.685 L153.334 561.565 L148.45 561.565 L148.45 555.685 Z" fill="#000000" fill-rule="evenodd" fill-opacity="1"></path><path clip-path="url(#clip720)" d="M163.658 560.847 L163.658 556.588 Q165.417 557.421 167.223 557.861 Q169.028 558.301 170.764 558.301 Q175.394 558.301 177.825 555.199 Q180.278 552.074 180.626 545.732 Q179.283 547.722 177.223 548.787 Q175.163 549.852 172.663 549.852 Q167.477 549.852 164.445 546.727 Q161.436 543.579 161.436 538.139 Q161.436 532.815 164.584 529.597 Q167.732 526.38 172.964 526.38 Q178.959 526.38 182.107 530.986 Q185.278 535.57 185.278 544.319 Q185.278 552.491 181.389 557.375 Q177.524 562.236 170.973 562.236 Q169.214 562.236 167.408 561.889 Q165.602 561.542 163.658 560.847 M172.964 546.194 Q176.112 546.194 177.94 544.042 Q179.792 541.889 179.792 538.139 Q179.792 534.412 177.94 532.259 Q176.112 530.083 172.964 530.083 Q169.815 530.083 167.964 532.259 Q166.135 534.412 166.135 538.139 Q166.135 541.889 167.964 544.042 Q169.815 546.194 172.964 546.194 Z" fill="#000000" fill-rule="evenodd" fill-opacity="1"></path><path clip-path="url(#clip720)" d="M197.709 557.63 L214.028 557.63 L214.028 561.565 L192.084 561.565 L192.084 557.63 Q194.746 554.875 199.329 550.245 Q203.936 545.593 205.116 544.25 Q207.362 541.727 208.241 539.991 Q209.144 538.232 209.144 536.542 Q209.144 533.787 207.199 532.051 Q205.278 530.315 202.176 530.315 Q199.977 530.315 197.524 531.079 Q195.093 531.843 192.315 533.394 L192.315 528.671 Q195.139 527.537 197.593 526.958 Q200.047 526.38 202.084 526.38 Q207.454 526.38 210.649 529.065 Q213.843 531.75 213.843 536.241 Q213.843 538.37 213.033 540.292 Q212.246 542.19 210.139 544.782 Q209.561 545.454 206.459 548.671 Q203.357 551.866 197.709 557.63 Z" fill="#000000" fill-rule="evenodd" fill-opacity="1"></path><path clip-path="url(#clip720)" d="M126.205 287.284 Q122.593 287.284 120.765 290.848 Q118.959 294.39 118.959 301.52 Q118.959 308.626 120.765 312.191 Q122.593 315.733 126.205 315.733 Q129.839 315.733 131.644 312.191 Q133.473 308.626 133.473 301.52 Q133.473 294.39 131.644 290.848 Q129.839 287.284 126.205 287.284 M126.205 283.58 Q132.015 283.58 135.07 288.186 Q138.149 292.77 138.149 301.52 Q138.149 310.246 135.07 314.853 Q132.015 319.436 126.205 319.436 Q120.394 319.436 117.316 314.853 Q114.26 310.246 114.26 301.52 Q114.26 292.77 117.316 288.186 Q120.394 283.58 126.205 283.58 Z" fill="#000000" fill-rule="evenodd" fill-opacity="1"></path><path clip-path="url(#clip720)" d="M146.366 312.885 L151.251 312.885 L151.251 318.765 L146.366 318.765 L146.366 312.885 Z" fill="#000000" fill-rule="evenodd" fill-opacity="1"></path><path clip-path="url(#clip720)" d="M161.575 318.047 L161.575 313.788 Q163.334 314.621 165.14 315.061 Q166.945 315.501 168.681 315.501 Q173.311 315.501 175.741 312.399 Q178.195 309.274 178.542 302.932 Q177.2 304.922 175.139 305.987 Q173.079 307.052 170.579 307.052 Q165.394 307.052 162.362 303.927 Q159.353 300.779 159.353 295.339 Q159.353 290.015 162.501 286.797 Q165.649 283.58 170.88 283.58 Q176.876 283.58 180.024 288.186 Q183.195 292.77 183.195 301.52 Q183.195 309.691 179.306 314.575 Q175.44 319.436 168.889 319.436 Q167.13 319.436 165.325 319.089 Q163.519 318.742 161.575 318.047 M170.88 303.395 Q174.028 303.395 175.857 301.242 Q177.709 299.089 177.709 295.339 Q177.709 291.612 175.857 289.46 Q174.028 287.284 170.88 287.284 Q167.732 287.284 165.88 289.46 Q164.052 291.612 164.052 295.339 Q164.052 299.089 165.88 301.242 Q167.732 303.395 170.88 303.395 Z" fill="#000000" fill-rule="evenodd" fill-opacity="1"></path><path clip-path="url(#clip720)" d="M204.445 288.279 L192.639 306.728 L204.445 306.728 L204.445 288.279 M203.218 284.205 L209.098 284.205 L209.098 306.728 L214.028 306.728 L214.028 310.617 L209.098 310.617 L209.098 318.765 L204.445 318.765 L204.445 310.617 L188.843 310.617 L188.843 306.103 L203.218 284.205 Z" fill="#000000" fill-rule="evenodd" fill-opacity="1"></path><path clip-path="url(#clip720)" d="M64.0042 913.101 L16.4842 931.243 L16.4842 924.527 L56.4926 909.473 L16.4842 894.386 L16.4842 887.702 L64.0042 905.812 L64.0042 913.101 Z" fill="#000000" fill-rule="evenodd" fill-opacity="1"></path><path clip-path="url(#clip720)" d="M46.0847 869.878 Q46.0847 876.976 47.7079 879.713 Q49.3312 882.45 53.2461 882.45 Q56.3653 882.45 58.2114 880.413 Q60.0256 878.344 60.0256 874.811 Q60.0256 869.941 56.5881 867.013 Q53.1188 864.053 47.3897 864.053 L46.0847 864.053 L46.0847 869.878 M43.6657 858.197 L64.0042 858.197 L64.0042 864.053 L58.5933 864.053 Q61.8398 866.058 63.3994 869.05 Q64.9272 872.042 64.9272 876.371 Q64.9272 881.845 61.8716 885.092 Q58.7843 888.307 53.6281 888.307 Q47.6125 888.307 44.5569 884.296 Q41.5014 880.254 41.5014 872.265 L41.5014 864.053 L40.9285 864.053 Q36.8862 864.053 34.6901 866.727 Q32.4621 869.369 32.4621 874.175 Q32.4621 877.23 33.1941 880.127 Q33.9262 883.023 35.3903 885.697 L29.9795 885.697 Q28.7381 882.482 28.1334 879.458 Q27.4968 876.435 27.4968 873.57 Q27.4968 865.836 31.5072 862.016 Q35.5176 858.197 43.6657 858.197 Z" fill="#000000" fill-rule="evenodd" fill-opacity="1"></path><path clip-path="url(#clip720)" d="M14.479 846.134 L14.479 840.277 L64.0042 840.277 L64.0042 846.134 L14.479 846.134 Z" fill="#000000" fill-rule="evenodd" fill-opacity="1"></path><path clip-path="url(#clip720)" d="M28.3562 828.023 L28.3562 822.167 L64.0042 822.167 L64.0042 828.023 L28.3562 828.023 M14.479 828.023 L14.479 822.167 L21.895 822.167 L21.895 828.023 L14.479 828.023 Z" fill="#000000" fill-rule="evenodd" fill-opacity="1"></path><path clip-path="url(#clip720)" d="M33.7671 786.455 L14.479 786.455 L14.479 780.599 L64.0042 780.599 L64.0042 786.455 L58.657 786.455 Q61.8398 788.301 63.3994 791.134 Q64.9272 793.935 64.9272 797.882 Q64.9272 804.343 59.771 808.417 Q54.6147 812.459 46.212 812.459 Q37.8093 812.459 32.6531 808.417 Q27.4968 804.343 27.4968 797.882 Q27.4968 793.935 29.0564 791.134 Q30.5842 788.301 33.7671 786.455 M46.212 806.412 Q52.6732 806.412 56.3653 803.77 Q60.0256 801.096 60.0256 796.449 Q60.0256 791.802 56.3653 789.129 Q52.6732 786.455 46.212 786.455 Q39.7508 786.455 36.0905 789.129 Q32.3984 791.802 32.3984 796.449 Q32.3984 801.096 36.0905 803.77 Q39.7508 806.412 46.212 806.412 Z" fill="#000000" fill-rule="evenodd" fill-opacity="1"></path><path clip-path="url(#clip720)" d="M46.0847 752.335 Q46.0847 759.433 47.7079 762.17 Q49.3312 764.907 53.2461 764.907 Q56.3653 764.907 58.2114 762.87 Q60.0256 760.801 60.0256 757.268 Q60.0256 752.399 56.5881 749.47 Q53.1188 746.51 47.3897 746.51 L46.0847 746.51 L46.0847 752.335 M43.6657 740.654 L64.0042 740.654 L64.0042 746.51 L58.5933 746.51 Q61.8398 748.516 63.3994 751.508 Q64.9272 754.499 64.9272 758.828 Q64.9272 764.303 61.8716 767.549 Q58.7843 770.764 53.6281 770.764 Q47.6125 770.764 44.5569 766.753 Q41.5014 762.711 41.5014 754.722 L41.5014 746.51 L40.9285 746.51 Q36.8862 746.51 34.6901 749.184 Q32.4621 751.826 32.4621 756.632 Q32.4621 759.687 33.1941 762.584 Q33.9262 765.48 35.3903 768.154 L29.9795 768.154 Q28.7381 764.939 28.1334 761.915 Q27.4968 758.892 27.4968 756.027 Q27.4968 748.293 31.5072 744.473 Q35.5176 740.654 43.6657 740.654 Z" fill="#000000" fill-rule="evenodd" fill-opacity="1"></path><path clip-path="url(#clip720)" d="M18.2347 722.798 L28.3562 722.798 L28.3562 710.735 L32.9077 710.735 L32.9077 722.798 L52.2594 722.798 Q56.6199 722.798 57.8613 721.621 Q59.1026 720.411 59.1026 716.751 L59.1026 710.735 L64.0042 710.735 L64.0042 716.751 Q64.0042 723.53 61.4897 726.108 Q58.9434 728.686 52.2594 728.686 L32.9077 728.686 L32.9077 732.983 L28.3562 732.983 L28.3562 728.686 L18.2347 728.686 L18.2347 722.798 Z" fill="#000000" fill-rule="evenodd" fill-opacity="1"></path><path clip-path="url(#clip720)" d="M28.3562 703.033 L28.3562 697.176 L64.0042 697.176 L64.0042 703.033 L28.3562 703.033 M14.479 703.033 L14.479 697.176 L21.895 697.176 L21.895 703.033 L14.479 703.033 Z" fill="#000000" fill-rule="evenodd" fill-opacity="1"></path><path clip-path="url(#clip720)" d="M32.4621 671.109 Q32.4621 675.819 36.1542 678.557 Q39.8145 681.294 46.212 681.294 Q52.6095 681.294 56.3017 678.588 Q59.9619 675.851 59.9619 671.109 Q59.9619 666.43 56.2698 663.693 Q52.5777 660.955 46.212 660.955 Q39.8781 660.955 36.186 663.693 Q32.4621 666.43 32.4621 671.109 M27.4968 671.109 Q27.4968 663.47 32.4621 659.109 Q37.4273 654.749 46.212 654.749 Q54.9649 654.749 59.9619 659.109 Q64.9272 663.47 64.9272 671.109 Q64.9272 678.779 59.9619 683.14 Q54.9649 687.469 46.212 687.469 Q37.4273 687.469 32.4621 683.14 Q27.4968 678.779 27.4968 671.109 Z" fill="#000000" fill-rule="evenodd" fill-opacity="1"></path><path clip-path="url(#clip720)" d="M42.4881 615.409 L64.0042 615.409 L64.0042 621.265 L42.679 621.265 Q37.6183 621.265 35.1038 623.239 Q32.5894 625.212 32.5894 629.159 Q32.5894 633.901 35.6131 636.638 Q38.6368 639.376 43.8567 639.376 L64.0042 639.376 L64.0042 645.264 L28.3562 645.264 L28.3562 639.376 L33.8944 639.376 Q30.6797 637.275 29.0883 634.442 Q27.4968 631.578 27.4968 627.854 Q27.4968 621.711 31.3163 618.56 Q35.1038 615.409 42.4881 615.409 Z" fill="#000000" fill-rule="evenodd" fill-opacity="1"></path><path clip-path="url(#clip720)" d="M626.977 72.576 L603.887 12.096 L612.434 12.096 L631.595 63.0159 L650.797 12.096 L659.303 12.096 L636.254 72.576 L626.977 72.576 Z" fill="#000000" fill-rule="evenodd" fill-opacity="1"></path><path clip-path="url(#clip720)" d="M681.989 49.7694 Q672.955 49.7694 669.471 51.8354 Q665.987 53.9013 665.987 58.8839 Q665.987 62.8538 668.58 65.2034 Q671.213 67.5124 675.71 67.5124 Q681.907 67.5124 685.634 63.1374 Q689.402 58.7219 689.402 51.4303 L689.402 49.7694 L681.989 49.7694 M696.855 46.6907 L696.855 72.576 L689.402 72.576 L689.402 65.6895 Q686.85 69.8214 683.042 71.8063 Q679.234 73.7508 673.725 73.7508 Q666.757 73.7508 662.625 69.8619 Q658.534 65.9325 658.534 59.3701 Q658.534 51.7138 663.638 47.825 Q668.783 43.9361 678.95 43.9361 L689.402 43.9361 L689.402 43.2069 Q689.402 38.0623 685.999 35.2672 Q682.637 32.4315 676.52 32.4315 Q672.631 32.4315 668.945 33.3632 Q665.258 34.295 661.856 36.1584 L661.856 29.2718 Q665.947 27.692 669.795 26.9223 Q673.644 26.1121 677.289 26.1121 Q687.133 26.1121 691.994 31.2163 Q696.855 36.3204 696.855 46.6907 Z" fill="#000000" fill-rule="evenodd" fill-opacity="1"></path><path clip-path="url(#clip720)" d="M749.922 45.1919 L749.922 72.576 L742.469 72.576 L742.469 45.4349 Q742.469 38.994 739.957 35.7938 Q737.445 32.5936 732.422 32.5936 Q726.386 32.5936 722.903 36.4419 Q719.419 40.2903 719.419 46.9338 L719.419 72.576 L711.925 72.576 L711.925 27.2059 L719.419 27.2059 L719.419 34.2544 Q722.092 30.163 725.698 28.1376 Q729.344 26.1121 734.083 26.1121 Q741.901 26.1121 745.912 30.9732 Q749.922 35.7938 749.922 45.1919 Z" fill="#000000" fill-rule="evenodd" fill-opacity="1"></path><path clip-path="url(#clip720)" d="M764.789 27.2059 L772.243 27.2059 L772.243 72.576 L764.789 72.576 L764.789 27.2059 M764.789 9.54393 L772.243 9.54393 L772.243 18.9825 L764.789 18.9825 L764.789 9.54393 Z" fill="#000000" fill-rule="evenodd" fill-opacity="1"></path><path clip-path="url(#clip720)" d="M787.839 9.54393 L795.292 9.54393 L795.292 72.576 L787.839 72.576 L787.839 9.54393 Z" fill="#000000" fill-rule="evenodd" fill-opacity="1"></path><path clip-path="url(#clip720)" d="M810.888 9.54393 L818.342 9.54393 L818.342 72.576 L810.888 72.576 L810.888 9.54393 Z" fill="#000000" fill-rule="evenodd" fill-opacity="1"></path><path clip-path="url(#clip720)" d="M854.557 49.7694 Q845.524 49.7694 842.04 51.8354 Q838.556 53.9013 838.556 58.8839 Q838.556 62.8538 841.149 65.2034 Q843.782 67.5124 848.278 67.5124 Q854.476 67.5124 858.203 63.1374 Q861.97 58.7219 861.97 51.4303 L861.97 49.7694 L854.557 49.7694 M869.424 46.6907 L869.424 72.576 L861.97 72.576 L861.97 65.6895 Q859.418 69.8214 855.61 71.8063 Q851.802 73.7508 846.293 73.7508 Q839.326 73.7508 835.194 69.8619 Q831.102 65.9325 831.102 59.3701 Q831.102 51.7138 836.206 47.825 Q841.351 43.9361 851.519 43.9361 L861.97 43.9361 L861.97 43.2069 Q861.97 38.0623 858.567 35.2672 Q855.205 32.4315 849.088 32.4315 Q845.199 32.4315 841.513 33.3632 Q837.827 34.295 834.424 36.1584 L834.424 29.2718 Q838.515 27.692 842.364 26.9223 Q846.212 26.1121 849.858 26.1121 Q859.702 26.1121 864.563 31.2163 Q869.424 36.3204 869.424 46.6907 Z" fill="#000000" fill-rule="evenodd" fill-opacity="1"></path><path clip-path="url(#clip720)" d="M905.801 27.2059 L913.7 27.2059 L927.878 65.2844 L942.057 27.2059 L949.956 27.2059 L932.942 72.576 L922.815 72.576 L905.801 27.2059 Z" fill="#000000" fill-rule="evenodd" fill-opacity="1"></path><path clip-path="url(#clip720)" d="M989.169 28.5427 L989.169 35.5912 Q986.009 33.9709 982.606 33.1607 Q979.203 32.3505 975.558 32.3505 Q970.008 32.3505 967.213 34.0519 Q964.458 35.7533 964.458 39.156 Q964.458 41.7486 966.443 43.2475 Q968.428 44.7058 974.423 46.0426 L976.975 46.6097 Q984.915 48.3111 988.237 51.4303 Q991.599 54.509 991.599 60.0587 Q991.599 66.3781 986.576 70.0644 Q981.593 73.7508 972.843 73.7508 Q969.198 73.7508 965.228 73.0216 Q961.298 72.3329 956.923 70.9151 L956.923 63.2184 Q961.055 65.3654 965.066 66.4591 Q969.076 67.5124 973.005 67.5124 Q978.272 67.5124 981.107 65.73 Q983.943 63.9071 983.943 60.6258 Q983.943 57.5877 981.877 55.9673 Q979.852 54.3469 972.924 52.8481 L970.332 52.2405 Q963.405 50.7821 960.326 47.7845 Q957.247 44.7463 957.247 39.4801 Q957.247 33.0797 961.784 29.5959 Q966.321 26.1121 974.666 26.1121 Q978.798 26.1121 982.444 26.7198 Q986.09 27.3274 989.169 28.5427 Z" fill="#000000" fill-rule="evenodd" fill-opacity="1"></path><path clip-path="url(#clip720)" d="M1004.52 62.2867 L1013.07 62.2867 L1013.07 72.576 L1004.52 72.576 L1004.52 62.2867 Z" fill="#000000" fill-rule="evenodd" fill-opacity="1"></path><path clip-path="url(#clip720)" d="M1064.72 18.8205 L1064.72 65.8515 L1074.6 65.8515 Q1087.12 65.8515 1092.91 60.1802 Q1098.75 54.509 1098.75 42.2752 Q1098.75 30.1225 1092.91 24.4918 Q1087.12 18.8205 1074.6 18.8205 L1064.72 18.8205 M1056.54 12.096 L1073.35 12.096 Q1090.93 12.096 1099.15 19.4281 Q1107.37 26.7198 1107.37 42.2752 Q1107.37 57.9117 1099.11 65.2439 Q1090.85 72.576 1073.35 72.576 L1056.54 72.576 L1056.54 12.096 Z" fill="#000000" fill-rule="evenodd" fill-opacity="1"></path><path clip-path="url(#clip720)" d="M1158.9 48.0275 L1158.9 51.6733 L1124.63 51.6733 Q1125.12 59.3701 1129.25 63.421 Q1133.42 67.4314 1140.83 67.4314 Q1145.13 67.4314 1149.14 66.3781 Q1153.19 65.3249 1157.16 63.2184 L1157.16 70.267 Q1153.15 71.9684 1148.94 72.8596 Q1144.72 73.7508 1140.39 73.7508 Q1129.53 73.7508 1123.17 67.4314 Q1116.85 61.1119 1116.85 50.3365 Q1116.85 39.1965 1122.85 32.6746 Q1128.88 26.1121 1139.09 26.1121 Q1148.25 26.1121 1153.55 32.0264 Q1158.9 37.9003 1158.9 48.0275 M1151.45 45.84 Q1151.37 39.7232 1148 36.0774 Q1144.68 32.4315 1139.17 32.4315 Q1132.94 32.4315 1129.17 35.9558 Q1125.44 39.4801 1124.87 45.8805 L1151.45 45.84 Z" fill="#000000" fill-rule="evenodd" fill-opacity="1"></path><path clip-path="url(#clip720)" d="M1208.85 45.1919 L1208.85 72.576 L1201.4 72.576 L1201.4 45.4349 Q1201.4 38.994 1198.88 35.7938 Q1196.37 32.5936 1191.35 32.5936 Q1185.31 32.5936 1181.83 36.4419 Q1178.35 40.2903 1178.35 46.9338 L1178.35 72.576 L1170.85 72.576 L1170.85 27.2059 L1178.35 27.2059 L1178.35 34.2544 Q1181.02 30.163 1184.62 28.1376 Q1188.27 26.1121 1193.01 26.1121 Q1200.83 26.1121 1204.84 30.9732 Q1208.85 35.7938 1208.85 45.1919 Z" fill="#000000" fill-rule="evenodd" fill-opacity="1"></path><path clip-path="url(#clip720)" d="M1252.64 28.5427 L1252.64 35.5912 Q1249.48 33.9709 1246.08 33.1607 Q1242.67 32.3505 1239.03 32.3505 Q1233.48 32.3505 1230.68 34.0519 Q1227.93 35.7533 1227.93 39.156 Q1227.93 41.7486 1229.91 43.2475 Q1231.9 44.7058 1237.89 46.0426 L1240.45 46.6097 Q1248.39 48.3111 1251.71 51.4303 Q1255.07 54.509 1255.07 60.0587 Q1255.07 66.3781 1250.05 70.0644 Q1245.06 73.7508 1236.31 73.7508 Q1232.67 73.7508 1228.7 73.0216 Q1224.77 72.3329 1220.39 70.9151 L1220.39 63.2184 Q1224.53 65.3654 1228.54 66.4591 Q1232.55 67.5124 1236.48 67.5124 Q1241.74 67.5124 1244.58 65.73 Q1247.41 63.9071 1247.41 60.6258 Q1247.41 57.5877 1245.35 55.9673 Q1243.32 54.3469 1236.4 52.8481 L1233.8 52.2405 Q1226.88 50.7821 1223.8 47.7845 Q1220.72 44.7463 1220.72 39.4801 Q1220.72 33.0797 1225.26 29.5959 Q1229.79 26.1121 1238.14 26.1121 Q1242.27 26.1121 1245.91 26.7198 Q1249.56 27.3274 1252.64 28.5427 Z" fill="#000000" fill-rule="evenodd" fill-opacity="1"></path><path clip-path="url(#clip720)" d="M1305.75 48.0275 L1305.75 51.6733 L1271.48 51.6733 Q1271.96 59.3701 1276.09 63.421 Q1280.27 67.4314 1287.68 67.4314 Q1291.97 67.4314 1295.98 66.3781 Q1300.03 65.3249 1304 63.2184 L1304 70.267 Q1299.99 71.9684 1295.78 72.8596 Q1291.57 73.7508 1287.23 73.7508 Q1276.38 73.7508 1270.02 67.4314 Q1263.7 61.1119 1263.7 50.3365 Q1263.7 39.1965 1269.69 32.6746 Q1275.73 26.1121 1285.94 26.1121 Q1295.09 26.1121 1300.4 32.0264 Q1305.75 37.9003 1305.75 48.0275 M1298.29 45.84 Q1298.21 39.7232 1294.85 36.0774 Q1291.53 32.4315 1286.02 32.4315 Q1279.78 32.4315 1276.01 35.9558 Q1272.29 39.4801 1271.72 45.8805 L1298.29 45.84 Z" fill="#000000" fill-rule="evenodd" fill-opacity="1"></path><path clip-path="url(#clip720)" d="M1326.49 18.8205 L1326.49 41.5461 L1336.78 41.5461 Q1342.49 41.5461 1345.61 38.5889 Q1348.73 35.6318 1348.73 30.163 Q1348.73 24.7348 1345.61 21.7777 Q1342.49 18.8205 1336.78 18.8205 L1326.49 18.8205 M1318.3 12.096 L1336.78 12.096 Q1346.94 12.096 1352.13 16.714 Q1357.36 21.2916 1357.36 30.163 Q1357.36 39.1155 1352.13 43.6931 Q1346.94 48.2706 1336.78 48.2706 L1326.49 48.2706 L1326.49 72.576 L1318.3 72.576 L1318.3 12.096 Z" fill="#000000" fill-rule="evenodd" fill-opacity="1"></path><path clip-path="url(#clip720)" d="M1382.63 32.4315 Q1376.64 32.4315 1373.15 37.1306 Q1369.67 41.7891 1369.67 49.9314 Q1369.67 58.0738 1373.11 62.7728 Q1376.6 67.4314 1382.63 67.4314 Q1388.59 67.4314 1392.07 62.7323 Q1395.56 58.0333 1395.56 49.9314 Q1395.56 41.8701 1392.07 37.1711 Q1388.59 32.4315 1382.63 32.4315 M1382.63 26.1121 Q1392.36 26.1121 1397.9 32.4315 Q1403.45 38.7509 1403.45 49.9314 Q1403.45 61.0714 1397.9 67.4314 Q1392.36 73.7508 1382.63 73.7508 Q1372.87 73.7508 1367.32 67.4314 Q1361.81 61.0714 1361.81 49.9314 Q1361.81 38.7509 1367.32 32.4315 Q1372.87 26.1121 1382.63 26.1121 Z" fill="#000000" fill-rule="evenodd" fill-opacity="1"></path><path clip-path="url(#clip720)" d="M1444.73 28.5427 L1444.73 35.5912 Q1441.57 33.9709 1438.17 33.1607 Q1434.77 32.3505 1431.12 32.3505 Q1425.57 32.3505 1422.78 34.0519 Q1420.02 35.7533 1420.02 39.156 Q1420.02 41.7486 1422.01 43.2475 Q1423.99 44.7058 1429.99 46.0426 L1432.54 46.6097 Q1440.48 48.3111 1443.8 51.4303 Q1447.16 54.509 1447.16 60.0587 Q1447.16 66.3781 1442.14 70.0644 Q1437.16 73.7508 1428.41 73.7508 Q1424.76 73.7508 1420.79 73.0216 Q1416.86 72.3329 1412.49 70.9151 L1412.49 63.2184 Q1416.62 65.3654 1420.63 66.4591 Q1424.64 67.5124 1428.57 67.5124 Q1433.84 67.5124 1436.67 65.73 Q1439.51 63.9071 1439.51 60.6258 Q1439.51 57.5877 1437.44 55.9673 Q1435.42 54.3469 1428.49 52.8481 L1425.9 52.2405 Q1418.97 50.7821 1415.89 47.7845 Q1412.81 44.7463 1412.81 39.4801 Q1412.81 33.0797 1417.35 29.5959 Q1421.89 26.1121 1430.23 26.1121 Q1434.36 26.1121 1438.01 26.7198 Q1441.65 27.3274 1444.73 28.5427 Z" fill="#000000" fill-rule="evenodd" fill-opacity="1"></path><path clip-path="url(#clip720)" d="M1493.91 18.8205 L1493.91 41.5461 L1504.2 41.5461 Q1509.91 41.5461 1513.03 38.5889 Q1516.15 35.6318 1516.15 30.163 Q1516.15 24.7348 1513.03 21.7777 Q1509.91 18.8205 1504.2 18.8205 L1493.91 18.8205 M1485.73 12.096 L1504.2 12.096 Q1514.37 12.096 1519.55 16.714 Q1524.78 21.2916 1524.78 30.163 Q1524.78 39.1155 1519.55 43.6931 Q1514.37 48.2706 1504.2 48.2706 L1493.91 48.2706 L1493.91 72.576 L1485.73 72.576 L1485.73 12.096 Z" fill="#000000" fill-rule="evenodd" fill-opacity="1"></path><path clip-path="url(#clip720)" d="M1571.28 48.0275 L1571.28 51.6733 L1537.01 51.6733 Q1537.5 59.3701 1541.63 63.421 Q1545.8 67.4314 1553.22 67.4314 Q1557.51 67.4314 1561.52 66.3781 Q1565.57 65.3249 1569.54 63.2184 L1569.54 70.267 Q1565.53 71.9684 1561.32 72.8596 Q1557.11 73.7508 1552.77 73.7508 Q1541.91 73.7508 1535.55 67.4314 Q1529.24 61.1119 1529.24 50.3365 Q1529.24 39.1965 1535.23 32.6746 Q1541.27 26.1121 1551.47 26.1121 Q1560.63 26.1121 1565.94 32.0264 Q1571.28 37.9003 1571.28 48.0275 M1563.83 45.84 Q1563.75 39.7232 1560.39 36.0774 Q1557.06 32.4315 1551.56 32.4315 Q1545.32 32.4315 1541.55 35.9558 Q1537.82 39.4801 1537.26 45.8805 L1563.83 45.84 Z" fill="#000000" fill-rule="evenodd" fill-opacity="1"></path><path clip-path="url(#clip720)" d="M1609.81 34.1734 Q1608.55 33.4443 1607.05 33.1202 Q1605.59 32.7556 1603.81 32.7556 Q1597.49 32.7556 1594.09 36.8875 Q1590.73 40.9789 1590.73 48.6757 L1590.73 72.576 L1583.23 72.576 L1583.23 27.2059 L1590.73 27.2059 L1590.73 34.2544 Q1593.08 30.1225 1596.84 28.1376 Q1600.61 26.1121 1606 26.1121 Q1606.77 26.1121 1607.7 26.2337 Q1608.63 26.3147 1609.77 26.5172 L1609.81 34.1734 Z" fill="#000000" fill-rule="evenodd" fill-opacity="1"></path><path clip-path="url(#clip720)" d="M1640.59 9.54393 L1640.59 15.7418 L1633.46 15.7418 Q1629.45 15.7418 1627.87 17.3622 Q1626.34 18.9825 1626.34 23.1955 L1626.34 27.2059 L1638.61 27.2059 L1638.61 32.9987 L1626.34 32.9987 L1626.34 72.576 L1618.84 72.576 L1618.84 32.9987 L1611.71 32.9987 L1611.71 27.2059 L1618.84 27.2059 L1618.84 24.0462 Q1618.84 16.471 1622.37 13.0277 Q1625.89 9.54393 1633.55 9.54393 L1640.59 9.54393 Z" fill="#000000" fill-rule="evenodd" fill-opacity="1"></path><path clip-path="url(#clip720)" d="M1664.41 32.4315 Q1658.42 32.4315 1654.93 37.1306 Q1651.45 41.7891 1651.45 49.9314 Q1651.45 58.0738 1654.89 62.7728 Q1658.38 67.4314 1664.41 67.4314 Q1670.37 67.4314 1673.85 62.7323 Q1677.34 58.0333 1677.34 49.9314 Q1677.34 41.8701 1673.85 37.1711 Q1670.37 32.4315 1664.41 32.4315 M1664.41 26.1121 Q1674.14 26.1121 1679.69 32.4315 Q1685.24 38.7509 1685.24 49.9314 Q1685.24 61.0714 1679.69 67.4314 Q1674.14 73.7508 1664.41 73.7508 Q1654.65 73.7508 1649.1 67.4314 Q1643.59 61.0714 1643.59 49.9314 Q1643.59 38.7509 1649.1 32.4315 Q1654.65 26.1121 1664.41 26.1121 Z" fill="#000000" fill-rule="evenodd" fill-opacity="1"></path><path clip-path="url(#clip720)" d="M1723.88 34.1734 Q1722.63 33.4443 1721.13 33.1202 Q1719.67 32.7556 1717.89 32.7556 Q1711.57 32.7556 1708.16 36.8875 Q1704.8 40.9789 1704.8 48.6757 L1704.8 72.576 L1697.31 72.576 L1697.31 27.2059 L1704.8 27.2059 L1704.8 34.2544 Q1707.15 30.1225 1710.92 28.1376 Q1714.69 26.1121 1720.07 26.1121 Q1720.84 26.1121 1721.77 26.2337 Q1722.71 26.3147 1723.84 26.5172 L1723.88 34.1734 Z" fill="#000000" fill-rule="evenodd" fill-opacity="1"></path><path clip-path="url(#clip720)" d="M1765.56 35.9153 Q1768.36 30.8922 1772.25 28.5022 Q1776.14 26.1121 1781.4 26.1121 Q1788.49 26.1121 1792.34 31.0947 Q1796.19 36.0368 1796.19 45.1919 L1796.19 72.576 L1788.7 72.576 L1788.7 45.4349 Q1788.7 38.913 1786.39 35.7533 Q1784.08 32.5936 1779.34 32.5936 Q1773.55 32.5936 1770.18 36.4419 Q1766.82 40.2903 1766.82 46.9338 L1766.82 72.576 L1759.33 72.576 L1759.33 45.4349 Q1759.33 38.8725 1757.02 35.7533 Q1754.71 32.5936 1749.89 32.5936 Q1744.18 32.5936 1740.81 36.4824 Q1737.45 40.3308 1737.45 46.9338 L1737.45 72.576 L1729.96 72.576 L1729.96 27.2059 L1737.45 27.2059 L1737.45 34.2544 Q1740 30.082 1743.57 28.0971 Q1747.13 26.1121 1752.03 26.1121 Q1756.98 26.1121 1760.42 28.6237 Q1763.9 31.1352 1765.56 35.9153 Z" fill="#000000" fill-rule="evenodd" fill-opacity="1"></path><path clip-path="url(#clip720)" d="M1831.68 49.7694 Q1822.64 49.7694 1819.16 51.8354 Q1815.67 53.9013 1815.67 58.8839 Q1815.67 62.8538 1818.27 65.2034 Q1820.9 67.5124 1825.4 67.5124 Q1831.59 67.5124 1835.32 63.1374 Q1839.09 58.7219 1839.09 51.4303 L1839.09 49.7694 L1831.68 49.7694 M1846.54 46.6907 L1846.54 72.576 L1839.09 72.576 L1839.09 65.6895 Q1836.54 69.8214 1832.73 71.8063 Q1828.92 73.7508 1823.41 73.7508 Q1816.44 73.7508 1812.31 69.8619 Q1808.22 65.9325 1808.22 59.3701 Q1808.22 51.7138 1813.33 47.825 Q1818.47 43.9361 1828.64 43.9361 L1839.09 43.9361 L1839.09 43.2069 Q1839.09 38.0623 1835.69 35.2672 Q1832.32 32.4315 1826.21 32.4315 Q1822.32 32.4315 1818.63 33.3632 Q1814.95 34.295 1811.54 36.1584 L1811.54 29.2718 Q1815.63 27.692 1819.48 26.9223 Q1823.33 26.1121 1826.98 26.1121 Q1836.82 26.1121 1841.68 31.2163 Q1846.54 36.3204 1846.54 46.6907 Z" fill="#000000" fill-rule="evenodd" fill-opacity="1"></path><path clip-path="url(#clip720)" d="M1899.61 45.1919 L1899.61 72.576 L1892.16 72.576 L1892.16 45.4349 Q1892.16 38.994 1889.64 35.7938 Q1887.13 32.5936 1882.11 32.5936 Q1876.07 32.5936 1872.59 36.4419 Q1869.11 40.2903 1869.11 46.9338 L1869.11 72.576 L1861.61 72.576 L1861.61 27.2059 L1869.11 27.2059 L1869.11 34.2544 Q1871.78 30.163 1875.38 28.1376 Q1879.03 26.1121 1883.77 26.1121 Q1891.59 26.1121 1895.6 30.9732 Q1899.61 35.7938 1899.61 45.1919 Z" fill="#000000" fill-rule="evenodd" fill-opacity="1"></path><path clip-path="url(#clip720)" d="M1947.13 28.9478 L1947.13 35.9153 Q1943.97 34.1734 1940.77 33.3227 Q1937.61 32.4315 1934.37 32.4315 Q1927.11 32.4315 1923.1 37.0496 Q1919.09 41.6271 1919.09 49.9314 Q1919.09 58.2358 1923.1 62.8538 Q1927.11 67.4314 1934.37 67.4314 Q1937.61 67.4314 1940.77 66.5807 Q1943.97 65.6895 1947.13 63.9476 L1947.13 70.8341 Q1944.01 72.2924 1940.64 73.0216 Q1937.32 73.7508 1933.56 73.7508 Q1923.31 73.7508 1917.27 67.3098 Q1911.24 60.8689 1911.24 49.9314 Q1911.24 38.832 1917.31 32.472 Q1923.43 26.1121 1934.04 26.1121 Q1937.49 26.1121 1940.77 26.8413 Q1944.05 27.5299 1947.13 28.9478 Z" fill="#000000" fill-rule="evenodd" fill-opacity="1"></path><path clip-path="url(#clip720)" d="M1998.9 48.0275 L1998.9 51.6733 L1964.63 51.6733 Q1965.11 59.3701 1969.24 63.421 Q1973.42 67.4314 1980.83 67.4314 Q1985.12 67.4314 1989.13 66.3781 Q1993.19 65.3249 1997.16 63.2184 L1997.16 70.267 Q1993.14 71.9684 1988.93 72.8596 Q1984.72 73.7508 1980.38 73.7508 Q1969.53 73.7508 1963.17 67.4314 Q1956.85 61.1119 1956.85 50.3365 Q1956.85 39.1965 1962.84 32.6746 Q1968.88 26.1121 1979.09 26.1121 Q1988.24 26.1121 1993.55 32.0264 Q1998.9 37.9003 1998.9 48.0275 M1991.44 45.84 Q1991.36 39.7232 1988 36.0774 Q1984.68 32.4315 1979.17 32.4315 Q1972.93 32.4315 1969.16 35.9558 Q1965.44 39.4801 1964.87 45.8805 L1991.44 45.84 Z" fill="#000000" fill-rule="evenodd" fill-opacity="1"></path><polyline clip-path="url(#clip722)" style="stroke:#009af9; stroke-linecap:round; stroke-linejoin:round; stroke-width:12; stroke-opacity:1; fill:none" points="
  309.539,1080.87 529.951,729.622 750.363,540.238 970.774,430.978 1191.19,358.543 1411.6,304.722 1632.01,224.598 1852.42,206.793 2072.83,190.606 2293.24,160.256 
  
  "></polyline>
<polyline clip-path="url(#clip722)" style="stroke:#e26f46; stroke-linecap:round; stroke-linejoin:round; stroke-width:12; stroke-opacity:1; fill:none" points="
  309.539,1386.4 529.951,868.827 750.363,772.517 970.774,528.907 1191.19,517.577 1411.6,429.764 1632.01,360.566 1852.42,276.8 2072.83,288.131 2293.24,266.279 
  
  "></polyline>
<path clip-path="url(#clip720)" d="
M320.119 322.316 L776.972 322.316 L776.972 166.796 L320.119 166.796  Z
  " fill="#ffffff" fill-rule="evenodd" fill-opacity="1"></path>
<polyline clip-path="url(#clip720)" style="stroke:#000000; stroke-linecap:round; stroke-linejoin:round; stroke-width:4; stroke-opacity:1; fill:none" points="
  320.119,322.316 776.972,322.316 776.972,166.796 320.119,166.796 320.119,322.316 
  "></polyline>
<polyline clip-path="url(#clip720)" style="stroke:#009af9; stroke-linecap:round; stroke-linejoin:round; stroke-width:4; stroke-opacity:1; fill:none" points="
  343.483,218.636 483.665,218.636 
  "></polyline>
<path clip-path="url(#clip720)" d="M520.223 235.916 L507.028 201.356 L511.912 201.356 L522.861 230.453 L533.834 201.356 L538.695 201.356 L525.523 235.916 L520.223 235.916 Z" fill="#000000" fill-rule="evenodd" fill-opacity="1"></path><path clip-path="url(#clip720)" d="M551.658 222.883 Q546.496 222.883 544.505 224.064 Q542.514 225.244 542.514 228.092 Q542.514 230.36 543.996 231.703 Q545.5 233.022 548.07 233.022 Q551.611 233.022 553.741 230.522 Q555.894 227.999 555.894 223.832 L555.894 222.883 L551.658 222.883 M560.153 221.124 L560.153 235.916 L555.894 235.916 L555.894 231.981 Q554.435 234.342 552.259 235.476 Q550.084 236.587 546.935 236.587 Q542.954 236.587 540.593 234.365 Q538.255 232.119 538.255 228.369 Q538.255 223.994 541.172 221.772 Q544.111 219.55 549.921 219.55 L555.894 219.55 L555.894 219.133 Q555.894 216.194 553.949 214.596 Q552.028 212.976 548.533 212.976 Q546.31 212.976 544.204 213.508 Q542.097 214.041 540.153 215.106 L540.153 211.17 Q542.491 210.268 544.69 209.828 Q546.889 209.365 548.972 209.365 Q554.597 209.365 557.375 212.282 Q560.153 215.198 560.153 221.124 Z" fill="#000000" fill-rule="evenodd" fill-opacity="1"></path><path clip-path="url(#clip720)" d="M590.477 220.268 L590.477 235.916 L586.218 235.916 L586.218 220.407 Q586.218 216.726 584.782 214.897 Q583.347 213.069 580.477 213.069 Q577.028 213.069 575.037 215.268 Q573.046 217.467 573.046 221.263 L573.046 235.916 L568.764 235.916 L568.764 209.99 L573.046 209.99 L573.046 214.018 Q574.574 211.68 576.634 210.522 Q578.718 209.365 581.426 209.365 Q585.894 209.365 588.185 212.143 Q590.477 214.897 590.477 220.268 Z" fill="#000000" fill-rule="evenodd" fill-opacity="1"></path><path clip-path="url(#clip720)" d="M598.972 209.99 L603.231 209.99 L603.231 235.916 L598.972 235.916 L598.972 209.99 M598.972 199.897 L603.231 199.897 L603.231 205.291 L598.972 205.291 L598.972 199.897 Z" fill="#000000" fill-rule="evenodd" fill-opacity="1"></path><path clip-path="url(#clip720)" d="M612.143 199.897 L616.403 199.897 L616.403 235.916 L612.143 235.916 L612.143 199.897 Z" fill="#000000" fill-rule="evenodd" fill-opacity="1"></path><path clip-path="url(#clip720)" d="M625.315 199.897 L629.574 199.897 L629.574 235.916 L625.315 235.916 L625.315 199.897 Z" fill="#000000" fill-rule="evenodd" fill-opacity="1"></path><path clip-path="url(#clip720)" d="M650.268 222.883 Q645.106 222.883 643.115 224.064 Q641.125 225.244 641.125 228.092 Q641.125 230.36 642.606 231.703 Q644.111 233.022 646.68 233.022 Q650.222 233.022 652.351 230.522 Q654.504 227.999 654.504 223.832 L654.504 222.883 L650.268 222.883 M658.763 221.124 L658.763 235.916 L654.504 235.916 L654.504 231.981 Q653.046 234.342 650.87 235.476 Q648.694 236.587 645.546 236.587 Q641.565 236.587 639.203 234.365 Q636.865 232.119 636.865 228.369 Q636.865 223.994 639.782 221.772 Q642.722 219.55 648.532 219.55 L654.504 219.55 L654.504 219.133 Q654.504 216.194 652.56 214.596 Q650.639 212.976 647.143 212.976 Q644.921 212.976 642.815 213.508 Q640.708 214.041 638.764 215.106 L638.764 211.17 Q641.102 210.268 643.301 209.828 Q645.5 209.365 647.583 209.365 Q653.208 209.365 655.986 212.282 Q658.763 215.198 658.763 221.124 Z" fill="#000000" fill-rule="evenodd" fill-opacity="1"></path><polyline clip-path="url(#clip720)" style="stroke:#e26f46; stroke-linecap:round; stroke-linejoin:round; stroke-width:4; stroke-opacity:1; fill:none" points="
  343.483,270.476 483.665,270.476 
  "></polyline>
<path clip-path="url(#clip720)" d="M511.704 257.038 L511.704 283.913 L517.352 283.913 Q524.505 283.913 527.815 280.672 Q531.148 277.432 531.148 270.441 Q531.148 263.497 527.815 260.279 Q524.505 257.038 517.352 257.038 L511.704 257.038 M507.028 253.196 L516.635 253.196 Q526.681 253.196 531.38 257.386 Q536.079 261.552 536.079 270.441 Q536.079 279.376 531.357 283.566 Q526.635 287.756 516.635 287.756 L507.028 287.756 L507.028 253.196 Z" fill="#000000" fill-rule="evenodd" fill-opacity="1"></path><path clip-path="url(#clip720)" d="M565.523 273.728 L565.523 275.811 L545.94 275.811 Q546.218 280.209 548.579 282.524 Q550.963 284.816 555.199 284.816 Q557.653 284.816 559.945 284.214 Q562.259 283.612 564.528 282.409 L564.528 286.436 Q562.236 287.408 559.829 287.918 Q557.421 288.427 554.945 288.427 Q548.741 288.427 545.107 284.816 Q541.496 281.205 541.496 275.047 Q541.496 268.682 544.922 264.955 Q548.371 261.205 554.204 261.205 Q559.435 261.205 562.468 264.585 Q565.523 267.941 565.523 273.728 M561.264 272.478 Q561.218 268.983 559.296 266.899 Q557.398 264.816 554.25 264.816 Q550.685 264.816 548.533 266.83 Q546.403 268.844 546.079 272.501 L561.264 272.478 Z" fill="#000000" fill-rule="evenodd" fill-opacity="1"></path><path clip-path="url(#clip720)" d="M594.065 272.108 L594.065 287.756 L589.806 287.756 L589.806 272.247 Q589.806 268.566 588.37 266.737 Q586.935 264.909 584.065 264.909 Q580.616 264.909 578.625 267.108 Q576.634 269.307 576.634 273.103 L576.634 287.756 L572.352 287.756 L572.352 261.83 L576.634 261.83 L576.634 265.858 Q578.162 263.52 580.222 262.362 Q582.306 261.205 585.014 261.205 Q589.481 261.205 591.773 263.983 Q594.065 266.737 594.065 272.108 Z" fill="#000000" fill-rule="evenodd" fill-opacity="1"></path><path clip-path="url(#clip720)" d="M619.088 262.594 L619.088 266.622 Q617.282 265.696 615.338 265.233 Q613.393 264.77 611.31 264.77 Q608.139 264.77 606.542 265.742 Q604.967 266.714 604.967 268.659 Q604.967 270.14 606.102 270.997 Q607.236 271.83 610.662 272.594 L612.12 272.918 Q616.657 273.89 618.555 275.672 Q620.477 277.432 620.477 280.603 Q620.477 284.214 617.606 286.321 Q614.759 288.427 609.759 288.427 Q607.676 288.427 605.407 288.01 Q603.162 287.617 600.662 286.807 L600.662 282.409 Q603.023 283.635 605.315 284.26 Q607.606 284.862 609.852 284.862 Q612.861 284.862 614.481 283.844 Q616.102 282.802 616.102 280.927 Q616.102 279.191 614.921 278.265 Q613.764 277.339 609.805 276.483 L608.324 276.135 Q604.366 275.302 602.606 273.589 Q600.847 271.853 600.847 268.844 Q600.847 265.186 603.44 263.196 Q606.032 261.205 610.801 261.205 Q613.162 261.205 615.245 261.552 Q617.329 261.899 619.088 262.594 Z" fill="#000000" fill-rule="evenodd" fill-opacity="1"></path><path clip-path="url(#clip720)" d="M649.435 273.728 L649.435 275.811 L629.852 275.811 Q630.129 280.209 632.49 282.524 Q634.875 284.816 639.111 284.816 Q641.565 284.816 643.856 284.214 Q646.171 283.612 648.439 282.409 L648.439 286.436 Q646.148 287.408 643.74 287.918 Q641.333 288.427 638.856 288.427 Q632.653 288.427 629.018 284.816 Q625.407 281.205 625.407 275.047 Q625.407 268.682 628.833 264.955 Q632.282 261.205 638.115 261.205 Q643.347 261.205 646.379 264.585 Q649.435 267.941 649.435 273.728 M645.176 272.478 Q645.129 268.983 643.208 266.899 Q641.31 264.816 638.162 264.816 Q634.597 264.816 632.444 266.83 Q630.315 268.844 629.991 272.501 L645.176 272.478 Z" fill="#000000" fill-rule="evenodd" fill-opacity="1"></path><path clip-path="url(#clip720)" d="M661.287 257.038 L661.287 270.024 L667.166 270.024 Q670.43 270.024 672.213 268.335 Q673.995 266.645 673.995 263.52 Q673.995 260.418 672.213 258.728 Q670.43 257.038 667.166 257.038 L661.287 257.038 M656.611 253.196 L667.166 253.196 Q672.976 253.196 675.939 255.835 Q678.925 258.45 678.925 263.52 Q678.925 268.635 675.939 271.251 Q672.976 273.867 667.166 273.867 L661.287 273.867 L661.287 287.756 L656.611 287.756 L656.611 253.196 Z" fill="#000000" fill-rule="evenodd" fill-opacity="1"></path><path clip-path="url(#clip720)" d="M693.37 264.816 Q689.944 264.816 687.953 267.501 Q685.962 270.163 685.962 274.816 Q685.962 279.469 687.93 282.154 Q689.921 284.816 693.37 284.816 Q696.773 284.816 698.763 282.131 Q700.754 279.446 700.754 274.816 Q700.754 270.21 698.763 267.524 Q696.773 264.816 693.37 264.816 M693.37 261.205 Q698.925 261.205 702.097 264.816 Q705.268 268.427 705.268 274.816 Q705.268 281.182 702.097 284.816 Q698.925 288.427 693.37 288.427 Q687.791 288.427 684.62 284.816 Q681.472 281.182 681.472 274.816 Q681.472 268.427 684.62 264.816 Q687.791 261.205 693.37 261.205 Z" fill="#000000" fill-rule="evenodd" fill-opacity="1"></path><path clip-path="url(#clip720)" d="M728.856 262.594 L728.856 266.622 Q727.05 265.696 725.106 265.233 Q723.161 264.77 721.078 264.77 Q717.907 264.77 716.309 265.742 Q714.735 266.714 714.735 268.659 Q714.735 270.14 715.87 270.997 Q717.004 271.83 720.43 272.594 L721.888 272.918 Q726.425 273.89 728.323 275.672 Q730.245 277.432 730.245 280.603 Q730.245 284.214 727.374 286.321 Q724.527 288.427 719.527 288.427 Q717.444 288.427 715.175 288.01 Q712.93 287.617 710.43 286.807 L710.43 282.409 Q712.791 283.635 715.083 284.26 Q717.374 284.862 719.62 284.862 Q722.629 284.862 724.249 283.844 Q725.87 282.802 725.87 280.927 Q725.87 279.191 724.689 278.265 Q723.532 277.339 719.573 276.483 L718.092 276.135 Q714.134 275.302 712.374 273.589 Q710.615 271.853 710.615 268.844 Q710.615 265.186 713.208 263.196 Q715.8 261.205 720.569 261.205 Q722.93 261.205 725.013 261.552 Q727.096 261.899 728.856 262.594 Z" fill="#000000" fill-rule="evenodd" fill-opacity="1"></path></svg>