<svg xmlns="http://www.w3.org/2000/svg" xmlns:xlink="http://www.w3.org/1999/xlink" width="600" height="400" viewBox="0 0 2400 1600">
<defs>
  <clipPath id="clip300">
    <rect x="0" y="0" width="2400" height="1600"></rect>
  </clipPath>
</defs>
<path clip-path="url(#clip300)" d="
M0 1600 L2400 1600 L2400 0 L0 0  Z
  " fill="#ffffff" fill-rule="evenodd" fill-opacity="1"></path>
<defs>
  <clipPath id="clip301">
    <rect x="480" y="0" width="1681" height="1600"></rect>
  </clipPath>
</defs>
<path clip-path="url(#clip300)" d="
M219.866 1423.18 L2352.76 1423.18 L2352.76 123.472 L219.866 123.472  Z
  " fill="#ffffff" fill-rule="evenodd" fill-opacity="1"></path>
<defs>
  <clipPath id="clip302">
    <rect x="219" y="123" width="2134" height="1301"></rect>
  </clipPath>
</defs>
<polyline clip-path="url(#clip302)" style="stroke:#000000; stroke-linecap:round; stroke-linejoin:round; stroke-width:2; stroke-opacity:0.1; fill:none" points="
  503.804,1423.18 503.804,123.472 
  "></polyline>
<polyline clip-path="url(#clip302)" style="stroke:#000000; stroke-linecap:round; stroke-linejoin:round; stroke-width:2; stroke-opacity:0.1; fill:none" points="
  950.951,1423.18 950.951,123.472 
  "></polyline>
<polyline clip-path="url(#clip302)" style="stroke:#000000; stroke-linecap:round; stroke-linejoin:round; stroke-width:2; stroke-opacity:0.1; fill:none" points="
  1398.1,1423.18 1398.1,123.472 
  "></polyline>
<polyline clip-path="url(#clip302)" style="stroke:#000000; stroke-linecap:round; stroke-linejoin:round; stroke-width:2; stroke-opacity:0.1; fill:none" points="
  1845.24,1423.18 1845.24,123.472 
  "></polyline>
<polyline clip-path="url(#clip302)" style="stroke:#000000; stroke-linecap:round; stroke-linejoin:round; stroke-width:2; stroke-opacity:0.1; fill:none" points="
  2292.39,1423.18 2292.39,123.472 
  "></polyline>
<polyline clip-path="url(#clip300)" style="stroke:#000000; stroke-linecap:round; stroke-linejoin:round; stroke-width:4; stroke-opacity:1; fill:none" points="
  219.866,1423.18 2352.76,1423.18 
  "></polyline>
<polyline clip-path="url(#clip300)" style="stroke:#000000; stroke-linecap:round; stroke-linejoin:round; stroke-width:4; stroke-opacity:1; fill:none" points="
  503.804,1423.18 503.804,1404.28 
  "></polyline>
<polyline clip-path="url(#clip300)" style="stroke:#000000; stroke-linecap:round; stroke-linejoin:round; stroke-width:4; stroke-opacity:1; fill:none" points="
  950.951,1423.18 950.951,1404.28 
  "></polyline>
<polyline clip-path="url(#clip300)" style="stroke:#000000; stroke-linecap:round; stroke-linejoin:round; stroke-width:4; stroke-opacity:1; fill:none" points="
  1398.1,1423.18 1398.1,1404.28 
  "></polyline>
<polyline clip-path="url(#clip300)" style="stroke:#000000; stroke-linecap:round; stroke-linejoin:round; stroke-width:4; stroke-opacity:1; fill:none" points="
  1845.24,1423.18 1845.24,1404.28 
  "></polyline>
<polyline clip-path="url(#clip300)" style="stroke:#000000; stroke-linecap:round; stroke-linejoin:round; stroke-width:4; stroke-opacity:1; fill:none" points="
  2292.39,1423.18 2292.39,1404.28 
  "></polyline>
<path clip-path="url(#clip300)" d="M481.802 1454.1 Q478.191 1454.1 476.362 1457.66 Q474.557 1461.2 474.557 1468.33 Q474.557 1475.44 476.362 1479.01 Q478.191 1482.55 481.802 1482.55 Q485.436 1482.55 487.242 1479.01 Q489.071 1475.44 489.071 1468.33 Q489.071 1461.2 487.242 1457.66 Q485.436 1454.1 481.802 1454.1 M481.802 1450.39 Q487.612 1450.39 490.668 1455 Q493.747 1459.58 493.747 1468.33 Q493.747 1477.06 490.668 1481.67 Q487.612 1486.25 481.802 1486.25 Q475.992 1486.25 472.913 1481.67 Q469.858 1477.06 469.858 1468.33 Q469.858 1459.58 472.913 1455 Q475.992 1450.39 481.802 1450.39 Z" fill="#000000" fill-rule="evenodd" fill-opacity="1"></path><path clip-path="url(#clip300)" d="M501.964 1479.7 L506.848 1479.7 L506.848 1485.58 L501.964 1485.58 L501.964 1479.7 Z" fill="#000000" fill-rule="evenodd" fill-opacity="1"></path><path clip-path="url(#clip300)" d="M517.844 1481.64 L525.483 1481.64 L525.483 1455.28 L517.172 1456.95 L517.172 1452.69 L525.436 1451.02 L530.112 1451.02 L530.112 1481.64 L537.751 1481.64 L537.751 1485.58 L517.844 1485.58 L517.844 1481.64 Z" fill="#000000" fill-rule="evenodd" fill-opacity="1"></path><path clip-path="url(#clip300)" d="M929.134 1454.1 Q925.523 1454.1 923.694 1457.66 Q921.889 1461.2 921.889 1468.33 Q921.889 1475.44 923.694 1479.01 Q925.523 1482.55 929.134 1482.55 Q932.768 1482.55 934.574 1479.01 Q936.403 1475.44 936.403 1468.33 Q936.403 1461.2 934.574 1457.66 Q932.768 1454.1 929.134 1454.1 M929.134 1450.39 Q934.944 1450.39 938 1455 Q941.078 1459.58 941.078 1468.33 Q941.078 1477.06 938 1481.67 Q934.944 1486.25 929.134 1486.25 Q923.324 1486.25 920.245 1481.67 Q917.19 1477.06 917.19 1468.33 Q917.19 1459.58 920.245 1455 Q923.324 1450.39 929.134 1450.39 Z" fill="#000000" fill-rule="evenodd" fill-opacity="1"></path><path clip-path="url(#clip300)" d="M949.296 1479.7 L954.18 1479.7 L954.18 1485.58 L949.296 1485.58 L949.296 1479.7 Z" fill="#000000" fill-rule="evenodd" fill-opacity="1"></path><path clip-path="url(#clip300)" d="M968.393 1481.64 L984.712 1481.64 L984.712 1485.58 L962.768 1485.58 L962.768 1481.64 Q965.43 1478.89 970.013 1474.26 Q974.62 1469.61 975.8 1468.27 Q978.046 1465.74 978.925 1464.01 Q979.828 1462.25 979.828 1460.56 Q979.828 1457.8 977.884 1456.07 Q975.963 1454.33 972.861 1454.33 Q970.662 1454.33 968.208 1455.09 Q965.777 1455.86 963 1457.41 L963 1452.69 Q965.824 1451.55 968.277 1450.97 Q970.731 1450.39 972.768 1450.39 Q978.138 1450.39 981.333 1453.08 Q984.527 1455.77 984.527 1460.26 Q984.527 1462.39 983.717 1464.31 Q982.93 1466.2 980.824 1468.8 Q980.245 1469.47 977.143 1472.69 Q974.041 1475.88 968.393 1481.64 Z" fill="#000000" fill-rule="evenodd" fill-opacity="1"></path><path clip-path="url(#clip300)" d="M1375.81 1454.1 Q1372.2 1454.1 1370.37 1457.66 Q1368.56 1461.2 1368.56 1468.33 Q1368.56 1475.44 1370.37 1479.01 Q1372.2 1482.55 1375.81 1482.55 Q1379.44 1482.55 1381.25 1479.01 Q1383.07 1475.44 1383.07 1468.33 Q1383.07 1461.2 1381.25 1457.66 Q1379.44 1454.1 1375.81 1454.1 M1375.81 1450.39 Q1381.62 1450.39 1384.67 1455 Q1387.75 1459.58 1387.75 1468.33 Q1387.75 1477.06 1384.67 1481.67 Q1381.62 1486.25 1375.81 1486.25 Q1370 1486.25 1366.92 1481.67 Q1363.86 1477.06 1363.86 1468.33 Q1363.86 1459.58 1366.92 1455 Q1370 1450.39 1375.81 1450.39 Z" fill="#000000" fill-rule="evenodd" fill-opacity="1"></path><path clip-path="url(#clip300)" d="M1395.97 1479.7 L1400.85 1479.7 L1400.85 1485.58 L1395.97 1485.58 L1395.97 1479.7 Z" fill="#000000" fill-rule="evenodd" fill-opacity="1"></path><path clip-path="url(#clip300)" d="M1425.2 1466.95 Q1428.56 1467.66 1430.44 1469.93 Q1432.33 1472.2 1432.33 1475.53 Q1432.33 1480.65 1428.82 1483.45 Q1425.3 1486.25 1418.82 1486.25 Q1416.64 1486.25 1414.32 1485.81 Q1412.03 1485.39 1409.58 1484.54 L1409.58 1480.02 Q1411.52 1481.16 1413.84 1481.74 Q1416.15 1482.32 1418.68 1482.32 Q1423.07 1482.32 1425.37 1480.58 Q1427.68 1478.84 1427.68 1475.53 Q1427.68 1472.48 1425.53 1470.77 Q1423.4 1469.03 1419.58 1469.03 L1415.55 1469.03 L1415.55 1465.19 L1419.76 1465.19 Q1423.21 1465.19 1425.04 1463.82 Q1426.87 1462.43 1426.87 1459.84 Q1426.87 1457.18 1424.97 1455.77 Q1423.1 1454.33 1419.58 1454.33 Q1417.66 1454.33 1415.46 1454.75 Q1413.26 1455.16 1410.62 1456.04 L1410.62 1451.88 Q1413.28 1451.14 1415.6 1450.77 Q1417.94 1450.39 1420 1450.39 Q1425.32 1450.39 1428.42 1452.83 Q1431.52 1455.23 1431.52 1459.35 Q1431.52 1462.22 1429.88 1464.21 Q1428.24 1466.18 1425.2 1466.95 Z" fill="#000000" fill-rule="evenodd" fill-opacity="1"></path><path clip-path="url(#clip300)" d="M1822.39 1454.1 Q1818.77 1454.1 1816.95 1457.66 Q1815.14 1461.2 1815.14 1468.33 Q1815.14 1475.44 1816.95 1479.01 Q1818.77 1482.55 1822.39 1482.55 Q1826.02 1482.55 1827.83 1479.01 Q1829.65 1475.44 1829.65 1468.33 Q1829.65 1461.2 1827.83 1457.66 Q1826.02 1454.1 1822.39 1454.1 M1822.39 1450.39 Q1828.2 1450.39 1831.25 1455 Q1834.33 1459.58 1834.33 1468.33 Q1834.33 1477.06 1831.25 1481.67 Q1828.2 1486.25 1822.39 1486.25 Q1816.58 1486.25 1813.5 1481.67 Q1810.44 1477.06 1810.44 1468.33 Q1810.44 1459.58 1813.5 1455 Q1816.58 1450.39 1822.39 1450.39 Z" fill="#000000" fill-rule="evenodd" fill-opacity="1"></path><path clip-path="url(#clip300)" d="M1842.55 1479.7 L1847.43 1479.7 L1847.43 1485.58 L1842.55 1485.58 L1842.55 1479.7 Z" fill="#000000" fill-rule="evenodd" fill-opacity="1"></path><path clip-path="url(#clip300)" d="M1870.46 1455.09 L1858.66 1473.54 L1870.46 1473.54 L1870.46 1455.09 M1869.24 1451.02 L1875.12 1451.02 L1875.12 1473.54 L1880.05 1473.54 L1880.05 1477.43 L1875.12 1477.43 L1875.12 1485.58 L1870.46 1485.58 L1870.46 1477.43 L1854.86 1477.43 L1854.86 1472.92 L1869.24 1451.02 Z" fill="#000000" fill-rule="evenodd" fill-opacity="1"></path><path clip-path="url(#clip300)" d="M2270.27 1454.1 Q2266.66 1454.1 2264.83 1457.66 Q2263.03 1461.2 2263.03 1468.33 Q2263.03 1475.44 2264.83 1479.01 Q2266.66 1482.55 2270.27 1482.55 Q2273.91 1482.55 2275.71 1479.01 Q2277.54 1475.44 2277.54 1468.33 Q2277.54 1461.2 2275.71 1457.66 Q2273.91 1454.1 2270.27 1454.1 M2270.27 1450.39 Q2276.08 1450.39 2279.14 1455 Q2282.22 1459.58 2282.22 1468.33 Q2282.22 1477.06 2279.14 1481.67 Q2276.08 1486.25 2270.27 1486.25 Q2264.46 1486.25 2261.38 1481.67 Q2258.33 1477.06 2258.33 1468.33 Q2258.33 1459.58 2261.38 1455 Q2264.46 1450.39 2270.27 1450.39 Z" fill="#000000" fill-rule="evenodd" fill-opacity="1"></path><path clip-path="url(#clip300)" d="M2290.44 1479.7 L2295.32 1479.7 L2295.32 1485.58 L2290.44 1485.58 L2290.44 1479.7 Z" fill="#000000" fill-rule="evenodd" fill-opacity="1"></path><path clip-path="url(#clip300)" d="M2305.55 1451.02 L2323.91 1451.02 L2323.91 1454.96 L2309.83 1454.96 L2309.83 1463.43 Q2310.85 1463.08 2311.87 1462.92 Q2312.89 1462.73 2313.91 1462.73 Q2319.69 1462.73 2323.07 1465.9 Q2326.45 1469.08 2326.45 1474.49 Q2326.45 1480.07 2322.98 1483.17 Q2319.51 1486.25 2313.19 1486.25 Q2311.01 1486.25 2308.75 1485.88 Q2306.5 1485.51 2304.09 1484.77 L2304.09 1480.07 Q2306.18 1481.2 2308.4 1481.76 Q2310.62 1482.32 2313.1 1482.32 Q2317.1 1482.32 2319.44 1480.21 Q2321.78 1478.1 2321.78 1474.49 Q2321.78 1470.88 2319.44 1468.77 Q2317.1 1466.67 2313.1 1466.67 Q2311.22 1466.67 2309.35 1467.08 Q2307.5 1467.5 2305.55 1468.38 L2305.55 1451.02 Z" fill="#000000" fill-rule="evenodd" fill-opacity="1"></path><path clip-path="url(#clip300)" d="M1005.65 1525.81 L1005.65 1543.66 L1013.73 1543.66 Q1018.22 1543.66 1020.67 1541.34 Q1023.12 1539.02 1023.12 1534.72 Q1023.12 1530.45 1020.67 1528.13 Q1018.22 1525.81 1013.73 1525.81 L1005.65 1525.81 M999.218 1520.52 L1013.73 1520.52 Q1021.72 1520.52 1025.79 1524.15 Q1029.9 1527.75 1029.9 1534.72 Q1029.9 1541.75 1025.79 1545.35 Q1021.72 1548.95 1013.73 1548.95 L1005.65 1548.95 L1005.65 1568.04 L999.218 1568.04 L999.218 1520.52 Z" fill="#000000" fill-rule="evenodd" fill-opacity="1"></path><path clip-path="url(#clip300)" d="M1057.78 1537.87 Q1056.8 1537.3 1055.62 1537.04 Q1054.47 1536.76 1053.07 1536.76 Q1048.11 1536.76 1045.43 1540 Q1042.79 1543.22 1042.79 1549.27 L1042.79 1568.04 L1036.9 1568.04 L1036.9 1532.4 L1042.79 1532.4 L1042.79 1537.93 Q1044.64 1534.69 1047.6 1533.13 Q1050.56 1531.54 1054.79 1531.54 Q1055.4 1531.54 1056.13 1531.63 Q1056.86 1531.7 1057.75 1531.85 L1057.78 1537.87 Z" fill="#000000" fill-rule="evenodd" fill-opacity="1"></path><path clip-path="url(#clip300)" d="M1063.32 1553.98 L1063.32 1532.4 L1069.18 1532.4 L1069.18 1553.75 Q1069.18 1558.81 1071.15 1561.36 Q1073.12 1563.87 1077.07 1563.87 Q1081.81 1563.87 1084.55 1560.85 Q1087.32 1557.83 1087.32 1552.61 L1087.32 1532.4 L1093.18 1532.4 L1093.18 1568.04 L1087.32 1568.04 L1087.32 1562.57 Q1085.19 1565.82 1082.35 1567.41 Q1079.55 1568.97 1075.83 1568.97 Q1069.69 1568.97 1066.5 1565.15 Q1063.32 1561.33 1063.32 1553.98 M1078.06 1531.54 L1078.06 1531.54 Z" fill="#000000" fill-rule="evenodd" fill-opacity="1"></path><path clip-path="url(#clip300)" d="M1134.87 1546.53 L1134.87 1568.04 L1129.01 1568.04 L1129.01 1546.72 Q1129.01 1541.66 1127.04 1539.14 Q1125.07 1536.63 1121.12 1536.63 Q1116.38 1536.63 1113.64 1539.65 Q1110.9 1542.68 1110.9 1547.9 L1110.9 1568.04 L1105.02 1568.04 L1105.02 1532.4 L1110.9 1532.4 L1110.9 1537.93 Q1113 1534.72 1115.84 1533.13 Q1118.7 1531.54 1122.43 1531.54 Q1128.57 1531.54 1131.72 1535.36 Q1134.87 1539.14 1134.87 1546.53 Z" fill="#000000" fill-rule="evenodd" fill-opacity="1"></path><path clip-path="url(#clip300)" d="M1177.04 1548.76 L1177.04 1551.62 L1150.12 1551.62 Q1150.5 1557.67 1153.75 1560.85 Q1157.02 1564 1162.85 1564 Q1166.22 1564 1169.37 1563.17 Q1172.56 1562.35 1175.68 1560.69 L1175.68 1566.23 Q1172.52 1567.57 1169.21 1568.27 Q1165.9 1568.97 1162.5 1568.97 Q1153.97 1568.97 1148.97 1564 Q1144.01 1559.04 1144.01 1550.57 Q1144.01 1541.82 1148.72 1536.69 Q1153.46 1531.54 1161.48 1531.54 Q1168.67 1531.54 1172.84 1536.18 Q1177.04 1540.8 1177.04 1548.76 M1171.19 1547.04 Q1171.12 1542.23 1168.48 1539.37 Q1165.87 1536.5 1161.54 1536.5 Q1156.64 1536.5 1153.68 1539.27 Q1150.75 1542.04 1150.31 1547.07 L1171.19 1547.04 Z" fill="#000000" fill-rule="evenodd" fill-opacity="1"></path><path clip-path="url(#clip300)" d="M1210.11 1537.81 L1210.11 1518.52 L1215.97 1518.52 L1215.97 1568.04 L1210.11 1568.04 L1210.11 1562.7 Q1208.27 1565.88 1205.43 1567.44 Q1202.63 1568.97 1198.69 1568.97 Q1192.23 1568.97 1188.15 1563.81 Q1184.11 1558.65 1184.11 1550.25 Q1184.11 1541.85 1188.15 1536.69 Q1192.23 1531.54 1198.69 1531.54 Q1202.63 1531.54 1205.43 1533.1 Q1208.27 1534.62 1210.11 1537.81 M1190.16 1550.25 Q1190.16 1556.71 1192.8 1560.4 Q1195.47 1564.07 1200.12 1564.07 Q1204.77 1564.07 1207.44 1560.4 Q1210.11 1556.71 1210.11 1550.25 Q1210.11 1543.79 1207.44 1540.13 Q1204.77 1536.44 1200.12 1536.44 Q1195.47 1536.44 1192.8 1540.13 Q1190.16 1543.79 1190.16 1550.25 Z" fill="#000000" fill-rule="evenodd" fill-opacity="1"></path><path clip-path="url(#clip300)" d="M1255.44 1525.81 L1255.44 1543.66 L1263.52 1543.66 Q1268.01 1543.66 1270.46 1541.34 Q1272.91 1539.02 1272.91 1534.72 Q1272.91 1530.45 1270.46 1528.13 Q1268.01 1525.81 1263.52 1525.81 L1255.44 1525.81 M1249.01 1520.52 L1263.52 1520.52 Q1271.51 1520.52 1275.58 1524.15 Q1279.69 1527.75 1279.69 1534.72 Q1279.69 1541.75 1275.58 1545.35 Q1271.51 1548.95 1263.52 1548.95 L1255.44 1548.95 L1255.44 1568.04 L1249.01 1568.04 L1249.01 1520.52 Z" fill="#000000" fill-rule="evenodd" fill-opacity="1"></path><path clip-path="url(#clip300)" d="M1307.57 1537.87 Q1306.59 1537.3 1305.41 1537.04 Q1304.26 1536.76 1302.86 1536.76 Q1297.9 1536.76 1295.22 1540 Q1292.58 1543.22 1292.58 1549.27 L1292.58 1568.04 L1286.69 1568.04 L1286.69 1532.4 L1292.58 1532.4 L1292.58 1537.93 Q1294.43 1534.69 1297.39 1533.13 Q1300.35 1531.54 1304.58 1531.54 Q1305.19 1531.54 1305.92 1531.63 Q1306.65 1531.7 1307.54 1531.85 L1307.57 1537.87 Z" fill="#000000" fill-rule="evenodd" fill-opacity="1"></path><path clip-path="url(#clip300)" d="M1326.1 1536.5 Q1321.39 1536.5 1318.65 1540.19 Q1315.91 1543.85 1315.91 1550.25 Q1315.91 1556.65 1318.62 1560.34 Q1321.35 1564 1326.1 1564 Q1330.78 1564 1333.51 1560.31 Q1336.25 1556.62 1336.25 1550.25 Q1336.25 1543.92 1333.51 1540.23 Q1330.78 1536.5 1326.1 1536.5 M1326.1 1531.54 Q1333.74 1531.54 1338.1 1536.5 Q1342.46 1541.47 1342.46 1550.25 Q1342.46 1559 1338.1 1564 Q1333.74 1568.97 1326.1 1568.97 Q1318.43 1568.97 1314.07 1564 Q1309.74 1559 1309.74 1550.25 Q1309.74 1541.47 1314.07 1536.5 Q1318.43 1531.54 1326.1 1531.54 Z" fill="#000000" fill-rule="evenodd" fill-opacity="1"></path><path clip-path="url(#clip300)" d="M1357.83 1562.7 L1357.83 1581.6 L1351.94 1581.6 L1351.94 1532.4 L1357.83 1532.4 L1357.83 1537.81 Q1359.68 1534.62 1362.48 1533.1 Q1365.31 1531.54 1369.22 1531.54 Q1375.72 1531.54 1379.76 1536.69 Q1383.83 1541.85 1383.83 1550.25 Q1383.83 1558.65 1379.76 1563.81 Q1375.72 1568.97 1369.22 1568.97 Q1365.31 1568.97 1362.48 1567.44 Q1359.68 1565.88 1357.83 1562.7 M1377.75 1550.25 Q1377.75 1543.79 1375.08 1540.13 Q1372.44 1536.44 1367.79 1536.44 Q1363.15 1536.44 1360.47 1540.13 Q1357.83 1543.79 1357.83 1550.25 Q1357.83 1556.71 1360.47 1560.4 Q1363.15 1564.07 1367.79 1564.07 Q1372.44 1564.07 1375.08 1560.4 Q1377.75 1556.71 1377.75 1550.25 Z" fill="#000000" fill-rule="evenodd" fill-opacity="1"></path><path clip-path="url(#clip300)" d="M1407.35 1536.5 Q1402.64 1536.5 1399.91 1540.19 Q1397.17 1543.85 1397.17 1550.25 Q1397.17 1556.65 1399.88 1560.34 Q1402.61 1564 1407.35 1564 Q1412.03 1564 1414.77 1560.31 Q1417.51 1556.62 1417.51 1550.25 Q1417.51 1543.92 1414.77 1540.23 Q1412.03 1536.5 1407.35 1536.5 M1407.35 1531.54 Q1414.99 1531.54 1419.35 1536.5 Q1423.71 1541.47 1423.71 1550.25 Q1423.71 1559 1419.35 1564 Q1414.99 1568.97 1407.35 1568.97 Q1399.68 1568.97 1395.32 1564 Q1391 1559 1391 1550.25 Q1391 1541.47 1395.32 1536.5 Q1399.68 1531.54 1407.35 1531.54 Z" fill="#000000" fill-rule="evenodd" fill-opacity="1"></path><path clip-path="url(#clip300)" d="M1454.08 1537.87 Q1453.09 1537.3 1451.91 1537.04 Q1450.77 1536.76 1449.37 1536.76 Q1444.4 1536.76 1441.73 1540 Q1439.09 1543.22 1439.09 1549.27 L1439.09 1568.04 L1433.2 1568.04 L1433.2 1532.4 L1439.09 1532.4 L1439.09 1537.93 Q1440.93 1534.69 1443.89 1533.13 Q1446.85 1531.54 1451.09 1531.54 Q1451.69 1531.54 1452.42 1531.63 Q1453.16 1531.7 1454.05 1531.85 L1454.08 1537.87 Z" fill="#000000" fill-rule="evenodd" fill-opacity="1"></path><path clip-path="url(#clip300)" d="M1466.01 1522.27 L1466.01 1532.4 L1478.08 1532.4 L1478.08 1536.95 L1466.01 1536.95 L1466.01 1556.3 Q1466.01 1560.66 1467.19 1561.9 Q1468.4 1563.14 1472.06 1563.14 L1478.08 1563.14 L1478.08 1568.04 L1472.06 1568.04 Q1465.28 1568.04 1462.7 1565.53 Q1460.13 1562.98 1460.13 1556.3 L1460.13 1536.95 L1455.83 1536.95 L1455.83 1532.4 L1460.13 1532.4 L1460.13 1522.27 L1466.01 1522.27 Z" fill="#000000" fill-rule="evenodd" fill-opacity="1"></path><path clip-path="url(#clip300)" d="M1485.78 1532.4 L1491.64 1532.4 L1491.64 1568.04 L1485.78 1568.04 L1485.78 1532.4 M1485.78 1518.52 L1491.64 1518.52 L1491.64 1525.93 L1485.78 1525.93 L1485.78 1518.52 Z" fill="#000000" fill-rule="evenodd" fill-opacity="1"></path><path clip-path="url(#clip300)" d="M1517.7 1536.5 Q1512.99 1536.5 1510.26 1540.19 Q1507.52 1543.85 1507.52 1550.25 Q1507.52 1556.65 1510.22 1560.34 Q1512.96 1564 1517.7 1564 Q1522.38 1564 1525.12 1560.31 Q1527.86 1556.62 1527.86 1550.25 Q1527.86 1543.92 1525.12 1540.23 Q1522.38 1536.5 1517.7 1536.5 M1517.7 1531.54 Q1525.34 1531.54 1529.7 1536.5 Q1534.06 1541.47 1534.06 1550.25 Q1534.06 1559 1529.7 1564 Q1525.34 1568.97 1517.7 1568.97 Q1510.03 1568.97 1505.67 1564 Q1501.34 1559 1501.34 1550.25 Q1501.34 1541.47 1505.67 1536.5 Q1510.03 1531.54 1517.7 1531.54 Z" fill="#000000" fill-rule="evenodd" fill-opacity="1"></path><path clip-path="url(#clip300)" d="M1573.4 1546.53 L1573.4 1568.04 L1567.55 1568.04 L1567.55 1546.72 Q1567.55 1541.66 1565.57 1539.14 Q1563.6 1536.63 1559.65 1536.63 Q1554.91 1536.63 1552.17 1539.65 Q1549.44 1542.68 1549.44 1547.9 L1549.44 1568.04 L1543.55 1568.04 L1543.55 1532.4 L1549.44 1532.4 L1549.44 1537.93 Q1551.54 1534.72 1554.37 1533.13 Q1557.24 1531.54 1560.96 1531.54 Q1567.1 1531.54 1570.25 1535.36 Q1573.4 1539.14 1573.4 1546.53 Z" fill="#000000" fill-rule="evenodd" fill-opacity="1"></path><polyline clip-path="url(#clip302)" style="stroke:#000000; stroke-linecap:round; stroke-linejoin:round; stroke-width:2; stroke-opacity:0.1; fill:none" points="
  219.866,1240.52 2352.76,1240.52 
  "></polyline>
<polyline clip-path="url(#clip302)" style="stroke:#000000; stroke-linecap:round; stroke-linejoin:round; stroke-width:2; stroke-opacity:0.1; fill:none" points="
  219.866,953.931 2352.76,953.931 
  "></polyline>
<polyline clip-path="url(#clip302)" style="stroke:#000000; stroke-linecap:round; stroke-linejoin:round; stroke-width:2; stroke-opacity:0.1; fill:none" points="
  219.866,667.341 2352.76,667.341 
  "></polyline>
<polyline clip-path="url(#clip302)" style="stroke:#000000; stroke-linecap:round; stroke-linejoin:round; stroke-width:2; stroke-opacity:0.1; fill:none" points="
  219.866,380.751 2352.76,380.751 
  "></polyline>
<polyline clip-path="url(#clip300)" style="stroke:#000000; stroke-linecap:round; stroke-linejoin:round; stroke-width:4; stroke-opacity:1; fill:none" points="
  219.866,1423.18 219.866,123.472 
  "></polyline>
<polyline clip-path="url(#clip300)" style="stroke:#000000; stroke-linecap:round; stroke-linejoin:round; stroke-width:4; stroke-opacity:1; fill:none" points="
  219.866,1240.52 238.764,1240.52 
  "></polyline>
<polyline clip-path="url(#clip300)" style="stroke:#000000; stroke-linecap:round; stroke-linejoin:round; stroke-width:4; stroke-opacity:1; fill:none" points="
  219.866,953.931 238.764,953.931 
  "></polyline>
<polyline clip-path="url(#clip300)" style="stroke:#000000; stroke-linecap:round; stroke-linejoin:round; stroke-width:4; stroke-opacity:1; fill:none" points="
  219.866,667.341 238.764,667.341 
  "></polyline>
<polyline clip-path="url(#clip300)" style="stroke:#000000; stroke-linecap:round; stroke-linejoin:round; stroke-width:4; stroke-opacity:1; fill:none" points="
  219.866,380.751 238.764,380.751 
  "></polyline>
<path clip-path="url(#clip300)" d="M128.288 1226.32 Q124.677 1226.32 122.848 1229.88 Q121.043 1233.43 121.043 1240.56 Q121.043 1247.66 122.848 1251.23 Q124.677 1254.77 128.288 1254.77 Q131.922 1254.77 133.728 1251.23 Q135.556 1247.66 135.556 1240.56 Q135.556 1233.43 133.728 1229.88 Q131.922 1226.32 128.288 1226.32 M128.288 1222.62 Q134.098 1222.62 137.154 1227.22 Q140.232 1231.81 140.232 1240.56 Q140.232 1249.28 137.154 1253.89 Q134.098 1258.47 128.288 1258.47 Q122.478 1258.47 119.399 1253.89 Q116.343 1249.28 116.343 1240.56 Q116.343 1231.81 119.399 1227.22 Q122.478 1222.62 128.288 1222.62 Z" fill="#000000" fill-rule="evenodd" fill-opacity="1"></path><path clip-path="url(#clip300)" d="M148.45 1251.92 L153.334 1251.92 L153.334 1257.8 L148.45 1257.8 L148.45 1251.92 Z" fill="#000000" fill-rule="evenodd" fill-opacity="1"></path><path clip-path="url(#clip300)" d="M167.547 1253.87 L183.866 1253.87 L183.866 1257.8 L161.922 1257.8 L161.922 1253.87 Q164.584 1251.11 169.167 1246.48 Q173.774 1241.83 174.954 1240.49 Q177.2 1237.96 178.079 1236.23 Q178.982 1234.47 178.982 1232.78 Q178.982 1230.02 177.038 1228.29 Q175.116 1226.55 172.014 1226.55 Q169.815 1226.55 167.362 1227.32 Q164.931 1228.08 162.153 1229.63 L162.153 1224.91 Q164.977 1223.77 167.431 1223.2 Q169.885 1222.62 171.922 1222.62 Q177.292 1222.62 180.487 1225.3 Q183.681 1227.99 183.681 1232.48 Q183.681 1234.61 182.871 1236.53 Q182.084 1238.43 179.977 1241.02 Q179.399 1241.69 176.297 1244.91 Q173.195 1248.1 167.547 1253.87 Z" fill="#000000" fill-rule="evenodd" fill-opacity="1"></path><path clip-path="url(#clip300)" d="M126.205 939.73 Q122.593 939.73 120.765 943.295 Q118.959 946.837 118.959 953.966 Q118.959 961.073 120.765 964.637 Q122.593 968.179 126.205 968.179 Q129.839 968.179 131.644 964.637 Q133.473 961.073 133.473 953.966 Q133.473 946.837 131.644 943.295 Q129.839 939.73 126.205 939.73 M126.205 936.026 Q132.015 936.026 135.07 940.633 Q138.149 945.216 138.149 953.966 Q138.149 962.693 135.07 967.299 Q132.015 971.883 126.205 971.883 Q120.394 971.883 117.316 967.299 Q114.26 962.693 114.26 953.966 Q114.26 945.216 117.316 940.633 Q120.394 936.026 126.205 936.026 Z" fill="#000000" fill-rule="evenodd" fill-opacity="1"></path><path clip-path="url(#clip300)" d="M146.366 965.332 L151.251 965.332 L151.251 971.211 L146.366 971.211 L146.366 965.332 Z" fill="#000000" fill-rule="evenodd" fill-opacity="1"></path><path clip-path="url(#clip300)" d="M174.283 940.725 L162.477 959.174 L174.283 959.174 L174.283 940.725 M173.056 936.651 L178.936 936.651 L178.936 959.174 L183.866 959.174 L183.866 963.063 L178.936 963.063 L178.936 971.211 L174.283 971.211 L174.283 963.063 L158.681 963.063 L158.681 958.549 L173.056 936.651 Z" fill="#000000" fill-rule="evenodd" fill-opacity="1"></path><path clip-path="url(#clip300)" d="M126.529 653.14 Q122.918 653.14 121.089 656.705 Q119.283 660.247 119.283 667.376 Q119.283 674.483 121.089 678.047 Q122.918 681.589 126.529 681.589 Q130.163 681.589 131.968 678.047 Q133.797 674.483 133.797 667.376 Q133.797 660.247 131.968 656.705 Q130.163 653.14 126.529 653.14 M126.529 649.436 Q132.339 649.436 135.394 654.043 Q138.473 658.626 138.473 667.376 Q138.473 676.103 135.394 680.709 Q132.339 685.293 126.529 685.293 Q120.718 685.293 117.64 680.709 Q114.584 676.103 114.584 667.376 Q114.584 658.626 117.64 654.043 Q120.718 649.436 126.529 649.436 Z" fill="#000000" fill-rule="evenodd" fill-opacity="1"></path><path clip-path="url(#clip300)" d="M146.691 678.742 L151.575 678.742 L151.575 684.621 L146.691 684.621 L146.691 678.742 Z" fill="#000000" fill-rule="evenodd" fill-opacity="1"></path><path clip-path="url(#clip300)" d="M172.339 665.478 Q169.19 665.478 167.339 667.631 Q165.51 669.784 165.51 673.534 Q165.51 677.26 167.339 679.436 Q169.19 681.589 172.339 681.589 Q175.487 681.589 177.315 679.436 Q179.167 677.26 179.167 673.534 Q179.167 669.784 177.315 667.631 Q175.487 665.478 172.339 665.478 M181.621 650.825 L181.621 655.085 Q179.862 654.251 178.056 653.811 Q176.274 653.372 174.514 653.372 Q169.885 653.372 167.431 656.497 Q165.001 659.622 164.653 665.941 Q166.019 663.927 168.079 662.862 Q170.139 661.774 172.616 661.774 Q177.825 661.774 180.834 664.946 Q183.866 668.094 183.866 673.534 Q183.866 678.858 180.718 682.075 Q177.57 685.293 172.339 685.293 Q166.343 685.293 163.172 680.709 Q160.001 676.103 160.001 667.376 Q160.001 659.182 163.89 654.321 Q167.778 649.436 174.329 649.436 Q176.089 649.436 177.871 649.784 Q179.676 650.131 181.621 650.825 Z" fill="#000000" fill-rule="evenodd" fill-opacity="1"></path><path clip-path="url(#clip300)" d="M126.783 366.55 Q123.172 366.55 121.343 370.115 Q119.538 373.657 119.538 380.786 Q119.538 387.893 121.343 391.457 Q123.172 394.999 126.783 394.999 Q130.417 394.999 132.223 391.457 Q134.052 387.893 134.052 380.786 Q134.052 373.657 132.223 370.115 Q130.417 366.55 126.783 366.55 M126.783 362.846 Q132.593 362.846 135.649 367.453 Q138.728 372.036 138.728 380.786 Q138.728 389.513 135.649 394.119 Q132.593 398.703 126.783 398.703 Q120.973 398.703 117.894 394.119 Q114.839 389.513 114.839 380.786 Q114.839 372.036 117.894 367.453 Q120.973 362.846 126.783 362.846 Z" fill="#000000" fill-rule="evenodd" fill-opacity="1"></path><path clip-path="url(#clip300)" d="M146.945 392.152 L151.829 392.152 L151.829 398.031 L146.945 398.031 L146.945 392.152 Z" fill="#000000" fill-rule="evenodd" fill-opacity="1"></path><path clip-path="url(#clip300)" d="M172.014 381.62 Q168.681 381.62 166.76 383.402 Q164.862 385.184 164.862 388.309 Q164.862 391.434 166.76 393.217 Q168.681 394.999 172.014 394.999 Q175.348 394.999 177.269 393.217 Q179.19 391.411 179.19 388.309 Q179.19 385.184 177.269 383.402 Q175.371 381.62 172.014 381.62 M167.339 379.629 Q164.329 378.888 162.64 376.828 Q160.973 374.768 160.973 371.805 Q160.973 367.661 163.913 365.254 Q166.876 362.846 172.014 362.846 Q177.176 362.846 180.116 365.254 Q183.056 367.661 183.056 371.805 Q183.056 374.768 181.366 376.828 Q179.7 378.888 176.714 379.629 Q180.093 380.416 181.968 382.707 Q183.866 384.999 183.866 388.309 Q183.866 393.332 180.788 396.018 Q177.732 398.703 172.014 398.703 Q166.297 398.703 163.218 396.018 Q160.163 393.332 160.163 388.309 Q160.163 384.999 162.061 382.707 Q163.959 380.416 167.339 379.629 M165.626 372.245 Q165.626 374.93 167.292 376.434 Q168.982 377.939 172.014 377.939 Q175.024 377.939 176.714 376.434 Q178.426 374.93 178.426 372.245 Q178.426 369.559 176.714 368.055 Q175.024 366.55 172.014 366.55 Q168.982 366.55 167.292 368.055 Q165.626 369.559 165.626 372.245 Z" fill="#000000" fill-rule="evenodd" fill-opacity="1"></path><path clip-path="url(#clip300)" d="M64.0042 913.101 L16.4842 931.243 L16.4842 924.527 L56.4926 909.473 L16.4842 894.386 L16.4842 887.702 L64.0042 905.812 L64.0042 913.101 Z" fill="#000000" fill-rule="evenodd" fill-opacity="1"></path><path clip-path="url(#clip300)" d="M46.0847 869.878 Q46.0847 876.976 47.7079 879.713 Q49.3312 882.45 53.2461 882.45 Q56.3653 882.45 58.2114 880.413 Q60.0256 878.344 60.0256 874.811 Q60.0256 869.941 56.5881 867.013 Q53.1188 864.053 47.3897 864.053 L46.0847 864.053 L46.0847 869.878 M43.6657 858.197 L64.0042 858.197 L64.0042 864.053 L58.5933 864.053 Q61.8398 866.058 63.3994 869.05 Q64.9272 872.042 64.9272 876.371 Q64.9272 881.845 61.8716 885.092 Q58.7843 888.307 53.6281 888.307 Q47.6125 888.307 44.5569 884.296 Q41.5014 880.254 41.5014 872.265 L41.5014 864.053 L40.9285 864.053 Q36.8862 864.053 34.6901 866.727 Q32.4621 869.369 32.4621 874.175 Q32.4621 877.23 33.1941 880.127 Q33.9262 883.023 35.3903 885.697 L29.9795 885.697 Q28.7381 882.482 28.1334 879.458 Q27.4968 876.435 27.4968 873.57 Q27.4968 865.836 31.5072 862.016 Q35.5176 858.197 43.6657 858.197 Z" fill="#000000" fill-rule="evenodd" fill-opacity="1"></path><path clip-path="url(#clip300)" d="M14.479 846.134 L14.479 840.277 L64.0042 840.277 L64.0042 846.134 L14.479 846.134 Z" fill="#000000" fill-rule="evenodd" fill-opacity="1"></path><path clip-path="url(#clip300)" d="M28.3562 828.023 L28.3562 822.167 L64.0042 822.167 L64.0042 828.023 L28.3562 828.023 M14.479 828.023 L14.479 822.167 L21.895 822.167 L21.895 828.023 L14.479 828.023 Z" fill="#000000" fill-rule="evenodd" fill-opacity="1"></path><path clip-path="url(#clip300)" d="M33.7671 786.455 L14.479 786.455 L14.479 780.599 L64.0042 780.599 L64.0042 786.455 L58.657 786.455 Q61.8398 788.301 63.3994 791.134 Q64.9272 793.935 64.9272 797.882 Q64.9272 804.343 59.771 808.417 Q54.6147 812.459 46.212 812.459 Q37.8093 812.459 32.6531 808.417 Q27.4968 804.343 27.4968 797.882 Q27.4968 793.935 29.0564 791.134 Q30.5842 788.301 33.7671 786.455 M46.212 806.412 Q52.6732 806.412 56.3653 803.77 Q60.0256 801.096 60.0256 796.449 Q60.0256 791.802 56.3653 789.129 Q52.6732 786.455 46.212 786.455 Q39.7508 786.455 36.0905 789.129 Q32.3984 791.802 32.3984 796.449 Q32.3984 801.096 36.0905 803.77 Q39.7508 806.412 46.212 806.412 Z" fill="#000000" fill-rule="evenodd" fill-opacity="1"></path><path clip-path="url(#clip300)" d="M46.0847 752.335 Q46.0847 759.433 47.7079 762.17 Q49.3312 764.907 53.2461 764.907 Q56.3653 764.907 58.2114 762.87 Q60.0256 760.801 60.0256 757.268 Q60.0256 752.399 56.5881 749.47 Q53.1188 746.51 47.3897 746.51 L46.0847 746.51 L46.0847 752.335 M43.6657 740.654 L64.0042 740.654 L64.0042 746.51 L58.5933 746.51 Q61.8398 748.516 63.3994 751.508 Q64.9272 754.499 64.9272 758.828 Q64.9272 764.303 61.8716 767.549 Q58.7843 770.764 53.6281 770.764 Q47.6125 770.764 44.5569 766.753 Q41.5014 762.711 41.5014 754.722 L41.5014 746.51 L40.9285 746.51 Q36.8862 746.51 34.6901 749.184 Q32.4621 751.826 32.4621 756.632 Q32.4621 759.687 33.1941 762.584 Q33.9262 765.48 35.3903 768.154 L29.9795 768.154 Q28.7381 764.939 28.1334 761.915 Q27.4968 758.892 27.4968 756.027 Q27.4968 748.293 31.5072 744.473 Q35.5176 740.654 43.6657 740.654 Z" fill="#000000" fill-rule="evenodd" fill-opacity="1"></path><path clip-path="url(#clip300)" d="M18.2347 722.798 L28.3562 722.798 L28.3562 710.735 L32.9077 710.735 L32.9077 722.798 L52.2594 722.798 Q56.6199 722.798 57.8613 721.621 Q59.1026 720.411 59.1026 716.751 L59.1026 710.735 L64.0042 710.735 L64.0042 716.751 Q64.0042 723.53 61.4897 726.108 Q58.9434 728.686 52.2594 728.686 L32.9077 728.686 L32.9077 732.983 L28.3562 732.983 L28.3562 728.686 L18.2347 728.686 L18.2347 722.798 Z" fill="#000000" fill-rule="evenodd" fill-opacity="1"></path><path clip-path="url(#clip300)" d="M28.3562 703.033 L28.3562 697.176 L64.0042 697.176 L64.0042 703.033 L28.3562 703.033 M14.479 703.033 L14.479 697.176 L21.895 697.176 L21.895 703.033 L14.479 703.033 Z" fill="#000000" fill-rule="evenodd" fill-opacity="1"></path><path clip-path="url(#clip300)" d="M32.4621 671.109 Q32.4621 675.819 36.1542 678.557 Q39.8145 681.294 46.212 681.294 Q52.6095 681.294 56.3017 678.588 Q59.9619 675.851 59.9619 671.109 Q59.9619 666.43 56.2698 663.693 Q52.5777 660.955 46.212 660.955 Q39.8781 660.955 36.186 663.693 Q32.4621 666.43 32.4621 671.109 M27.4968 671.109 Q27.4968 663.47 32.4621 659.109 Q37.4273 654.749 46.212 654.749 Q54.9649 654.749 59.9619 659.109 Q64.9272 663.47 64.9272 671.109 Q64.9272 678.779 59.9619 683.14 Q54.9649 687.469 46.212 687.469 Q37.4273 687.469 32.4621 683.14 Q27.4968 678.779 27.4968 671.109 Z" fill="#000000" fill-rule="evenodd" fill-opacity="1"></path><path clip-path="url(#clip300)" d="M42.4881 615.409 L64.0042 615.409 L64.0042 621.265 L42.679 621.265 Q37.6183 621.265 35.1038 623.239 Q32.5894 625.212 32.5894 629.159 Q32.5894 633.901 35.6131 636.638 Q38.6368 639.376 43.8567 639.376 L64.0042 639.376 L64.0042 645.264 L28.3562 645.264 L28.3562 639.376 L33.8944 639.376 Q30.6797 637.275 29.0883 634.442 Q27.4968 631.578 27.4968 627.854 Q27.4968 621.711 31.3163 618.56 Q35.1038 615.409 42.4881 615.409 Z" fill="#000000" fill-rule="evenodd" fill-opacity="1"></path><path clip-path="url(#clip300)" d="M452.939 72.576 L429.849 12.096 L438.396 12.096 L457.557 63.0159 L476.758 12.096 L485.265 12.096 L462.215 72.576 L452.939 72.576 Z" fill="#000000" fill-rule="evenodd" fill-opacity="1"></path><path clip-path="url(#clip300)" d="M507.95 49.7694 Q498.917 49.7694 495.433 51.8354 Q491.949 53.9013 491.949 58.8839 Q491.949 62.8538 494.542 65.2034 Q497.175 67.5124 501.671 67.5124 Q507.869 67.5124 511.596 63.1374 Q515.363 58.7219 515.363 51.4303 L515.363 49.7694 L507.95 49.7694 M522.817 46.6907 L522.817 72.576 L515.363 72.576 L515.363 65.6895 Q512.811 69.8214 509.003 71.8063 Q505.195 73.7508 499.686 73.7508 Q492.719 73.7508 488.587 69.8619 Q484.495 65.9325 484.495 59.3701 Q484.495 51.7138 489.599 47.825 Q494.744 43.9361 504.912 43.9361 L515.363 43.9361 L515.363 43.2069 Q515.363 38.0623 511.96 35.2672 Q508.598 32.4315 502.481 32.4315 Q498.593 32.4315 494.906 33.3632 Q491.22 34.295 487.817 36.1584 L487.817 29.2718 Q491.909 27.692 495.757 26.9223 Q499.605 26.1121 503.251 26.1121 Q513.095 26.1121 517.956 31.2163 Q522.817 36.3204 522.817 46.6907 Z" fill="#000000" fill-rule="evenodd" fill-opacity="1"></path><path clip-path="url(#clip300)" d="M575.884 45.1919 L575.884 72.576 L568.43 72.576 L568.43 45.4349 Q568.43 38.994 565.919 35.7938 Q563.407 32.5936 558.384 32.5936 Q552.348 32.5936 548.864 36.4419 Q545.38 40.2903 545.38 46.9338 L545.38 72.576 L537.886 72.576 L537.886 27.2059 L545.38 27.2059 L545.38 34.2544 Q548.054 30.163 551.659 28.1376 Q555.305 26.1121 560.045 26.1121 Q567.863 26.1121 571.873 30.9732 Q575.884 35.7938 575.884 45.1919 Z" fill="#000000" fill-rule="evenodd" fill-opacity="1"></path><path clip-path="url(#clip300)" d="M590.751 27.2059 L598.204 27.2059 L598.204 72.576 L590.751 72.576 L590.751 27.2059 M590.751 9.54393 L598.204 9.54393 L598.204 18.9825 L590.751 18.9825 L590.751 9.54393 Z" fill="#000000" fill-rule="evenodd" fill-opacity="1"></path><path clip-path="url(#clip300)" d="M613.8 9.54393 L621.254 9.54393 L621.254 72.576 L613.8 72.576 L613.8 9.54393 Z" fill="#000000" fill-rule="evenodd" fill-opacity="1"></path><path clip-path="url(#clip300)" d="M636.85 9.54393 L644.304 9.54393 L644.304 72.576 L636.85 72.576 L636.85 9.54393 Z" fill="#000000" fill-rule="evenodd" fill-opacity="1"></path><path clip-path="url(#clip300)" d="M680.519 49.7694 Q671.485 49.7694 668.001 51.8354 Q664.518 53.9013 664.518 58.8839 Q664.518 62.8538 667.11 65.2034 Q669.743 67.5124 674.24 67.5124 Q680.438 67.5124 684.164 63.1374 Q687.932 58.7219 687.932 51.4303 L687.932 49.7694 L680.519 49.7694 M695.385 46.6907 L695.385 72.576 L687.932 72.576 L687.932 65.6895 Q685.38 69.8214 681.572 71.8063 Q677.764 73.7508 672.255 73.7508 Q665.287 73.7508 661.155 69.8619 Q657.064 65.9325 657.064 59.3701 Q657.064 51.7138 662.168 47.825 Q667.313 43.9361 677.48 43.9361 L687.932 43.9361 L687.932 43.2069 Q687.932 38.0623 684.529 35.2672 Q681.167 32.4315 675.05 32.4315 Q671.161 32.4315 667.475 33.3632 Q663.788 34.295 660.386 36.1584 L660.386 29.2718 Q664.477 27.692 668.325 26.9223 Q672.174 26.1121 675.82 26.1121 Q685.663 26.1121 690.524 31.2163 Q695.385 36.3204 695.385 46.6907 Z" fill="#000000" fill-rule="evenodd" fill-opacity="1"></path><path clip-path="url(#clip300)" d="M731.763 27.2059 L739.662 27.2059 L753.84 65.2844 L768.018 27.2059 L775.917 27.2059 L758.904 72.576 L748.776 72.576 L731.763 27.2059 Z" fill="#000000" fill-rule="evenodd" fill-opacity="1"></path><path clip-path="url(#clip300)" d="M815.13 28.5427 L815.13 35.5912 Q811.97 33.9709 808.568 33.1607 Q805.165 32.3505 801.519 32.3505 Q795.969 32.3505 793.174 34.0519 Q790.42 35.7533 790.42 39.156 Q790.42 41.7486 792.405 43.2475 Q794.39 44.7058 800.385 46.0426 L802.937 46.6097 Q810.877 48.3111 814.198 51.4303 Q817.561 54.509 817.561 60.0587 Q817.561 66.3781 812.538 70.0644 Q807.555 73.7508 798.805 73.7508 Q795.159 73.7508 791.189 73.0216 Q787.26 72.3329 782.885 70.9151 L782.885 63.2184 Q787.017 65.3654 791.027 66.4591 Q795.038 67.5124 798.967 67.5124 Q804.233 67.5124 807.069 65.73 Q809.904 63.9071 809.904 60.6258 Q809.904 57.5877 807.839 55.9673 Q805.813 54.3469 798.886 52.8481 L796.293 52.2405 Q789.366 50.7821 786.288 47.7845 Q783.209 44.7463 783.209 39.4801 Q783.209 33.0797 787.746 29.5959 Q792.283 26.1121 800.628 26.1121 Q804.76 26.1121 808.406 26.7198 Q812.051 27.3274 815.13 28.5427 Z" fill="#000000" fill-rule="evenodd" fill-opacity="1"></path><path clip-path="url(#clip300)" d="M830.483 62.2867 L839.03 62.2867 L839.03 72.576 L830.483 72.576 L830.483 62.2867 Z" fill="#000000" fill-rule="evenodd" fill-opacity="1"></path><path clip-path="url(#clip300)" d="M890.68 18.8205 L890.68 65.8515 L900.564 65.8515 Q913.081 65.8515 918.874 60.1802 Q924.707 54.509 924.707 42.2752 Q924.707 30.1225 918.874 24.4918 Q913.081 18.8205 900.564 18.8205 L890.68 18.8205 M882.497 12.096 L899.308 12.096 Q916.889 12.096 925.112 19.4281 Q933.336 26.7198 933.336 42.2752 Q933.336 57.9117 925.072 65.2439 Q916.808 72.576 899.308 72.576 L882.497 72.576 L882.497 12.096 Z" fill="#000000" fill-rule="evenodd" fill-opacity="1"></path><path clip-path="url(#clip300)" d="M984.863 48.0275 L984.863 51.6733 L950.592 51.6733 Q951.079 59.3701 955.21 63.421 Q959.383 67.4314 966.796 67.4314 Q971.09 67.4314 975.1 66.3781 Q979.151 65.3249 983.121 63.2184 L983.121 70.267 Q979.111 71.9684 974.898 72.8596 Q970.685 73.7508 966.35 73.7508 Q955.494 73.7508 949.134 67.4314 Q942.815 61.1119 942.815 50.3365 Q942.815 39.1965 948.81 32.6746 Q954.846 26.1121 965.054 26.1121 Q974.209 26.1121 979.516 32.0264 Q984.863 37.9003 984.863 48.0275 M977.409 45.84 Q977.328 39.7232 973.966 36.0774 Q970.644 32.4315 965.135 32.4315 Q958.897 32.4315 955.129 35.9558 Q951.403 39.4801 950.835 45.8805 L977.409 45.84 Z" fill="#000000" fill-rule="evenodd" fill-opacity="1"></path><path clip-path="url(#clip300)" d="M1034.81 45.1919 L1034.81 72.576 L1027.36 72.576 L1027.36 45.4349 Q1027.36 38.994 1024.85 35.7938 Q1022.33 32.5936 1017.31 32.5936 Q1011.27 32.5936 1007.79 36.4419 Q1004.31 40.2903 1004.31 46.9338 L1004.31 72.576 L996.813 72.576 L996.813 27.2059 L1004.31 27.2059 L1004.31 34.2544 Q1006.98 30.163 1010.59 28.1376 Q1014.23 26.1121 1018.97 26.1121 Q1026.79 26.1121 1030.8 30.9732 Q1034.81 35.7938 1034.81 45.1919 Z" fill="#000000" fill-rule="evenodd" fill-opacity="1"></path><path clip-path="url(#clip300)" d="M1078.6 28.5427 L1078.6 35.5912 Q1075.44 33.9709 1072.04 33.1607 Q1068.64 32.3505 1064.99 32.3505 Q1059.44 32.3505 1056.65 34.0519 Q1053.89 35.7533 1053.89 39.156 Q1053.89 41.7486 1055.88 43.2475 Q1057.86 44.7058 1063.86 46.0426 L1066.41 46.6097 Q1074.35 48.3111 1077.67 51.4303 Q1081.03 54.509 1081.03 60.0587 Q1081.03 66.3781 1076.01 70.0644 Q1071.03 73.7508 1062.28 73.7508 Q1058.63 73.7508 1054.66 73.0216 Q1050.73 72.3329 1046.36 70.9151 L1046.36 63.2184 Q1050.49 65.3654 1054.5 66.4591 Q1058.51 67.5124 1062.44 67.5124 Q1067.7 67.5124 1070.54 65.73 Q1073.38 63.9071 1073.38 60.6258 Q1073.38 57.5877 1071.31 55.9673 Q1069.28 54.3469 1062.36 52.8481 L1059.76 52.2405 Q1052.84 50.7821 1049.76 47.7845 Q1046.68 44.7463 1046.68 39.4801 Q1046.68 33.0797 1051.22 29.5959 Q1055.75 26.1121 1064.1 26.1121 Q1068.23 26.1121 1071.88 26.7198 Q1075.52 27.3274 1078.6 28.5427 Z" fill="#000000" fill-rule="evenodd" fill-opacity="1"></path><path clip-path="url(#clip300)" d="M1131.71 48.0275 L1131.71 51.6733 L1097.44 51.6733 Q1097.92 59.3701 1102.06 63.421 Q1106.23 67.4314 1113.64 67.4314 Q1117.94 67.4314 1121.95 66.3781 Q1126 65.3249 1129.97 63.2184 L1129.97 70.267 Q1125.96 71.9684 1121.74 72.8596 Q1117.53 73.7508 1113.2 73.7508 Q1102.34 73.7508 1095.98 67.4314 Q1089.66 61.1119 1089.66 50.3365 Q1089.66 39.1965 1095.66 32.6746 Q1101.69 26.1121 1111.9 26.1121 Q1121.05 26.1121 1126.36 32.0264 Q1131.71 37.9003 1131.71 48.0275 M1124.25 45.84 Q1124.17 39.7232 1120.81 36.0774 Q1117.49 32.4315 1111.98 32.4315 Q1105.74 32.4315 1101.97 35.9558 Q1098.25 39.4801 1097.68 45.8805 L1124.25 45.84 Z" fill="#000000" fill-rule="evenodd" fill-opacity="1"></path><path clip-path="url(#clip300)" d="M1152.45 18.8205 L1152.45 41.5461 L1162.74 41.5461 Q1168.45 41.5461 1171.57 38.5889 Q1174.69 35.6318 1174.69 30.163 Q1174.69 24.7348 1171.57 21.7777 Q1168.45 18.8205 1162.74 18.8205 L1152.45 18.8205 M1144.27 12.096 L1162.74 12.096 Q1172.91 12.096 1178.09 16.714 Q1183.32 21.2916 1183.32 30.163 Q1183.32 39.1155 1178.09 43.6931 Q1172.91 48.2706 1162.74 48.2706 L1152.45 48.2706 L1152.45 72.576 L1144.27 72.576 L1144.27 12.096 Z" fill="#000000" fill-rule="evenodd" fill-opacity="1"></path><path clip-path="url(#clip300)" d="M1208.59 32.4315 Q1202.6 32.4315 1199.12 37.1306 Q1195.63 41.7891 1195.63 49.9314 Q1195.63 58.0738 1199.07 62.7728 Q1202.56 67.4314 1208.59 67.4314 Q1214.55 67.4314 1218.03 62.7323 Q1221.52 58.0333 1221.52 49.9314 Q1221.52 41.8701 1218.03 37.1711 Q1214.55 32.4315 1208.59 32.4315 M1208.59 26.1121 Q1218.32 26.1121 1223.87 32.4315 Q1229.42 38.7509 1229.42 49.9314 Q1229.42 61.0714 1223.87 67.4314 Q1218.32 73.7508 1208.59 73.7508 Q1198.83 73.7508 1193.28 67.4314 Q1187.77 61.0714 1187.77 49.9314 Q1187.77 38.7509 1193.28 32.4315 Q1198.83 26.1121 1208.59 26.1121 Z" fill="#000000" fill-rule="evenodd" fill-opacity="1"></path><path clip-path="url(#clip300)" d="M1270.69 28.5427 L1270.69 35.5912 Q1267.54 33.9709 1264.13 33.1607 Q1260.73 32.3505 1257.08 32.3505 Q1251.53 32.3505 1248.74 34.0519 Q1245.98 35.7533 1245.98 39.156 Q1245.98 41.7486 1247.97 43.2475 Q1249.95 44.7058 1255.95 46.0426 L1258.5 46.6097 Q1266.44 48.3111 1269.76 51.4303 Q1273.13 54.509 1273.13 60.0587 Q1273.13 66.3781 1268.1 70.0644 Q1263.12 73.7508 1254.37 73.7508 Q1250.72 73.7508 1246.75 73.0216 Q1242.82 72.3329 1238.45 70.9151 L1238.45 63.2184 Q1242.58 65.3654 1246.59 66.4591 Q1250.6 67.5124 1254.53 67.5124 Q1259.8 67.5124 1262.63 65.73 Q1265.47 63.9071 1265.47 60.6258 Q1265.47 57.5877 1263.4 55.9673 Q1261.38 54.3469 1254.45 52.8481 L1251.86 52.2405 Q1244.93 50.7821 1241.85 47.7845 Q1238.77 44.7463 1238.77 39.4801 Q1238.77 33.0797 1243.31 29.5959 Q1247.85 26.1121 1256.19 26.1121 Q1260.32 26.1121 1263.97 26.7198 Q1267.62 27.3274 1270.69 28.5427 Z" fill="#000000" fill-rule="evenodd" fill-opacity="1"></path><path clip-path="url(#clip300)" d="M1319.87 18.8205 L1319.87 41.5461 L1330.16 41.5461 Q1335.87 41.5461 1338.99 38.5889 Q1342.11 35.6318 1342.11 30.163 Q1342.11 24.7348 1338.99 21.7777 Q1335.87 18.8205 1330.16 18.8205 L1319.87 18.8205 M1311.69 12.096 L1330.16 12.096 Q1340.33 12.096 1345.52 16.714 Q1350.74 21.2916 1350.74 30.163 Q1350.74 39.1155 1345.52 43.6931 Q1340.33 48.2706 1330.16 48.2706 L1319.87 48.2706 L1319.87 72.576 L1311.69 72.576 L1311.69 12.096 Z" fill="#000000" fill-rule="evenodd" fill-opacity="1"></path><path clip-path="url(#clip300)" d="M1386.23 34.1734 Q1384.97 33.4443 1383.47 33.1202 Q1382.01 32.7556 1380.23 32.7556 Q1373.91 32.7556 1370.51 36.8875 Q1367.15 40.9789 1367.15 48.6757 L1367.15 72.576 L1359.65 72.576 L1359.65 27.2059 L1367.15 27.2059 L1367.15 34.2544 Q1369.5 30.1225 1373.26 28.1376 Q1377.03 26.1121 1382.42 26.1121 Q1383.19 26.1121 1384.12 26.2337 Q1385.05 26.3147 1386.19 26.5172 L1386.23 34.1734 Z" fill="#000000" fill-rule="evenodd" fill-opacity="1"></path><path clip-path="url(#clip300)" d="M1393.28 54.671 L1393.28 27.2059 L1400.73 27.2059 L1400.73 54.3874 Q1400.73 60.8284 1403.24 64.0691 Q1405.75 67.2693 1410.78 67.2693 Q1416.81 67.2693 1420.29 63.421 Q1423.82 59.5726 1423.82 52.9291 L1423.82 27.2059 L1431.27 27.2059 L1431.27 72.576 L1423.82 72.576 L1423.82 65.6084 Q1421.1 69.7404 1417.5 71.7658 Q1413.93 73.7508 1409.2 73.7508 Q1401.38 73.7508 1397.33 68.8897 Q1393.28 64.0286 1393.28 54.671 M1412.03 26.1121 L1412.03 26.1121 Z" fill="#000000" fill-rule="evenodd" fill-opacity="1"></path><path clip-path="url(#clip300)" d="M1484.34 45.1919 L1484.34 72.576 L1476.89 72.576 L1476.89 45.4349 Q1476.89 38.994 1474.37 35.7938 Q1471.86 32.5936 1466.84 32.5936 Q1460.8 32.5936 1457.32 36.4419 Q1453.84 40.2903 1453.84 46.9338 L1453.84 72.576 L1446.34 72.576 L1446.34 27.2059 L1453.84 27.2059 L1453.84 34.2544 Q1456.51 30.163 1460.12 28.1376 Q1463.76 26.1121 1468.5 26.1121 Q1476.32 26.1121 1480.33 30.9732 Q1484.34 35.7938 1484.34 45.1919 Z" fill="#000000" fill-rule="evenodd" fill-opacity="1"></path><path clip-path="url(#clip300)" d="M1538.01 48.0275 L1538.01 51.6733 L1503.74 51.6733 Q1504.23 59.3701 1508.36 63.421 Q1512.53 67.4314 1519.95 67.4314 Q1524.24 67.4314 1528.25 66.3781 Q1532.3 65.3249 1536.27 63.2184 L1536.27 70.267 Q1532.26 71.9684 1528.05 72.8596 Q1523.84 73.7508 1519.5 73.7508 Q1508.64 73.7508 1502.29 67.4314 Q1495.97 61.1119 1495.97 50.3365 Q1495.97 39.1965 1501.96 32.6746 Q1508 26.1121 1518.21 26.1121 Q1527.36 26.1121 1532.67 32.0264 Q1538.01 37.9003 1538.01 48.0275 M1530.56 45.84 Q1530.48 39.7232 1527.12 36.0774 Q1523.8 32.4315 1518.29 32.4315 Q1512.05 32.4315 1508.28 35.9558 Q1504.55 39.4801 1503.99 45.8805 L1530.56 45.84 Z" fill="#000000" fill-rule="evenodd" fill-opacity="1"></path><path clip-path="url(#clip300)" d="M1580.1 34.0924 L1580.1 9.54393 L1587.56 9.54393 L1587.56 72.576 L1580.1 72.576 L1580.1 65.7705 Q1577.75 69.8214 1574.15 71.8063 Q1570.58 73.7508 1565.56 73.7508 Q1557.34 73.7508 1552.15 67.1883 Q1547.01 60.6258 1547.01 49.9314 Q1547.01 39.2371 1552.15 32.6746 Q1557.34 26.1121 1565.56 26.1121 Q1570.58 26.1121 1574.15 28.0971 Q1577.75 30.0415 1580.1 34.0924 M1554.7 49.9314 Q1554.7 58.1548 1558.07 62.8538 Q1561.47 67.5124 1567.38 67.5124 Q1573.3 67.5124 1576.7 62.8538 Q1580.1 58.1548 1580.1 49.9314 Q1580.1 41.7081 1576.7 37.0496 Q1573.3 32.3505 1567.38 32.3505 Q1561.47 32.3505 1558.07 37.0496 Q1554.7 41.7081 1554.7 49.9314 Z" fill="#000000" fill-rule="evenodd" fill-opacity="1"></path><path clip-path="url(#clip300)" d="M1637.79 18.8205 L1637.79 41.5461 L1648.08 41.5461 Q1653.79 41.5461 1656.91 38.5889 Q1660.03 35.6318 1660.03 30.163 Q1660.03 24.7348 1656.91 21.7777 Q1653.79 18.8205 1648.08 18.8205 L1637.79 18.8205 M1629.6 12.096 L1648.08 12.096 Q1658.24 12.096 1663.43 16.714 Q1668.66 21.2916 1668.66 30.163 Q1668.66 39.1155 1663.43 43.6931 Q1658.24 48.2706 1648.08 48.2706 L1637.79 48.2706 L1637.79 72.576 L1629.6 72.576 L1629.6 12.096 Z" fill="#000000" fill-rule="evenodd" fill-opacity="1"></path><path clip-path="url(#clip300)" d="M1715.16 48.0275 L1715.16 51.6733 L1680.89 51.6733 Q1681.38 59.3701 1685.51 63.421 Q1689.68 67.4314 1697.09 67.4314 Q1701.39 67.4314 1705.4 66.3781 Q1709.45 65.3249 1713.42 63.2184 L1713.42 70.267 Q1709.41 71.9684 1705.19 72.8596 Q1700.98 73.7508 1696.65 73.7508 Q1685.79 73.7508 1679.43 67.4314 Q1673.11 61.1119 1673.11 50.3365 Q1673.11 39.1965 1679.11 32.6746 Q1685.14 26.1121 1695.35 26.1121 Q1704.51 26.1121 1709.81 32.0264 Q1715.16 37.9003 1715.16 48.0275 M1707.71 45.84 Q1707.63 39.7232 1704.26 36.0774 Q1700.94 32.4315 1695.43 32.4315 Q1689.19 32.4315 1685.43 35.9558 Q1681.7 39.4801 1681.13 45.8805 L1707.71 45.84 Z" fill="#000000" fill-rule="evenodd" fill-opacity="1"></path><path clip-path="url(#clip300)" d="M1753.68 34.1734 Q1752.43 33.4443 1750.93 33.1202 Q1749.47 32.7556 1747.69 32.7556 Q1741.37 32.7556 1737.97 36.8875 Q1734.6 40.9789 1734.6 48.6757 L1734.6 72.576 L1727.11 72.576 L1727.11 27.2059 L1734.6 27.2059 L1734.6 34.2544 Q1736.95 30.1225 1740.72 28.1376 Q1744.49 26.1121 1749.88 26.1121 Q1750.65 26.1121 1751.58 26.2337 Q1752.51 26.3147 1753.64 26.5172 L1753.68 34.1734 Z" fill="#000000" fill-rule="evenodd" fill-opacity="1"></path><path clip-path="url(#clip300)" d="M1784.47 9.54393 L1784.47 15.7418 L1777.34 15.7418 Q1773.33 15.7418 1771.75 17.3622 Q1770.21 18.9825 1770.21 23.1955 L1770.21 27.2059 L1782.49 27.2059 L1782.49 32.9987 L1770.21 32.9987 L1770.21 72.576 L1762.72 72.576 L1762.72 32.9987 L1755.59 32.9987 L1755.59 27.2059 L1762.72 27.2059 L1762.72 24.0462 Q1762.72 16.471 1766.24 13.0277 Q1769.77 9.54393 1777.42 9.54393 L1784.47 9.54393 Z" fill="#000000" fill-rule="evenodd" fill-opacity="1"></path><path clip-path="url(#clip300)" d="M1808.29 32.4315 Q1802.3 32.4315 1798.81 37.1306 Q1795.33 41.7891 1795.33 49.9314 Q1795.33 58.0738 1798.77 62.7728 Q1802.25 67.4314 1808.29 67.4314 Q1814.25 67.4314 1817.73 62.7323 Q1821.21 58.0333 1821.21 49.9314 Q1821.21 41.8701 1817.73 37.1711 Q1814.25 32.4315 1808.29 32.4315 M1808.29 26.1121 Q1818.01 26.1121 1823.56 32.4315 Q1829.11 38.7509 1829.11 49.9314 Q1829.11 61.0714 1823.56 67.4314 Q1818.01 73.7508 1808.29 73.7508 Q1798.53 73.7508 1792.98 67.4314 Q1787.47 61.0714 1787.47 49.9314 Q1787.47 38.7509 1792.98 32.4315 Q1798.53 26.1121 1808.29 26.1121 Z" fill="#000000" fill-rule="evenodd" fill-opacity="1"></path><path clip-path="url(#clip300)" d="M1867.76 34.1734 Q1866.5 33.4443 1865 33.1202 Q1863.54 32.7556 1861.76 32.7556 Q1855.44 32.7556 1852.04 36.8875 Q1848.68 40.9789 1848.68 48.6757 L1848.68 72.576 L1841.18 72.576 L1841.18 27.2059 L1848.68 27.2059 L1848.68 34.2544 Q1851.03 30.1225 1854.79 28.1376 Q1858.56 26.1121 1863.95 26.1121 Q1864.72 26.1121 1865.65 26.2337 Q1866.58 26.3147 1867.72 26.5172 L1867.76 34.1734 Z" fill="#000000" fill-rule="evenodd" fill-opacity="1"></path><path clip-path="url(#clip300)" d="M1909.44 35.9153 Q1912.24 30.8922 1916.13 28.5022 Q1920.01 26.1121 1925.28 26.1121 Q1932.37 26.1121 1936.22 31.0947 Q1940.07 36.0368 1940.07 45.1919 L1940.07 72.576 L1932.57 72.576 L1932.57 45.4349 Q1932.57 38.913 1930.26 35.7533 Q1927.95 32.5936 1923.21 32.5936 Q1917.42 32.5936 1914.06 36.4419 Q1910.7 40.2903 1910.7 46.9338 L1910.7 72.576 L1903.2 72.576 L1903.2 45.4349 Q1903.2 38.8725 1900.89 35.7533 Q1898.59 32.5936 1893.76 32.5936 Q1888.05 32.5936 1884.69 36.4824 Q1881.33 40.3308 1881.33 46.9338 L1881.33 72.576 L1873.83 72.576 L1873.83 27.2059 L1881.33 27.2059 L1881.33 34.2544 Q1883.88 30.082 1887.45 28.0971 Q1891.01 26.1121 1895.91 26.1121 Q1900.85 26.1121 1904.3 28.6237 Q1907.78 31.1352 1909.44 35.9153 Z" fill="#000000" fill-rule="evenodd" fill-opacity="1"></path><path clip-path="url(#clip300)" d="M1975.55 49.7694 Q1966.52 49.7694 1963.03 51.8354 Q1959.55 53.9013 1959.55 58.8839 Q1959.55 62.8538 1962.14 65.2034 Q1964.78 67.5124 1969.27 67.5124 Q1975.47 67.5124 1979.2 63.1374 Q1982.97 58.7219 1982.97 51.4303 L1982.97 49.7694 L1975.55 49.7694 M1990.42 46.6907 L1990.42 72.576 L1982.97 72.576 L1982.97 65.6895 Q1980.41 69.8214 1976.61 71.8063 Q1972.8 73.7508 1967.29 73.7508 Q1960.32 73.7508 1956.19 69.8619 Q1952.1 65.9325 1952.1 59.3701 Q1952.1 51.7138 1957.2 47.825 Q1962.35 43.9361 1972.51 43.9361 L1982.97 43.9361 L1982.97 43.2069 Q1982.97 38.0623 1979.56 35.2672 Q1976.2 32.4315 1970.08 32.4315 Q1966.19 32.4315 1962.51 33.3632 Q1958.82 34.295 1955.42 36.1584 L1955.42 29.2718 Q1959.51 27.692 1963.36 26.9223 Q1967.21 26.1121 1970.85 26.1121 Q1980.7 26.1121 1985.56 31.2163 Q1990.42 36.3204 1990.42 46.6907 Z" fill="#000000" fill-rule="evenodd" fill-opacity="1"></path><path clip-path="url(#clip300)" d="M2043.49 45.1919 L2043.49 72.576 L2036.03 72.576 L2036.03 45.4349 Q2036.03 38.994 2033.52 35.7938 Q2031.01 32.5936 2025.99 32.5936 Q2019.95 32.5936 2016.47 36.4419 Q2012.98 40.2903 2012.98 46.9338 L2012.98 72.576 L2005.49 72.576 L2005.49 27.2059 L2012.98 27.2059 L2012.98 34.2544 Q2015.66 30.163 2019.26 28.1376 Q2022.91 26.1121 2027.65 26.1121 Q2035.47 26.1121 2039.48 30.9732 Q2043.49 35.7938 2043.49 45.1919 Z" fill="#000000" fill-rule="evenodd" fill-opacity="1"></path><path clip-path="url(#clip300)" d="M2091 28.9478 L2091 35.9153 Q2087.84 34.1734 2084.64 33.3227 Q2081.48 32.4315 2078.24 32.4315 Q2070.99 32.4315 2066.98 37.0496 Q2062.97 41.6271 2062.97 49.9314 Q2062.97 58.2358 2066.98 62.8538 Q2070.99 67.4314 2078.24 67.4314 Q2081.48 67.4314 2084.64 66.5807 Q2087.84 65.6895 2091 63.9476 L2091 70.8341 Q2087.88 72.2924 2084.52 73.0216 Q2081.2 73.7508 2077.43 73.7508 Q2067.18 73.7508 2061.15 67.3098 Q2055.11 60.8689 2055.11 49.9314 Q2055.11 38.832 2061.19 32.472 Q2067.31 26.1121 2077.92 26.1121 Q2081.36 26.1121 2084.64 26.8413 Q2087.92 27.5299 2091 28.9478 Z" fill="#000000" fill-rule="evenodd" fill-opacity="1"></path><path clip-path="url(#clip300)" d="M2142.77 48.0275 L2142.77 51.6733 L2108.5 51.6733 Q2108.99 59.3701 2113.12 63.421 Q2117.29 67.4314 2124.71 67.4314 Q2129 67.4314 2133.01 66.3781 Q2137.06 65.3249 2141.03 63.2184 L2141.03 70.267 Q2137.02 71.9684 2132.81 72.8596 Q2128.6 73.7508 2124.26 73.7508 Q2113.4 73.7508 2107.04 67.4314 Q2100.73 61.1119 2100.73 50.3365 Q2100.73 39.1965 2106.72 32.6746 Q2112.76 26.1121 2122.96 26.1121 Q2132.12 26.1121 2137.43 32.0264 Q2142.77 37.9003 2142.77 48.0275 M2135.32 45.84 Q2135.24 39.7232 2131.88 36.0774 Q2128.55 32.4315 2123.05 32.4315 Q2116.81 32.4315 2113.04 35.9558 Q2109.31 39.4801 2108.75 45.8805 L2135.32 45.84 Z" fill="#000000" fill-rule="evenodd" fill-opacity="1"></path><polyline clip-path="url(#clip302)" style="stroke:#009af9; stroke-linecap:round; stroke-linejoin:round; stroke-width:12; stroke-opacity:1; fill:none" points="
  280.231,182.18 503.804,258.163 727.378,321.678 950.951,422.809 1174.52,701.983 1398.1,904.316 1621.67,890.702 1845.24,1270.33 2068.82,1291.43 2292.39,1386.4 
  
  "></polyline>
<polyline clip-path="url(#clip302)" style="stroke:#e26f46; stroke-linecap:round; stroke-linejoin:round; stroke-width:12; stroke-opacity:1; fill:none" points="
  280.231,160.256 503.804,162.406 727.378,174.55 950.951,239.749 1174.52,426.642 1398.1,566.283 1621.67,755.289 1845.24,1051.34 2068.82,1313.53 2292.39,1380.7 
  
  "></polyline>
<path clip-path="url(#clip300)" d="
M1821.46 322.316 L2281.66 322.316 L2281.66 166.796 L1821.46 166.796  Z
  " fill="#ffffff" fill-rule="evenodd" fill-opacity="1"></path>
<polyline clip-path="url(#clip300)" style="stroke:#000000; stroke-linecap:round; stroke-linejoin:round; stroke-width:4; stroke-opacity:1; fill:none" points="
  1821.46,322.316 2281.66,322.316 2281.66,166.796 1821.46,166.796 1821.46,322.316 
  "></polyline>
<polyline clip-path="url(#clip300)" style="stroke:#009af9; stroke-linecap:round; stroke-linejoin:round; stroke-width:4; stroke-opacity:1; fill:none" points="
  1845.15,218.636 1987.35,218.636 
  "></polyline>
<path clip-path="url(#clip300)" d="M2024.24 235.916 L2011.05 201.356 L2015.93 201.356 L2026.88 230.453 L2037.85 201.356 L2042.71 201.356 L2029.54 235.916 L2024.24 235.916 Z" fill="#000000" fill-rule="evenodd" fill-opacity="1"></path><path clip-path="url(#clip300)" d="M2055.68 222.883 Q2050.51 222.883 2048.52 224.064 Q2046.53 225.244 2046.53 228.092 Q2046.53 230.36 2048.01 231.703 Q2049.52 233.022 2052.09 233.022 Q2055.63 233.022 2057.76 230.522 Q2059.91 227.999 2059.91 223.832 L2059.91 222.883 L2055.68 222.883 M2064.17 221.124 L2064.17 235.916 L2059.91 235.916 L2059.91 231.981 Q2058.45 234.342 2056.28 235.476 Q2054.1 236.587 2050.95 236.587 Q2046.97 236.587 2044.61 234.365 Q2042.27 232.119 2042.27 228.369 Q2042.27 223.994 2045.19 221.772 Q2048.13 219.55 2053.94 219.55 L2059.91 219.55 L2059.91 219.133 Q2059.91 216.194 2057.97 214.596 Q2056.05 212.976 2052.55 212.976 Q2050.33 212.976 2048.22 213.508 Q2046.11 214.041 2044.17 215.106 L2044.17 211.17 Q2046.51 210.268 2048.71 209.828 Q2050.91 209.365 2052.99 209.365 Q2058.61 209.365 2061.39 212.282 Q2064.17 215.198 2064.17 221.124 Z" fill="#000000" fill-rule="evenodd" fill-opacity="1"></path><path clip-path="url(#clip300)" d="M2094.49 220.268 L2094.49 235.916 L2090.24 235.916 L2090.24 220.407 Q2090.24 216.726 2088.8 214.897 Q2087.36 213.069 2084.49 213.069 Q2081.05 213.069 2079.05 215.268 Q2077.06 217.467 2077.06 221.263 L2077.06 235.916 L2072.78 235.916 L2072.78 209.99 L2077.06 209.99 L2077.06 214.018 Q2078.59 211.68 2080.65 210.522 Q2082.74 209.365 2085.44 209.365 Q2089.91 209.365 2092.2 212.143 Q2094.49 214.897 2094.49 220.268 Z" fill="#000000" fill-rule="evenodd" fill-opacity="1"></path><path clip-path="url(#clip300)" d="M2102.99 209.99 L2107.25 209.99 L2107.25 235.916 L2102.99 235.916 L2102.99 209.99 M2102.99 199.897 L2107.25 199.897 L2107.25 205.291 L2102.99 205.291 L2102.99 199.897 Z" fill="#000000" fill-rule="evenodd" fill-opacity="1"></path><path clip-path="url(#clip300)" d="M2116.16 199.897 L2120.42 199.897 L2120.42 235.916 L2116.16 235.916 L2116.16 199.897 Z" fill="#000000" fill-rule="evenodd" fill-opacity="1"></path><path clip-path="url(#clip300)" d="M2129.33 199.897 L2133.59 199.897 L2133.59 235.916 L2129.33 235.916 L2129.33 199.897 Z" fill="#000000" fill-rule="evenodd" fill-opacity="1"></path><path clip-path="url(#clip300)" d="M2154.29 222.883 Q2149.12 222.883 2147.13 224.064 Q2145.14 225.244 2145.14 228.092 Q2145.14 230.36 2146.62 231.703 Q2148.13 233.022 2150.7 233.022 Q2154.24 233.022 2156.37 230.522 Q2158.52 227.999 2158.52 223.832 L2158.52 222.883 L2154.29 222.883 M2162.78 221.124 L2162.78 235.916 L2158.52 235.916 L2158.52 231.981 Q2157.06 234.342 2154.89 235.476 Q2152.71 236.587 2149.56 236.587 Q2145.58 236.587 2143.22 234.365 Q2140.88 232.119 2140.88 228.369 Q2140.88 223.994 2143.8 221.772 Q2146.74 219.55 2152.55 219.55 L2158.52 219.55 L2158.52 219.133 Q2158.52 216.194 2156.58 214.596 Q2154.66 212.976 2151.16 212.976 Q2148.94 212.976 2146.83 213.508 Q2144.73 214.041 2142.78 215.106 L2142.78 211.17 Q2145.12 210.268 2147.32 209.828 Q2149.52 209.365 2151.6 209.365 Q2157.23 209.365 2160 212.282 Q2162.78 215.198 2162.78 221.124 Z" fill="#000000" fill-rule="evenodd" fill-opacity="1"></path><polyline clip-path="url(#clip300)" style="stroke:#e26f46; stroke-linecap:round; stroke-linejoin:round; stroke-width:4; stroke-opacity:1; fill:none" points="
  1845.15,270.476 1987.35,270.476 
  "></polyline>
<path clip-path="url(#clip300)" d="M2015.72 257.038 L2015.72 283.913 L2021.37 283.913 Q2028.52 283.913 2031.83 280.672 Q2035.17 277.432 2035.17 270.441 Q2035.17 263.497 2031.83 260.279 Q2028.52 257.038 2021.37 257.038 L2015.72 257.038 M2011.05 253.196 L2020.65 253.196 Q2030.7 253.196 2035.4 257.386 Q2040.1 261.552 2040.1 270.441 Q2040.1 279.376 2035.37 283.566 Q2030.65 287.756 2020.65 287.756 L2011.05 287.756 L2011.05 253.196 Z" fill="#000000" fill-rule="evenodd" fill-opacity="1"></path><path clip-path="url(#clip300)" d="M2069.54 273.728 L2069.54 275.811 L2049.96 275.811 Q2050.24 280.209 2052.6 282.524 Q2054.98 284.816 2059.22 284.816 Q2061.67 284.816 2063.96 284.214 Q2066.28 283.612 2068.55 282.409 L2068.55 286.436 Q2066.25 287.408 2063.85 287.918 Q2061.44 288.427 2058.96 288.427 Q2052.76 288.427 2049.12 284.816 Q2045.51 281.205 2045.51 275.047 Q2045.51 268.682 2048.94 264.955 Q2052.39 261.205 2058.22 261.205 Q2063.45 261.205 2066.49 264.585 Q2069.54 267.941 2069.54 273.728 M2065.28 272.478 Q2065.24 268.983 2063.31 266.899 Q2061.42 264.816 2058.27 264.816 Q2054.7 264.816 2052.55 266.83 Q2050.42 268.844 2050.1 272.501 L2065.28 272.478 Z" fill="#000000" fill-rule="evenodd" fill-opacity="1"></path><path clip-path="url(#clip300)" d="M2098.08 272.108 L2098.08 287.756 L2093.82 287.756 L2093.82 272.247 Q2093.82 268.566 2092.39 266.737 Q2090.95 264.909 2088.08 264.909 Q2084.63 264.909 2082.64 267.108 Q2080.65 269.307 2080.65 273.103 L2080.65 287.756 L2076.37 287.756 L2076.37 261.83 L2080.65 261.83 L2080.65 265.858 Q2082.18 263.52 2084.24 262.362 Q2086.32 261.205 2089.03 261.205 Q2093.5 261.205 2095.79 263.983 Q2098.08 266.737 2098.08 272.108 Z" fill="#000000" fill-rule="evenodd" fill-opacity="1"></path><path clip-path="url(#clip300)" d="M2123.11 262.594 L2123.11 266.622 Q2121.3 265.696 2119.36 265.233 Q2117.41 264.77 2115.33 264.77 Q2112.16 264.77 2110.56 265.742 Q2108.98 266.714 2108.98 268.659 Q2108.98 270.14 2110.12 270.997 Q2111.25 271.83 2114.68 272.594 L2116.14 272.918 Q2120.67 273.89 2122.57 275.672 Q2124.49 277.432 2124.49 280.603 Q2124.49 284.214 2121.62 286.321 Q2118.78 288.427 2113.78 288.427 Q2111.69 288.427 2109.42 288.01 Q2107.18 287.617 2104.68 286.807 L2104.68 282.409 Q2107.04 283.635 2109.33 284.26 Q2111.62 284.862 2113.87 284.862 Q2116.88 284.862 2118.5 283.844 Q2120.12 282.802 2120.12 280.927 Q2120.12 279.191 2118.94 278.265 Q2117.78 277.339 2113.82 276.483 L2112.34 276.135 Q2108.38 275.302 2106.62 273.589 Q2104.86 271.853 2104.86 268.844 Q2104.86 265.186 2107.46 263.196 Q2110.05 261.205 2114.82 261.205 Q2117.18 261.205 2119.26 261.552 Q2121.35 261.899 2123.11 262.594 Z" fill="#000000" fill-rule="evenodd" fill-opacity="1"></path><path clip-path="url(#clip300)" d="M2153.45 273.728 L2153.45 275.811 L2133.87 275.811 Q2134.15 280.209 2136.51 282.524 Q2138.89 284.816 2143.13 284.816 Q2145.58 284.816 2147.87 284.214 Q2150.19 283.612 2152.46 282.409 L2152.46 286.436 Q2150.17 287.408 2147.76 287.918 Q2145.35 288.427 2142.87 288.427 Q2136.67 288.427 2133.04 284.816 Q2129.42 281.205 2129.42 275.047 Q2129.42 268.682 2132.85 264.955 Q2136.3 261.205 2142.13 261.205 Q2147.36 261.205 2150.4 264.585 Q2153.45 267.941 2153.45 273.728 M2149.19 272.478 Q2149.15 268.983 2147.23 266.899 Q2145.33 264.816 2142.18 264.816 Q2138.61 264.816 2136.46 266.83 Q2134.33 268.844 2134.01 272.501 L2149.19 272.478 Z" fill="#000000" fill-rule="evenodd" fill-opacity="1"></path><path clip-path="url(#clip300)" d="M2165.3 257.038 L2165.3 270.024 L2171.18 270.024 Q2174.45 270.024 2176.23 268.335 Q2178.01 266.645 2178.01 263.52 Q2178.01 260.418 2176.23 258.728 Q2174.45 257.038 2171.18 257.038 L2165.3 257.038 M2160.63 253.196 L2171.18 253.196 Q2176.99 253.196 2179.96 255.835 Q2182.94 258.45 2182.94 263.52 Q2182.94 268.635 2179.96 271.251 Q2176.99 273.867 2171.18 273.867 L2165.3 273.867 L2165.3 287.756 L2160.63 287.756 L2160.63 253.196 Z" fill="#000000" fill-rule="evenodd" fill-opacity="1"></path><path clip-path="url(#clip300)" d="M2197.39 264.816 Q2193.96 264.816 2191.97 267.501 Q2189.98 270.163 2189.98 274.816 Q2189.98 279.469 2191.95 282.154 Q2193.94 284.816 2197.39 284.816 Q2200.79 284.816 2202.78 282.131 Q2204.77 279.446 2204.77 274.816 Q2204.77 270.21 2202.78 267.524 Q2200.79 264.816 2197.39 264.816 M2197.39 261.205 Q2202.94 261.205 2206.11 264.816 Q2209.29 268.427 2209.29 274.816 Q2209.29 281.182 2206.11 284.816 Q2202.94 288.427 2197.39 288.427 Q2191.81 288.427 2188.64 284.816 Q2185.49 281.182 2185.49 274.816 Q2185.49 268.427 2188.64 264.816 Q2191.81 261.205 2197.39 261.205 Z" fill="#000000" fill-rule="evenodd" fill-opacity="1"></path><path clip-path="url(#clip300)" d="M2232.87 262.594 L2232.87 266.622 Q2231.07 265.696 2229.12 265.233 Q2227.18 264.77 2225.1 264.77 Q2221.92 264.77 2220.33 265.742 Q2218.75 266.714 2218.75 268.659 Q2218.75 270.14 2219.89 270.997 Q2221.02 271.83 2224.45 272.594 L2225.91 272.918 Q2230.44 273.89 2232.34 275.672 Q2234.26 277.432 2234.26 280.603 Q2234.26 284.214 2231.39 286.321 Q2228.54 288.427 2223.54 288.427 Q2221.46 288.427 2219.19 288.01 Q2216.95 287.617 2214.45 286.807 L2214.45 282.409 Q2216.81 283.635 2219.1 284.26 Q2221.39 284.862 2223.64 284.862 Q2226.65 284.862 2228.27 283.844 Q2229.89 282.802 2229.89 280.927 Q2229.89 279.191 2228.71 278.265 Q2227.55 277.339 2223.59 276.483 L2222.11 276.135 Q2218.15 275.302 2216.39 273.589 Q2214.63 271.853 2214.63 268.844 Q2214.63 265.186 2217.23 263.196 Q2219.82 261.205 2224.59 261.205 Q2226.95 261.205 2229.03 261.552 Q2231.11 261.899 2232.87 262.594 Z" fill="#000000" fill-rule="evenodd" fill-opacity="1"></path></svg>